<svg width="40" height="46" viewBox="0 0 40 46" fill="none" xmlns="http://www.w3.org/2000/svg">
<path d="M0 41.4062C0 43.7793 1.8457 45.625 4.21875 45.625H35.1562C37.4414 45.625 39.375 43.7793 39.375 41.4062V17.5H0V41.4062ZM28.125 24.1797C28.125 23.6523 28.5645 23.125 29.1797 23.125H32.6953C33.2227 23.125 33.75 23.6523 33.75 24.1797V27.6953C33.75 28.3105 33.2227 28.75 32.6953 28.75H29.1797C28.5645 28.75 28.125 28.3105 28.125 27.6953V24.1797ZM28.125 35.4297C28.125 34.9023 28.5645 34.375 29.1797 34.375H32.6953C33.2227 34.375 33.75 34.9023 33.75 35.4297V38.9453C33.75 39.5605 33.2227 40 32.6953 40H29.1797C28.5645 40 28.125 39.5605 28.125 38.9453V35.4297ZM16.875 24.1797C16.875 23.6523 17.3145 23.125 17.9297 23.125H21.4453C21.9727 23.125 22.5 23.6523 22.5 24.1797V27.6953C22.5 28.3105 21.9727 28.75 21.4453 28.75H17.9297C17.3145 28.75 16.875 28.3105 16.875 27.6953V24.1797ZM16.875 35.4297C16.875 34.9023 17.3145 34.375 17.9297 34.375H21.4453C21.9727 34.375 22.5 34.9023 22.5 35.4297V38.9453C22.5 39.5605 21.9727 40 21.4453 40H17.9297C17.3145 40 16.875 39.5605 16.875 38.9453V35.4297ZM5.625 24.1797C5.625 23.6523 6.06445 23.125 6.67969 23.125H10.1953C10.7227 23.125 11.25 23.6523 11.25 24.1797V27.6953C11.25 28.3105 10.7227 28.75 10.1953 28.75H6.67969C6.06445 28.75 5.625 28.3105 5.625 27.6953V24.1797ZM5.625 35.4297C5.625 34.9023 6.06445 34.375 6.67969 34.375H10.1953C10.7227 34.375 11.25 34.9023 11.25 35.4297V38.9453C11.25 39.5605 10.7227 40 10.1953 40H6.67969C6.06445 40 5.625 39.5605 5.625 38.9453V35.4297ZM35.1562 6.25H30.9375V2.03125C30.9375 1.32812 30.2344 0.625 29.5312 0.625H26.7188C25.9277 0.625 25.3125 1.32812 25.3125 2.03125V6.25H14.0625V2.03125C14.0625 1.32812 13.3594 0.625 12.6562 0.625H9.84375C9.05273 0.625 8.4375 1.32812 8.4375 2.03125V6.25H4.21875C1.8457 6.25 0 8.18359 0 10.4688V14.6875H39.375V10.4688C39.375 8.18359 37.4414 6.25 35.1562 6.25Z" fill="#CAD0D0"/>
</svg>
