<?xml version="1.0" encoding="UTF-8"?><svg id="a" xmlns="http://www.w3.org/2000/svg" viewBox="0 0 499.81 499.8"><defs><style>.b{fill:#fcfafc;}.c{fill:#fefdfe;}.d{fill:#cf7976;}</style></defs><path class="d" d="M228.91,0h41.98c7.81,2.3,15.97,2.33,23.92,3.76,101.95,18.34,182.31,98.1,201.28,199.82,1.32,7.1,1.22,14.44,3.71,21.33v48.98c-2,5.33-1.9,11.02-2.77,16.53-16.96,106.43-102.71,190.92-209.72,206.63-5.81,.85-11.83,.48-17.42,2.75h-38.98c-4.48-1.99-9.34-1.54-14.02-2.21-59.93-8.65-110.69-34.97-151.48-79.74C28.59,377.45,7.5,329.8,1.7,275.38c-.44-4.15,.41-8.54-1.7-12.49v-27.99c1.59-.81,.88-2.34,1.03-3.55,.83-6.77,1.31-13.59,2.4-20.31,9.02-55.33,33.42-102.72,73.93-141.57C113.64,34.68,156.6,12.84,206.1,3.8c7.59-1.39,15.38-1.49,22.81-3.8Zm139.88,249.37h-.22c0-35.48,.05-70.96-.02-106.43-.05-24.46-19.1-44.71-43.56-44.93-49.8-.45-99.6-.45-149.4-.03-24.25,.2-43.46,20.43-43.52,45.1-.17,71.29-.19,142.58,0,213.87,.07,25.06,20.44,44.88,45.37,44.89,48.64,.03,97.27,0,145.91,.04,4.2,0,8.27-.56,12.29-1.74,20.28-5.96,33.11-23.63,33.13-45.83,.04-34.98,.01-69.95,.01-104.93Z"/><path class="b" d="M368.79,249.37c0,34.98,.03,69.95-.01,104.93-.03,22.21-12.85,39.87-33.13,45.83-4.01,1.18-8.08,1.74-12.29,1.74-48.64-.04-97.27,0-145.91-.04-24.93-.01-45.3-19.83-45.37-44.89-.19-71.29-.18-142.58,0-213.87,.06-24.67,19.28-44.9,43.52-45.1,49.8-.42,99.6-.41,149.4,.03,24.45,.22,43.51,20.48,43.56,44.93,.07,35.48,.02,70.96,.02,106.43h.22Zm-216.01,.54c0,34.81,0,69.62,0,104.43,0,17.06,9.9,26.95,26.97,26.95,46.97,.01,93.94,0,140.9,0,17.48,0,27.34-9.73,27.35-27.12,.03-69.62,.03-139.24,0-208.86,0-16.89-10.05-27.12-27.03-27.16-47.13-.11-94.27-.13-141.4,.01-16.98,.05-26.78,10.3-26.79,27.32-.01,34.81,0,69.62,0,104.43Z"/><path class="d" d="M152.78,249.92c0-34.81,0-69.62,0-104.43,0-17.02,9.81-27.27,26.79-27.32,47.13-.14,94.27-.12,141.4-.01,16.98,.04,27.02,10.27,27.03,27.16,.03,69.62,.03,139.24,0,208.86,0,17.4-9.87,27.12-27.35,27.12-46.97,0-93.94,.01-140.9,0-17.08,0-26.97-9.89-26.97-26.95-.01-34.81,0-69.62,0-104.43Zm97.33-39.99c23.8,0,47.6-.09,71.4,.09,3.97,.03,5.18-1.17,5.15-5.08-.15-19.14-.15-38.28,0-57.42,.03-3.72-1.18-4.82-4.89-4.81-47.6,.11-95.2,.11-142.81,0-3.74,0-4.87,1.1-4.84,4.81,.15,19.14,.16,38.28,0,57.42-.03,3.89,1.08,5.12,5.08,5.09,23.63-.18,47.27-.09,70.9-.09Zm34.61,104.96c0,12.48,.09,24.96-.06,37.44-.04,3.42,.97,4.67,4.53,4.61,10.98-.2,21.97-.2,32.94,0,3.61,.07,4.51-1.28,4.5-4.63-.1-24.79-.11-49.59,0-74.38,.02-3.78-1.05-5.36-5.09-5.27-10.64,.23-21.3,.26-31.94-.01-4.2-.11-4.99,1.6-4.94,5.31,.17,12.31,.07,24.63,.07,36.94Zm-89.44-42.16c-5.66,0-11.32,.11-16.98-.05-2.96-.08-4.19,.89-4.15,3.97,.13,9.65,.13,19.31,0,28.96-.04,3.07,1.17,4.06,4.14,4.03,11.32-.11,22.64-.1,33.95,0,2.81,.02,3.76-.97,3.72-3.79-.13-9.82-.14-19.64,0-29.46,.04-2.84-.91-3.8-3.72-3.72-5.65,.16-11.32,.05-16.98,.05Zm-.09-10.82c5.66,0,11.33-.11,16.99,.05,2.72,.08,3.84-.67,3.8-3.61-.15-9.82-.16-19.66,0-29.48,.05-3.14-1.11-3.97-4.07-3.94-11.16,.13-22.32,.15-33.48,0-3.4-.05-4.29,1.36-4.26,4.45,.11,9.33,.14,18.66-.02,27.98-.06,3.38,.95,4.79,4.54,4.62,5.48-.26,10.99-.07,16.49-.07Zm.23,94.96c5.66,0,11.32-.08,16.97,.04,2.42,.05,3.61-.48,3.57-3.26-.14-9.98-.12-19.97,0-29.95,.03-2.84-1.05-3.79-3.8-3.77-11.31,.09-22.63,.1-33.94,0-3.1-.03-4.05,1.35-4.02,4.24,.09,9.48,.1,18.97-.01,28.45-.04,3.12,.85,4.5,4.27,4.33,5.64-.27,11.31-.07,16.97-.07Zm109.61-94.96c5.81,0,11.63-.14,17.44,.06,3.06,.11,4.16-1.08,4.14-4-.07-9.63-.05-19.26-.01-28.9,.01-2.84-1.02-4.16-4.12-4.12-11.29,.13-22.59,.11-33.88,.01-2.66-.02-3.93,.66-3.9,3.6,.12,9.96,.14,19.93,0,29.89-.04,3.03,1.31,3.56,3.91,3.5,5.48-.14,10.96-.04,16.44-.04Zm-54.63,0c5.66,0,11.33-.12,16.99,.05,2.86,.09,3.76-.98,3.72-3.75-.11-9.82-.11-19.65,0-29.48,.03-2.77-.89-3.81-3.74-3.79-11.32,.12-22.65,.12-33.97,0-2.9-.03-3.72,1.09-3.69,3.82,.11,9.83,.12,19.65,0,29.48-.03,2.79,.86,3.82,3.71,3.73,5.66-.18,11.32-.05,16.99-.05Zm-.38,47.69c5.65,0,11.31-.1,16.95,.04,2.9,.07,4.19-.79,4.14-3.94-.15-9.64-.14-19.28,0-28.92,.04-2.93-.75-4.14-3.9-4.09-11.13,.15-22.27,.13-33.41,.01-2.89-.03-4.17,.68-4.11,3.87,.17,9.64,.21,19.28-.01,28.92-.08,3.47,1.31,4.25,4.39,4.16,5.31-.16,10.64-.05,15.96-.05Zm.27,47.27c5.66,0,11.32-.11,16.97,.05,2.68,.07,3.89-.62,3.85-3.57-.14-9.81-.14-19.63,0-29.45,.04-3.11-1.18-4.01-4.13-3.98-11.15,.11-22.3,.1-33.44,0-2.77-.02-3.85,.93-3.82,3.76,.11,9.82,.16,19.64-.03,29.45-.06,3.25,1.27,3.89,4.13,3.8,5.49-.17,10.98-.05,16.47-.05Z"/><path class="b" d="M250.12,209.93c-23.63,0-47.27-.09-70.9,.09-4,.03-5.11-1.19-5.08-5.09,.16-19.14,.16-38.28,0-57.42-.03-3.71,1.1-4.82,4.84-4.81,47.6,.11,95.2,.11,142.81,0,3.71,0,4.91,1.1,4.89,4.81-.14,19.14-.15,38.28,0,57.42,.03,3.91-1.18,5.11-5.15,5.08-23.8-.17-47.6-.09-71.4-.09Zm.11-11.85c19.99,0,39.98-.07,59.97,.07,3.46,.02,4.64-1.01,4.58-4.54-.18-11.66-.17-23.32,0-34.98,.05-3.37-1.25-4.26-4.4-4.26-39.81,.07-79.62,.07-119.44,0-3.63,0-4.97,1.2-4.91,4.94,.2,11.16,.24,22.32-.02,33.48-.09,4.08,1,5.43,5.25,5.39,19.65-.21,39.31-.09,58.97-.1Z"/><path class="c" d="M284.73,314.89c0-12.31,.11-24.63-.07-36.94-.05-3.71,.74-5.41,4.94-5.31,10.64,.27,21.3,.24,31.94,.01,4.05-.09,5.11,1.49,5.09,5.27-.11,24.79-.1,49.59,0,74.38,.01,3.36-.89,4.7-4.5,4.63-10.98-.21-21.96-.2-32.94,0-3.56,.06-4.57-1.18-4.53-4.61,.16-12.48,.06-24.96,.06-37.44Z"/><path class="b" d="M195.29,272.72c5.66,0,11.32,.11,16.98-.05,2.8-.08,3.76,.88,3.72,3.72-.14,9.82-.14,19.64,0,29.46,.04,2.82-.91,3.81-3.72,3.79-11.32-.1-22.64-.1-33.95,0-2.97,.03-4.17-.96-4.14-4.03,.12-9.65,.12-19.31,0-28.96-.04-3.09,1.18-4.06,4.15-3.97,5.65,.16,11.32,.05,16.98,.05Z"/><path class="b" d="M195.19,261.9c-5.5,0-11-.19-16.49,.07-3.6,.17-4.6-1.23-4.54-4.62,.16-9.32,.13-18.65,.02-27.98-.04-3.09,.86-4.5,4.26-4.45,11.16,.16,22.32,.14,33.48,0,2.96-.03,4.12,.79,4.07,3.94-.17,9.82-.16,19.65,0,29.48,.05,2.94-1.08,3.68-3.8,3.61-5.66-.16-11.32-.05-16.99-.05Z"/><path class="c" d="M195.42,356.86c-5.66,0-11.32-.2-16.97,.07-3.42,.16-4.31-1.21-4.27-4.33,.12-9.48,.1-18.97,.01-28.45-.03-2.89,.92-4.26,4.02-4.24,11.31,.1,22.63,.09,33.94,0,2.75-.02,3.83,.93,3.8,3.77-.12,9.98-.13,19.97,0,29.95,.04,2.79-1.16,3.32-3.57,3.26-5.65-.12-11.31-.04-16.97-.04Z"/><path class="c" d="M305.03,261.9c-5.48,0-10.96-.09-16.44,.04-2.6,.06-3.95-.47-3.91-3.5,.15-9.96,.13-19.93,0-29.89-.04-2.94,1.24-3.62,3.9-3.6,11.29,.1,22.59,.12,33.88-.01,3.1-.04,4.13,1.28,4.12,4.12-.04,9.63-.05,19.26,.01,28.9,.02,2.93-1.08,4.11-4.14,4-5.81-.2-11.62-.06-17.44-.06Z"/><path class="b" d="M250.4,261.9c-5.66,0-11.33-.13-16.99,.05-2.86,.09-3.75-.94-3.71-3.73,.12-9.82,.11-19.65,0-29.48-.03-2.73,.78-3.85,3.69-3.82,11.32,.13,22.65,.12,33.97,0,2.85-.03,3.77,1.01,3.74,3.79-.11,9.83-.11,19.65,0,29.48,.03,2.77-.86,3.84-3.72,3.75-5.66-.17-11.32-.05-16.99-.05Z"/><path class="c" d="M250.02,309.59c-5.32,0-10.64-.12-15.96,.05-3.08,.09-4.47-.69-4.39-4.16,.22-9.64,.19-19.28,.01-28.92-.06-3.19,1.22-3.9,4.11-3.87,11.14,.12,22.27,.14,33.41-.01,3.15-.04,3.94,1.16,3.9,4.09-.14,9.64-.15,19.28,0,28.92,.05,3.15-1.24,4.01-4.14,3.94-5.65-.14-11.3-.04-16.95-.04Z"/><path class="c" d="M250.29,356.86c-5.49,0-10.99-.12-16.47,.05-2.86,.09-4.19-.54-4.13-3.8,.18-9.81,.13-19.63,.03-29.45-.03-2.82,1.05-3.78,3.82-3.76,11.15,.1,22.3,.11,33.44,0,2.95-.03,4.17,.87,4.13,3.98-.14,9.81-.14,19.63,0,29.45,.04,2.96-1.16,3.65-3.85,3.57-5.65-.15-11.31-.05-16.97-.05Z"/><path class="d" d="M250.23,198.07c-19.66,0-39.31-.12-58.97,.09-4.25,.05-5.34-1.31-5.25-5.39,.26-11.15,.22-22.32,.02-33.48-.07-3.74,1.27-4.94,4.91-4.94,39.81,.08,79.62,.07,119.44,0,3.15,0,4.44,.89,4.4,4.26-.16,11.66-.18,23.32,0,34.98,.06,3.52-1.12,4.56-4.58,4.54-19.99-.13-39.98-.07-59.97-.06Z"/></svg>