<?xml version="1.0" encoding="UTF-8"?><svg id="a" xmlns="http://www.w3.org/2000/svg" viewBox="0 0 1159.04 1160.31"><defs><style>.b{fill:#fcfcfd;}.c{fill:#cf7976;}</style></defs><path class="c" d="M547.14,0h62.99c.94,1.34,2.39,.91,3.65,.98,25.47,1.45,50.76,4.43,75.77,9.39,124.88,24.77,231.06,83.53,316.93,177.47,93.06,101.8,143.08,222.29,151.57,359.98,.07,1.09-.39,2.39,.98,3.09v59.99c-1.99,4.48-1.42,9.32-1.77,13.98-3.57,48.23-12.94,95.32-28.58,141.04-36.89,107.91-99.85,197.74-189.09,268.74-86.58,68.88-185.19,109.43-295.11,121.9-54.4,6.17-108.74,4.76-162.76-4.61-120.47-20.9-224.1-74.69-311.06-160.4-48.26-47.56-86.62-102.33-115.51-163.65-25.66-54.47-42.36-111.57-50.14-171.3C2.14,634.45,.64,612.21,0,589.9v-20.01c.84-32.83,3.82-65.43,10.01-97.71,23.43-122.14,79.7-226.72,169.78-312.32C279.18,65.4,397.88,12.97,534.66,1.71c4.15-.34,8.53,.34,12.48-1.71Zm-90.98,618.17c-13.51,.24-24.33-4.7-34.19-12.39-19.74-15.38-20.24-44.03,2.19-58.56,26.41-17.1,51.36-36.37,76.54-55.25,1.53-1.14,3.04-2.23,2.47-4.43-.51-1.96-2.27-2.24-3.9-2.57-8.13-1.63-16.07-1.44-24.09,1.23-28.54,9.47-57.17,18.68-85.77,27.99-8.71,2.84-17.15,2.69-25.75-1.01-10.22-4.4-20.71-8.18-31.14-12.08-7.63-2.85-10.19-1.9-14.22,5.35-27.89,50.16-55.74,100.35-83.55,150.55-3.62,6.53-2.84,9.19,3.71,12.97,26.23,15.15,52.51,30.2,78.72,45.36,3.78,2.19,6.29,1.94,8.38-2.3,6.63-13.4,17.84-20.28,32.52-19.96,14.98,.33,25.76,8.18,31.78,21.97,1.68,3.84,2.61,3.92,5.43,.91,17.66-18.84,46.41-14.44,57.85,8.7,2.79,5.64,3.21,5.72,8.04,1.45,17.01-14.99,42.39-11.12,53.63,8.5,3.56,6.21,9.05,10.09,14.29,14.41,1.48,1.22,3.11,.73,4.76,.42,21.95-4.06,40.97,10.64,42.31,32.75,.17,2.8,.86,5.11,3.2,6.95,19.66,15.42,39.24,30.93,58.9,46.34,4.61,3.61,9.98,5.36,15.84,4.77,12.06-1.21,19.91-8,23.67-19.25,3.61-10.8,.04-20.92-9.74-28.69-34.3-27.24-68.67-54.4-103-81.61-5.48-4.34-10.92-8.74-16.27-13.24-1.98-1.67-3.23-3.93-2.5-6.66,.67-2.49,2.61-3.84,5.01-4.37,2.76-.61,4.72,1.16,6.67,2.69,15.58,12.25,31.13,24.54,46.7,36.8,32.98,25.96,65.91,51.98,98.96,77.84,12.43,9.72,27.5,7.69,37.05-4.58,9.22-11.84,7.2-27.11-4.92-36.67-47.47-37.44-94.96-74.86-142.41-112.32-2.08-1.64-4.1-3.45-5.74-5.51-1.71-2.14-1.65-4.61,.11-6.9,1.81-2.36,4.25-2.7,6.71-1.68,1.96,.81,3.75,2.14,5.43,3.47,46.58,36.68,93.13,73.4,139.7,110.1,10.46,8.25,20.84,16.62,31.49,24.61,9.25,6.94,20.64,7.03,29.88,.81,8.9-5.99,13.46-17.46,11.27-27.91-1.7-8.12-7.33-13.12-13.44-17.94-65.91-51.97-131.85-103.91-197.59-156.1-7.05-5.59-13.41-6.41-21.54-2.91-33.89,14.61-67.94,28.85-101.93,43.22-7.12,3.01-14.47,4.93-21.53,4.71Zm174.68-163.2c-2.86-.4-5.53,.58-8.22,1.45-25.6,8.27-51.21,16.51-76.81,24.81-10.75,3.48-21.53,6.84-30.72,13.89-27.86,21.4-56.24,42.09-85.15,62.06-14.97,10.34-15.62,27.41-1.64,39.15,14.24,11.95,29.86,13.21,46.67,6.05,36.7-15.63,73.46-31.11,110.15-46.77,6.63-2.83,12.15-2.33,17.99,2.34,69.59,55.61,139.31,111.07,209,166.56,7.51,5.98,10.23,6.06,18.1,.31,24.34-17.76,48.66-35.56,72.97-53.37,7.11-5.21,7.76-7.75,3.47-15.49-27.73-50.06-55.5-100.09-83.3-150.11-3.66-6.59-6.38-7.56-13.55-4.88-10.58,3.96-21.28,7.69-31.6,12.27-8.83,3.92-16.71,3.25-25.26-.98-37.41-18.49-75-36.62-112.52-54.88-3.01-1.46-6.05-2.82-9.58-2.41Zm446.11,133.93c.2-3.48-1.46-6.04-2.88-8.66-29.19-53.8-58.4-107.58-87.59-161.38-5.93-10.93-10.37-12.45-21.21-6.56-38.43,20.9-76.82,41.87-115.19,62.87-10.21,5.59-11.44,9.99-5.89,20.2,29.58,54.34,59.17,108.68,88.78,163,5.16,9.46,9.45,10.72,19.02,5.54,14.04-7.6,28.02-15.31,42.04-22.96,25.12-13.7,50.23-27.4,75.37-41.04,4.57-2.48,7.74-5.74,7.54-11.02Zm-776.18-103.03c-.38-5.72-4.68-8.13-8.95-10.46-29.79-16.25-59.61-32.47-89.42-48.69-9.79-5.32-19.53-10.76-29.44-15.85-7.17-3.68-11.26-2.3-15.51,4.52-.61,.99-1.12,2.04-1.68,3.06-29.33,53.73-58.66,107.47-88,161.19-5.83,10.68-4.79,14.79,5.69,20.51,38.69,21.13,77.41,42.23,116.14,63.29,10.03,5.46,14.08,4.18,19.64-6.03,8.84-16.21,17.64-32.45,26.46-48.67,20.5-37.71,40.99-75.42,61.51-113.12,1.68-3.08,3.21-6.2,3.57-9.75Zm237.49,271.84c-8.39,.27-17.25,5.04-21.2,15.53-7.31,19.42-14.08,39.06-20.24,58.88-3.95,12.7,4.9,26.96,17.91,31.01,13.46,4.18,27.2-2.34,32.08-15.37,6.99-18.67,13.69-37.44,19.36-56.56,5.11-17.21-7.15-33.46-27.91-33.48Zm-54.42-31.83c-11.22,.03-20.39,6.74-24.56,18.55-6.29,17.86-12.31,35.82-18.44,53.74-1.03,3.01-1.85,6.05-1.58,9.28,1.08,12.95,10.81,23.6,23.09,25.29,12.21,1.68,23.72-5.08,28.25-17.49,6.66-18.26,13.16-36.6,19.02-55.12,5.44-17.19-7.79-34.29-25.78-34.24Zm-73.49,72.91c10.52-.05,19.59-6.12,23.67-16.11,4.72-11.52,8.33-23.44,12.21-35.26,1.16-3.54,1.59-6.96,1.09-10.72-1.7-12.6-10.51-21.49-23.57-23.36-11.07-1.59-22.79,5.18-26.94,16.28-4.36,11.64-8.48,23.4-12.02,35.31-5.1,17.18,7.79,33.93,25.56,33.85Zm-57.42-31.93c3.92,.23,7.57-.8,11.06-2.48,14.65-7.06,18.21-21.25,19.34-34.94,1.25-15.19-9.89-24.64-20.61-26.77-12.87-2.56-24.89,3.51-29.93,15.75-2.01,4.89-3.82,9.92-5.16,15.04-4.43,16.82,8.12,33.26,25.3,33.4Zm232.13,98.09c6.63,.24,9.92-.98,14.36-5.18,10.71-10.13,10.74-28.52-.31-38.33-7.21-6.41-14.97-12.2-22.39-18.38-3.31-2.75-4.47-.97-5.52,2.09-4.58,13.36-9.22,26.69-13.87,40.03q-2.64,7.56,3.45,12.77c4.2,3.61,8.54,7.01,14.26,7.73,3.48,.44,6.85-1.59,10.02-.72Z"/><path class="b" d="M456.16,618.17c7.06,.22,14.41-1.7,21.53-4.71,33.99-14.37,68.04-28.61,101.93-43.22,8.13-3.51,14.49-2.69,21.54,2.91,65.74,52.19,131.68,104.13,197.59,156.1,6.11,4.81,11.74,9.82,13.44,17.94,2.19,10.45-2.37,21.92-11.27,27.91-9.24,6.22-20.63,6.14-29.88-.81-10.65-8-21.03-16.37-31.49-24.61-46.57-36.7-93.12-73.42-139.7-110.1-1.69-1.33-3.48-2.66-5.43-3.47-2.46-1.02-4.91-.67-6.71,1.68-1.76,2.29-1.82,4.77-.11,6.9,1.65,2.05,3.67,3.87,5.74,5.51,47.45,37.46,94.94,74.88,142.41,112.32,12.12,9.56,14.14,24.83,4.92,36.67-9.56,12.27-24.62,14.3-37.05,4.58-33.06-25.86-65.99-51.88-98.96-77.84-15.57-12.26-31.13-24.54-46.7-36.8-1.95-1.53-3.9-3.29-6.67-2.69-2.4,.53-4.34,1.87-5.01,4.37-.73,2.73,.52,4.99,2.5,6.66,5.35,4.5,10.79,8.9,16.27,13.24,34.33,27.21,68.69,54.37,103,81.61,9.79,7.77,13.35,17.89,9.74,28.69-3.76,11.25-11.61,18.05-23.67,19.25-5.86,.59-11.23-1.16-15.84-4.77-19.66-15.41-39.25-30.92-58.9-46.34-2.34-1.83-3.03-4.14-3.2-6.95-1.34-22.1-20.36-36.8-42.31-32.75-1.66,.31-3.29,.8-4.76-.42-5.24-4.32-10.73-8.2-14.29-14.41-11.24-19.62-36.62-23.5-53.63-8.5-4.84,4.27-5.26,4.19-8.04-1.45-11.44-23.15-40.19-27.54-57.85-8.7-2.82,3.01-3.76,2.93-5.43-.91-6.02-13.79-16.8-21.64-31.78-21.97-14.69-.32-25.89,6.56-32.52,19.96-2.1,4.24-4.61,4.49-8.38,2.3-26.22-15.16-52.5-30.21-78.72-45.36-6.55-3.78-7.33-6.45-3.71-12.97,27.81-50.2,55.66-100.39,83.55-150.55,4.03-7.25,6.6-8.2,14.22-5.35,10.43,3.9,20.92,7.68,31.14,12.08,8.6,3.7,17.04,3.85,25.75,1.01,28.59-9.32,57.23-18.52,85.77-27.99,8.02-2.66,15.96-2.86,24.09-1.23,1.63,.33,3.39,.61,3.9,2.57,.57,2.2-.94,3.28-2.47,4.43-25.18,18.88-50.13,38.14-76.54,55.25-22.43,14.52-21.92,43.17-2.19,58.56,9.87,7.69,20.68,12.63,34.19,12.39Z"/><path class="b" d="M630.84,454.96c3.54-.42,6.58,.94,9.58,2.41,37.52,18.26,75.11,36.39,112.52,54.88,8.55,4.22,16.43,4.9,25.26,.98,10.32-4.58,21.02-8.31,31.6-12.27,7.17-2.68,9.89-1.71,13.55,4.88,27.8,50.02,55.57,100.05,83.3,150.11,4.29,7.74,3.63,10.28-3.47,15.49-24.31,17.81-48.62,35.61-72.97,53.37-7.87,5.75-10.6,5.66-18.1-.31-69.69-55.49-139.41-110.95-209-166.56-5.84-4.67-11.36-5.17-17.99-2.34-36.68,15.66-73.45,31.14-110.15,46.77-16.8,7.16-32.43,5.9-46.67-6.05-13.98-11.74-13.33-28.81,1.64-39.15,28.91-19.97,57.29-40.66,85.15-62.06,9.19-7.06,19.97-10.41,30.72-13.89,25.59-8.3,51.21-16.54,76.81-24.81,2.69-.87,5.36-1.85,8.22-1.45Z"/><path class="b" d="M1076.95,588.89c.19,5.28-2.97,8.54-7.54,11.02-25.14,13.64-50.26,27.34-75.37,41.04-14.02,7.64-28,15.36-42.04,22.96-9.58,5.18-13.86,3.92-19.02-5.54-29.61-54.32-59.2-108.66-88.78-163-5.56-10.21-4.32-14.61,5.89-20.2,38.37-21,76.76-41.97,115.19-62.87,10.84-5.89,15.28-4.38,21.21,6.56,29.19,53.8,58.4,107.58,87.59,161.38,1.42,2.62,3.08,5.18,2.88,8.66Z"/><path class="b" d="M300.77,485.86c-.35,3.55-1.89,6.66-3.57,9.75-20.51,37.7-41.01,75.41-61.51,113.12-8.82,16.22-17.62,32.46-26.46,48.67-5.57,10.21-9.61,11.49-19.64,6.03-38.73-21.06-77.44-42.16-116.14-63.29-10.48-5.72-11.52-9.83-5.69-20.51,29.34-53.72,58.67-107.46,88-161.19,.56-1.02,1.06-2.08,1.68-3.06,4.25-6.82,8.35-8.2,15.51-4.52,9.91,5.09,19.65,10.53,29.44,15.85,29.81,16.21,59.63,32.43,89.42,48.69,4.27,2.33,8.58,4.75,8.95,10.46Z"/><path class="b" d="M538.26,757.7c20.76,.03,33.01,16.28,27.91,33.48-5.67,19.12-12.37,37.89-19.36,56.56-4.88,13.03-18.62,19.55-32.08,15.37-13-4.04-21.85-18.3-17.91-31.01,6.15-19.81,12.93-39.46,20.24-58.88,3.95-10.48,12.81-15.26,21.2-15.53Z"/><path class="b" d="M483.85,725.87c18-.04,31.22,17.06,25.78,34.24-5.86,18.53-12.36,36.86-19.02,55.12-4.53,12.41-16.04,19.17-28.25,17.49-12.29-1.69-22.02-12.34-23.09-25.29-.27-3.22,.55-6.27,1.58-9.28,6.13-17.92,12.15-35.88,18.44-53.74,4.16-11.81,13.34-18.52,24.56-18.55Z"/><path class="b" d="M410.36,798.79c-17.77,.08-30.66-16.67-25.56-33.85,3.54-11.91,7.66-23.67,12.02-35.31,4.15-11.1,15.87-17.87,26.94-16.28,13.06,1.87,21.88,10.76,23.57,23.36,.51,3.75,.07,7.17-1.09,10.72-3.88,11.82-7.49,23.73-12.21,35.26-4.09,9.99-13.15,16.06-23.67,16.11Z"/><path class="b" d="M352.95,766.86c-17.18-.15-29.73-16.59-25.3-33.41,1.35-5.11,3.15-10.14,5.16-15.04,5.04-12.24,17.06-18.32,29.93-15.75,10.71,2.13,21.86,11.58,20.61,26.77-1.13,13.69-4.69,27.88-19.34,34.94-3.49,1.68-7.13,2.71-11.05,2.48Z"/><path class="b" d="M585.07,864.95c-3.17-.87-6.53,1.16-10.02,.72-5.73-.72-10.06-4.12-14.26-7.73q-6.1-5.23-3.45-12.77c4.65-13.33,9.29-26.67,13.87-40.03,1.05-3.06,2.21-4.85,5.52-2.09,7.42,6.18,15.18,11.97,22.39,18.38,11.04,9.81,11.02,28.2,.31,38.33-4.44,4.2-7.72,5.42-14.36,5.18Z"/></svg>