<?xml version="1.0" encoding="UTF-8"?><svg id="a" xmlns="http://www.w3.org/2000/svg" viewBox="0 0 334.82 334.99"><defs><style>.b{fill:#f4f4f5;}.c{fill:#cf7976;}</style></defs><path class="c" d="M0,182.89v-29.98c1.54-.82,.96-2.35,1.11-3.57C10.23,74.81,62.33,18.25,135.51,3.35c6.77-1.38,13.76-1.3,20.41-3.35h2c6.66,.93,13.33,1.05,19.99,0h1c.72,1.31,2.02,.9,3.11,.99,73.42,6.11,134.12,59.72,148.95,131.61,1.39,6.75,2.57,13.54,3.85,20.31v31.98c-2.48,7.21-2.7,14.86-4.47,22.23-20.29,84.33-102.49,139.28-188.46,125.86C70.59,321.85,15.04,267.44,2.69,196.79c-.81-4.64-.43-9.53-2.69-13.9ZM168.04,56.05c-3.16,0-6.32,.02-9.49,0-3.04-.02-4.66,1.29-4.58,4.5,.09,4-.04,8,.06,11.99,.18,7.07-.64,8.33-7.24,10.45-18.64,6-30.4,18.54-33.44,37.84-2.95,18.75,3.96,34.3,18.74,46.22,9.02,7.28,19.56,11.92,29.91,16.87,7.21,3.45,14.47,6.88,20.24,12.6,9.2,9.12,6.1,22.93-6.1,27.3-6.56,2.36-13.36,2.45-20.21,1.69-13.87-1.53-26.8-6.21-39.51-11.69-4.34-1.87-5.36-1.2-5.41,3.46-.08,7.49,.25,15-.12,22.48-.25,4.99,1.61,7.56,6.27,9.25,9.58,3.48,19.31,6.05,29.49,6.92,6.73,.58,7.31,1.31,7.3,7.92,0,3.16-.21,6.33-.19,9.49,.03,4.85,1.95,6.57,6.83,6.21,2.65-.19,5.29-.66,7.94-.69,12.28-.13,12.28-.09,12.51-12.55q.2-10.95,10.43-14.48c24.21-8.37,37.19-31.44,31.3-56.19-3.46-14.57-12.45-25.07-25.15-32.7-10.43-6.27-21.62-11.04-32.31-16.77-4.12-2.21-8.21-4.45-11.41-7.94-7.42-8.08-5.21-20.37,4.57-25.34,4.56-2.32,9.51-2.81,14.54-2.55,11.78,.61,22.89,3.97,33.63,8.59,3.36,1.44,5.18,.67,6.51-2.74,2.65-6.81,5.52-13.54,8.42-20.26,1.29-3,.92-4.87-2.43-6.19-9.14-3.6-18.38-6.84-28.04-8.68-10.19-1.94-10.21-1.82-10.21-12.16q0-12.66-12.86-12.85Z"/><path class="b" d="M177.9,0c-6.66,1.05-13.33,.93-19.99,0h19.99Z"/><path class="b" d="M168.04,56.05q12.86,.19,12.86,12.85c0,10.35,.02,10.22,10.21,12.16,9.66,1.84,18.9,5.07,28.04,8.68,3.34,1.32,3.72,3.19,2.43,6.19-2.9,6.71-5.77,13.44-8.42,20.26-1.33,3.41-3.15,4.18-6.51,2.74-10.75-4.62-21.85-7.98-33.63-8.59-5.03-.26-9.97,.23-14.54,2.55-9.78,4.97-11.99,17.27-4.57,25.34,3.2,3.49,7.29,5.73,11.41,7.94,10.7,5.73,21.89,10.49,32.31,16.77,12.7,7.64,21.69,18.14,25.15,32.7,5.89,24.75-7.09,47.82-31.3,56.19q-10.23,3.53-10.43,14.48c-.23,12.45-.23,12.41-12.51,12.55-2.65,.03-5.29,.5-7.94,.69-4.88,.36-6.79-1.35-6.83-6.21-.02-3.16,.18-6.32,.19-9.49,0-6.61-.57-7.34-7.3-7.92-10.18-.88-19.91-3.44-29.49-6.92-4.66-1.69-6.51-4.26-6.27-9.25,.37-7.48,.04-14.98,.12-22.48,.05-4.66,1.07-5.33,5.41-3.46,12.71,5.48,25.64,10.15,39.51,11.69,6.85,.76,13.64,.67,20.21-1.69,12.19-4.38,15.29-18.18,6.1-27.3-5.77-5.72-13.03-9.15-20.24-12.6-10.35-4.96-20.89-9.6-29.91-16.87-14.78-11.92-21.69-27.47-18.74-46.22,3.03-19.3,14.79-31.85,33.44-37.84,6.59-2.12,7.42-3.39,7.24-10.45-.1-3.99,.03-7.99-.06-11.99-.07-3.22,1.54-4.52,4.58-4.5,3.16,.02,6.32,0,9.49,0Z"/></svg>