<svg width="32" height="32" viewBox="0 0 32 32" fill="none" xmlns="http://www.w3.org/2000/svg">
<path d="M15.8911 12.4863C13.8403 12.4863 12.1997 14.127 12.1997 16.1094C12.1997 18.1602 13.8403 19.8008 15.8911 19.8008C17.8735 19.8008 19.5142 18.1602 19.5142 16.1094C19.5142 14.127 17.8735 12.4863 15.8911 12.4863ZM24.3677 9.68359C24.0259 8.72656 23.2739 7.97461 22.3169 7.63281C20.8813 7.01758 17.4634 7.1543 15.8911 7.1543C14.2505 7.1543 10.8325 7.01758 9.39697 7.63281C8.43994 7.97461 7.68799 8.72656 7.34619 9.68359C6.79932 11.1191 6.86768 14.5371 6.86768 16.1094C6.86768 17.75 6.79932 21.168 7.34619 22.6035C7.68799 23.5605 8.43994 24.3125 9.39697 24.6543C10.8325 25.2695 14.2505 25.1328 15.8911 25.1328C17.4634 25.1328 20.8813 25.2695 22.3169 24.6543C23.2739 24.3125 24.0259 23.5605 24.3677 22.6035C24.9829 21.168 24.8462 17.75 24.8462 16.1094C24.8462 14.5371 24.9829 11.1191 24.3677 9.68359ZM15.8911 21.7148C12.7466 21.7148 10.2856 19.2539 10.2856 16.1094C10.2856 13.0332 12.7466 10.5039 15.8911 10.5039C18.9673 10.5039 21.4966 13.0332 21.4966 16.1094V16.1777C21.4966 19.2539 18.9673 21.7832 15.8911 21.7832V21.7148ZM21.7017 11.5977C20.9497 11.5977 20.4028 11.0508 20.4028 10.2988C20.4028 9.54688 20.9497 9 21.7017 9C22.3853 9 23.0005 9.54688 23.0005 10.2988C23.0005 11.0508 22.3853 11.5977 21.7017 11.5977ZM27.9224 0.796875H3.85986C2.01416 0.796875 0.578613 2.30078 0.578613 4.07812V28.1406C0.578613 29.9863 2.01416 31.4219 3.85986 31.4219H27.9224C29.6997 31.4219 31.2036 29.9863 31.2036 28.1406V4.07812C31.2036 2.30078 29.6997 0.796875 27.9224 0.796875ZM26.6919 20.6211C26.6235 22.3984 26.2134 23.9707 24.9829 25.2012C23.6841 26.5 22.1118 26.9102 20.4028 26.9785C18.5571 27.1152 13.1567 27.1152 11.3794 26.9785C9.60205 26.9102 8.02979 26.5 6.79932 25.2012C5.50049 23.9707 5.09033 22.3984 5.02197 20.6211C4.88525 18.8438 4.88525 13.4434 5.02197 11.5977C5.09033 9.88867 5.50049 8.31641 6.79932 7.01758C8.02979 5.78711 9.60205 5.37695 11.3794 5.30859C13.1567 5.17188 18.5571 5.17188 20.4028 5.30859C22.1118 5.37695 23.6841 5.78711 24.9829 7.08594C26.2134 8.31641 26.6235 9.88867 26.6919 11.666C26.8286 13.4434 26.8286 18.8438 26.6919 20.6211Z" fill="#EA6B39"/>
</svg>
