<svg width="32" height="32" viewBox="0 0 32 32" fill="none" xmlns="http://www.w3.org/2000/svg">
<path d="M27.9224 0.796875H3.85986C2.01416 0.796875 0.578613 2.30078 0.578613 4.07812V28.1406C0.578613 29.9863 2.01416 31.4219 3.85986 31.4219H13.2251V21.0312H8.91846V16.1094H13.2251V12.418C13.2251 8.17969 15.7544 5.78711 19.5825 5.78711C21.4966 5.78711 23.4106 6.12891 23.4106 6.12891V10.2988H21.2915C19.1724 10.2988 18.4888 11.5977 18.4888 12.9648V16.1094H23.2056L22.4536 21.0312H18.4888V31.4219H27.9224C29.6997 31.4219 31.2036 29.9863 31.2036 28.1406V4.07812C31.2036 2.30078 29.6997 0.796875 27.9224 0.796875Z" fill="#EA6B39"/>
</svg>
