<svg width="32" height="32" viewBox="0 0 32 32" fill="none" xmlns="http://www.w3.org/2000/svg">
<path d="M27.9224 0.796875H3.85986C2.01416 0.796875 0.578613 2.30078 0.578613 4.07812V28.1406C0.578613 29.9863 2.01416 31.4219 3.85986 31.4219H27.9224C29.6997 31.4219 31.2036 29.9863 31.2036 28.1406V4.07812C31.2036 2.30078 29.6997 0.796875 27.9224 0.796875ZM24.5728 11.666C24.5728 11.8711 24.5728 12.0762 24.5728 12.2812C24.5728 18.1602 20.061 24.9961 11.7896 24.9961C9.26025 24.9961 6.93604 24.3125 4.95361 23.0137C5.29541 23.082 5.63721 23.082 5.979 23.082C8.09814 23.082 10.0122 22.3301 11.5845 21.168C9.60205 21.0996 7.96143 19.8008 7.34619 18.0234C8.09814 18.1602 8.71338 18.1602 9.39697 17.9551C7.34619 17.5449 5.84229 15.7676 5.84229 13.5801V13.5117C6.38916 13.8535 7.07275 14.0586 7.82471 14.0586C6.59424 13.2383 5.84229 11.8711 5.84229 10.3672C5.84229 9.47852 6.04736 8.72656 6.45752 8.04297C8.64502 10.7773 11.9946 12.5547 15.686 12.7598C15.0708 9.75195 17.3267 7.22266 20.061 7.22266C21.3599 7.22266 22.522 7.76953 23.3423 8.6582C24.3677 8.45312 25.3247 8.11133 26.2134 7.56445C25.8716 8.6582 25.1196 9.47852 24.231 10.0254C25.1196 9.95703 26.0083 9.68359 26.8286 9.3418C26.2134 10.2305 25.3931 11.0508 24.5728 11.666Z" fill="#EA6B39"/>
</svg>
