<svg width="21" height="16" viewBox="0 0 21 16" fill="none" xmlns="http://www.w3.org/2000/svg">
<path d="M20.4563 5.39453C19.5579 6.09766 18.425 6.95703 14.4407 9.84766C13.6594 10.4336 12.2141 11.7227 10.8469 11.7227C9.44067 11.7227 8.03442 10.4336 7.21411 9.84766C3.22974 6.95703 2.09692 6.09766 1.19849 5.39453C1.04224 5.27734 0.846924 5.39453 0.846924 5.58984V13.5586C0.846924 14.6133 1.66724 15.4336 2.72192 15.4336H18.9719C19.9875 15.4336 20.8469 14.6133 20.8469 13.5586V5.58984C20.8469 5.39453 20.6125 5.27734 20.4563 5.39453ZM10.8469 10.4336C11.7454 10.4727 13.0344 9.30078 13.6985 8.83203C18.8938 5.08203 19.2844 4.73047 20.4563 3.79297C20.6907 3.63672 20.8469 3.36328 20.8469 3.05078V2.30859C20.8469 1.29297 19.9875 0.433594 18.9719 0.433594H2.72192C1.66724 0.433594 0.846924 1.29297 0.846924 2.30859V3.05078C0.846924 3.36328 0.964111 3.63672 1.19849 3.79297C2.37036 4.73047 2.76099 5.08203 7.9563 8.83203C8.62036 9.30078 9.90942 10.4727 10.8469 10.4336Z" fill="#EA6B39"/>
</svg>
