<svg width="19" height="18" viewBox="0 0 19 18" fill="none" xmlns="http://www.w3.org/2000/svg">
<path d="M16.4719 0.183594H2.72192C1.66724 0.183594 0.846924 1.04297 0.846924 2.05859V15.8086C0.846924 16.8633 1.66724 17.6836 2.72192 17.6836H16.4719C17.4875 17.6836 18.3469 16.8633 18.3469 15.8086V2.05859C18.3469 1.04297 17.4875 0.183594 16.4719 0.183594ZM15.8079 12.2148L15.2219 14.7539C15.1829 15.0273 14.9485 15.1836 14.675 15.1836C8.42505 15.1836 3.34692 10.1445 3.34692 3.85547C3.34692 3.58203 3.54224 3.38672 3.77661 3.30859L6.31567 2.72266C6.35474 2.72266 6.3938 2.72266 6.47192 2.68359C6.7063 2.72266 6.90161 2.83984 6.97974 3.07422L8.15161 5.80859C8.19067 5.84766 8.19067 5.92578 8.22974 6.00391C8.19067 6.19922 8.11255 6.35547 7.99536 6.47266L6.51099 7.68359C7.40942 9.59766 8.93286 11.1211 10.8469 12.0195L12.0579 10.5352C12.175 10.418 12.3313 10.3398 12.5266 10.3008C12.6047 10.3398 12.6829 10.3398 12.7219 10.3789L15.4563 11.5508C15.6907 11.6289 15.8079 11.8242 15.8469 12.0586C15.8079 12.1367 15.8079 12.1758 15.8079 12.2148Z" fill="#EA6B39"/>
</svg>
