<?xml version="1.0" encoding="utf-8"?>
<!-- Generator: Adobe Illustrator 26.2.1, SVG Export Plug-In . SVG Version: 6.00 Build 0)  -->
<svg version="1.1" id="Layer_1" xmlns="http://www.w3.org/2000/svg" xmlns:xlink="http://www.w3.org/1999/xlink" x="0px" y="0px"
	 viewBox="0 0 595.28 841.89" style="enable-background:new 0 0 595.28 841.89;" xml:space="preserve">
<style type="text/css">
	.st0{fill:#FCD1B4;}
	.st1{fill:#FEFEFE;}
	.st2{fill:#FC5352;}
</style>
<g>
	<path class="st0" d="M53.45,424.3c0-106.51,0.04-213.02-0.07-319.54c-0.01-9.34,9.66-20.41,23.07-22.79
		c2.7-0.48,5.55-0.68,8.33-0.69c133.96-0.03,267.91-0.02,401.87-0.08c5.63,0,10.89,1.06,15.45,3.15c6.35,2.91,10.77,7.4,13.48,12.81
		c1.58,3.15,1.91,6.4,1.91,9.73c-0.02,211.94-0.02,423.87,0.01,635.81c0,5.36-2.17,10.07-5.89,14.52
		c-6.23,7.45-15.65,10.47-26.43,10.48c-133.35,0.12-266.71,0.08-400.06,0.1c-5.73,0-10.55-1.96-15.55-3.7
		c-8.86-3.09-12.9-8.97-15.7-15.65c-0.42-1-0.39-1.99-0.39-2.99c-0.02-11.33-0.03-22.65-0.03-33.98
		C53.45,615.76,53.45,520.03,53.45,424.3z M61.86,424.06c0,106.12,0,212.23,0.02,318.35c0,1.97,0.12,3.87,0.95,5.88
		c3.16,7.69,13.38,13.11,23.79,13.1c132.54-0.13,265.08-0.09,397.62-0.08c6.32,0,11.93-1.31,16.56-4.77
		c3.83-2.86,7.01-6.05,7.61-10.25c0.47-3.3,0.62-6.63,0.62-9.95c0.03-187.1,0.04-374.2,0-561.29c-0.01-23.64,0.48-47.29-0.5-70.93
		c-0.22-5.24-6.7-13.18-12.99-14.82c-4.3-1.11-8.65-2.07-13.44-2.06c-131.63,0.1-263.27,0.11-394.9,0.03
		c-13.21-0.01-25.56,8.65-25.53,19.38C61.98,212.45,61.86,318.26,61.86,424.06z"/>
	<path class="st1" d="M61.86,424.06c0-105.8,0.13-211.61-0.2-317.41c-0.03-10.73,12.32-19.39,25.53-19.38
		c131.63,0.07,263.27,0.06,394.9-0.03c4.79,0,9.15,0.95,13.44,2.06c6.3,1.63,12.77,9.57,12.99,14.82c0.99,23.64,0.5,47.29,0.5,70.93
		c0.05,187.1,0.03,374.2,0,561.29c0,3.32-0.14,6.66-0.62,9.95c-0.6,4.2-3.78,7.39-7.61,10.25c-4.63,3.46-10.24,4.77-16.56,4.77
		c-132.54-0.01-265.08-0.05-397.62,0.08c-10.41,0.01-20.63-5.41-23.79-13.1c-0.83-2.01-0.95-3.91-0.95-5.88
		C61.86,636.29,61.86,530.17,61.86,424.06z M480.7,294.91c0-1.32,0.04-2.64-0.01-3.96c-0.12-3.38,1.41-7.22-4.08-9.19
		c-0.08-0.03-0.14-0.11-0.19-0.18c-3.24-3.86-8.03-6.63-12.05-9.93c-5.34-4.38-11.13-8.43-16.64-12.68
		c-7.21-5.57-14.31-11.23-21.52-16.79c-8.63-6.66-17.34-13.25-26-19.88c-8.12-6.22-16.24-12.45-24.31-18.7
		c-1.15-0.89-1.99-0.92-3.35-0.21c-3.8,2-6.81,4.66-10.25,6.94c-9.12,6.05-17.52,12.64-25.05,19.81
		c-7.34,6.98-14.17,14.27-20.09,22.1c-4.26,5.63-8.11,11.4-11.79,17.24c-4.68,7.42-8.15,15.24-11.15,23.15
		c-2.26,5.96-3.85,12.07-5.66,18.13c-3.51,11.74-4.45,23.65-5.07,35.59c-0.47,9.04,0.03,18.08,0.94,27.13
		c0.61,6.08,1.04,12.2,2.24,18.2c1.91,9.58,4.54,19.08,7.22,28.56c2.21,7.81,5.58,15.39,8.73,23.01c2.57,6.21,5.51,12.32,8.81,18.33
		c0.67,1.22,0.88,2.68-1.59,2.73c-2.25,0.04-4.3,0.64-6.44,0.91c-12.56,1.58-25.15,1.32-37.72,0c-1.96-0.2-3.45-0.86-4.48-2.36
		c-4.07-5.89-8.4-11.68-12.49-17.57c-3.56-5.14-7.14-10.28-9.47-15.85c-1.37-3.28-2.73-6.57-3.92-9.9
		c-2.26-6.31-4.48-12.64-4.49-19.27c-0.01-5.55-0.82-11.08-0.11-16.67c0.41-3.23,1.05-6.43,1.78-9.6c1.59-6.92,2.21-13.76-0.44-20.6
		c-1.72-4.42-3.64-8.7-7.66-12.33c-3.57-3.23-6.97-6.54-11.42-9.09c-1.76-1.01-1.96-1.93-0.01-3.1c2.8-1.69,5.89-2.99,9.25-3.63
		c5.13-0.99,10.34-1.61,15.72-1.54c7.99,0.1,15.55-5.47,15.81-11.57c0.23-5.5-2.4-10.33-7.36-14.23
		c-7.64-6.02-16.07-11.41-23.46-17.65c-10.17-8.58-21.57-16.26-31.2-25.27c-8.97-8.4-19.64-15.55-29.76-23.09
		c-9.48-7.07-19.33-13.82-28.54-21.12c-8.98-7.12-18.36-13.95-27.58-20.9c-2.1-1.58-2.67-1.43-3.46,0.78
		c-2.72,7.62-5.5,15.23-8.14,22.87c-1.24,3.57-2.39,7.18-3.26,10.81c-1.18,4.99-2.5,9.97-3.19,15.04c-0.51,3.75-1.43,7.46-1.8,11.24
		c-0.4,4.07-0.99,8.13-1.33,12.22c-0.6,7.26-1.6,14.54-0.8,21.78c1.08,9.82,1.38,19.68,3.33,29.45c1.29,6.47,2.28,12.98,4.26,19.35
		c1.79,5.72,3.97,11.38,5.93,17.06c2.28,6.65,5.35,13.06,8.73,19.38c4.1,7.67,8.56,15.21,14.42,22.24
		c5.11,6.13,9.93,12.37,16.2,17.91c8.28,7.32,17.52,13.78,27.25,19.88c6.77,4.24,13.89,8.1,21.32,11.6
		c9.95,4.69,19.64,9.69,30.52,13.17c5.7,1.82,11.29,3.88,17.08,5.5c8.61,2.41,17.06,5.53,26.65,4.65c2.28-0.21,2.15,0.69,1.59,1.97
		c-2.65,6.04-6.97,11.44-11.35,16.74c-3.37,4.08-7.97,7.54-11.73,11.45c-8.74,9.07-19.84,16.31-30.64,23.79
		c-2.25,1.56-2.38,2.46-0.12,4.16c3.58,2.69,7.18,5.35,10.71,8.07c7.95,6.11,15.86,12.25,23.78,18.38
		c9.21,7.12,18.4,14.25,27.62,21.36c5.6,4.31,11.24,8.59,16.87,12.88c0.64,0.49,1.38,1.19,2.28,0.5c3.33-2.53,6.79-5,9.78-7.75
		c3.65-3.35,6.88-6.97,9.99-10.65c4.63-5.48,8.74-11.24,11.65-17.33c4.55-9.48,7.41-19.38,8.49-29.47
		c0.91-8.49-0.14-16.99-1.81-25.42c-0.9-4.55-2.11-9.05-4.09-13.4c-1.86-4.1-3.53-8.27-6.43-12.04c-1.82-2.37-0.77-4.62,2.76-4.54
		c4.67,0.1,8.84-1.35,12.98-2.32c8.99-2.11,17.87-4.68,26.29-8.03c4.68-1.86,9.14-4,13.67-6.06c10.23-4.65,19.9-9.89,28.93-15.75
		c8.32-5.4,15.58-11.7,23.08-17.77c7.35-5.94,13.43-12.72,19.05-19.61c4.57-5.61,9.15-11.34,12.41-17.56
		c3.23-6.17,7.32-12.03,9.98-18.45c2.49-6.01,5.05-11.98,7.27-18.06c2.48-6.78,4.16-13.66,5.48-20.56
		C479.57,311.26,481.48,303.15,480.7,294.91z M316.44,689.44c-53.4,0-106.79,0-160.19,0.01c-3.01,0-6.02,0.14-9.04,0.19
		c-3.22,0.05-4.83,1.77-5.88,3.7c-0.67,1.23-0.65,2.73-0.67,4.12c-0.08,4.73-0.03,9.46-0.04,14.19c-0.02,5.75,2.42,7.66,9.93,7.68
		c8.65,0.03,17.3,0.05,25.94-0.01c2-0.01,2.99,0.34,2.86,2.05c-0.14,2.01-0.02,4.03,0,6.05c0.01,1.06-0.23,1.65-2.02,1.64
		c-13.67-0.08-27.35-0.1-41.02-0.02c-2.66,0.02-3.41-0.61-3.37-2.63c0.16-6.67,0.07-13.34,0.07-20.01c0-4.89-0.07-9.77,0.04-14.66
		c0.04-1.73-0.71-2.35-2.96-2.22c-2.4,0.14-4.84,0.14-7.23-0.01c-2.32-0.15-3.1,0.37-3.03,2.26c0.18,5.12,0.01,10.24,0.09,15.36
		c0.02,1.45-0.47,2.07-2.51,2.04c-6.63-0.09-13.27-0.11-19.91-0.01c-2.57,0.04-3.27-0.74-3.23-2.61c0.12-4.96-0.03-9.93,0.08-14.89
		c0.03-1.61-0.61-2.23-2.74-2.14c-2.71,0.11-5.43,0.09-8.14,0.01c-1.66-0.05-2.32,0.36-2.31,1.7c0.04,15.44,0.04,30.87,0.01,46.31
		c0,1.29,0.52,1.83,2.24,1.78c2.61-0.07,5.23-0.1,7.84,0c2.28,0.08,3.19-0.43,3.12-2.36c-0.18-5.19-0.01-10.39-0.1-15.59
		c-0.02-1.49,0.61-2.06,2.59-2.04c6.84,0.07,13.68,0.08,20.51,0c2-0.02,2.58,0.51,2.55,2c-0.1,5.12,0.13,10.24-0.11,15.36
		c-0.1,2.25,0.95,2.67,3.58,2.66c18.9-0.11,37.81-0.11,56.71-0.16c1.71,0,3.43,0.06,5.12-0.09c4.98-0.43,6.94-1.99,7.02-5.85
		c0.12-5.97,0.13-11.95,0.03-17.92c-0.07-4.24-2.72-6.15-8.33-6.19c-6.94-0.05-13.88,0.03-20.81-0.04
		c-3.07-0.03-7.14,1.05-8.95-0.51c-1.78-1.51-0.39-4.59-0.52-6.98c-0.01-0.15,0.02-0.31,0-0.47c-0.19-1.24,0.59-1.61,2.11-1.6
		c3.91,0.04,7.83,0,11.75,0c97.04,0,194.08,0,291.12,0c5.73,0,11.46-0.02,17.19,0.06c1.83,0.03,2.98-0.41,3.86-1.69
		c1.26-1.85,2.75-3.6,4.18-5.38c0.72-0.89,2.28-1.81,1.58-2.77c-0.58-0.79-2.42-0.33-3.7-0.33
		C426.65,689.43,371.54,689.43,316.44,689.44z M231.99,715.22c2.02-0.48,6.81-0.71,7.35-0.37c1.51,0.97-0.21,2.2,0.4,3.26
		c0.04,0.07,0.08,0.14,0.1,0.22c0.23,0.89,0.17,2,1.93,1.93c1.94-0.08,1.7-1.24,1.71-2.24c0.01-1.7-0.05-3.41,0.05-5.11
		c0.07-1.23,0.8-2.01,2.66-1.93c1.88,0.08,1.59,1.08,1.65,1.99c0.13,1.85-0.36,3.72,0.31,5.55c0.3,0.83,0.17,2.02,2.05,1.75
		c1.67-0.24,1.08-1.29,1.16-2.06c0.22-2.08-0.35-4.19,0.33-6.24c0.21-0.63,0.51-1.63,1.44-1.59c1.18,0.04,1.26,1.06,1.28,1.82
		c0.05,1.94,0.01,3.87,0.03,5.81c0.01,0.99-0.24,2.17,1.71,2.24c1.73,0.06,1.63-0.97,1.88-1.92c0.71-2.65-0.88-5.15-0.67-7.78
		c0.18-2.22-1.29-2.73-4.25-2.3c-3.3,0.48-6.92,0.79-9.99-0.02c-2.83-0.75-2.75,0.51-3.01,1.58c-0.28,1.17-0.06,2.4-0.06,3.73
		c-2.06-0.58-1.99-1.67-2-2.77c0-0.75,0.46-1.82-0.44-2.19c-1.97-0.8-4.24-1.1-6.4-0.57c-1.96,0.48-2.54,1.9-2.65,3.34
		c-0.12,1.62-0.05,3.25-0.04,4.88c0.02,3.44,3.28,5.2,7.5,3.98c2.27-0.65,2.42-2.24,1.92-3.69c-0.45-1.3-1.71-0.8-2.86-0.33
		C233.64,716.77,233.21,715.59,231.99,715.22z M241.05,736.88c0.54,0.77,0.79,1.25,1.18,1.65c1.34,1.4,4.41,1.89,6.2,0.94
		c2.09-1.12,2.14-2.67,1.21-4.32c-0.69-1.22-1.79-2.2-3.04-3.11c-0.71-0.52-1.82-1.16-1.06-1.93c0.88-0.9,1.48,0.2,2.11,0.54
		c0.64,0.34,1.35,0.52,1.95,0.18c0.9-0.52,0.19-1.12-0.14-1.65c-0.87-1.37-2.58-1.76-4.28-1.75c-1.56,0.01-2.9,0.72-3.47,1.93
		c-0.63,1.34-0.24,2.64,1.11,3.57c1.14,0.79,2.07,1.66,2.84,2.66c0.29,0.38,1,0.75,0.55,1.2c-0.49,0.5-1.31,0.42-1.88,0.04
		c-1.67-1.14-4.16-0.22-5.84-1.47c-0.47-0.35-1.38-0.01-1.54,0.68c-0.2,0.86-0.9,1.42-1.84,0.89c-1.33-0.75-0.78-2.01-0.48-3.01
		c0.22-0.75,1.21-0.57,2.02-0.33c2.61,0.79,4.11-0.12,3.75-2.27c-0.58-3.5-3.79-4.89-7.9-3.25c-1.18,0.47-1.84,0.76-3.15,0.09
		c-1.86-0.95-3.17-0.27-3.26,1.57c-0.07,1.43-0.48,2.78-1,4.66c-1.09-1.97-1.49-3.52-1.54-5.15c-0.04-1.26-1.15-1.61-2.49-1.37
		c-1.48,0.26-0.99,1.11-0.67,1.86c1.13,2.58,1.54,5.27,2.01,7.94c0.24,1.38,0.96,2.09,2.81,2.2c1.98,0.11,1.75-0.91,2.11-1.91
		c0.84-2.32,0.89-4.73,1.6-7.06c0.16-0.51,0.11-1.21,1.08-1.16c0.96,0.05,0.86,0.73,0.87,1.26c0.01,1.63,0.11,3.26-0.03,4.88
		c-0.34,4.04,2.76,4.28,6.3,3.89C238.94,739.57,240.25,738.54,241.05,736.88z M318.32,729.8c1.05,1.41,0.73,2.2-1.25,2.82
		c-2.45,0.76-4.6,3.79-3.97,5.27c0.89,2.08,3.14,2.09,5.44,1.95c0.39-0.02,0.79,0.06,1.19,0.1c1.97,0.2,4.24-1.3,3.5-2.6
		c-1.18-2.06-0.35-4.11-0.63-6.15c-0.09-0.66-0.18-1.52,1.19-1.51c1.35,0.01,1.2,0.85,1.21,1.53c0.02,2.25-0.03,4.5,0.02,6.75
		c0.02,0.7-0.41,1.74,1.12,1.81c1.52,0.08,1.69-0.93,1.79-1.77c0.28-2.3,0.86-4.59,0.63-6.93c-0.05-0.51-0.16-1.22,0.81-1.29
		c1.24-0.09,1.1,0.71,1.11,1.3c0.02,2.25,0,4.5-0.01,6.75c0,0.97,0.03,1.98,1.76,1.98c1.72,0,1.76-0.99,1.77-1.97
		c0.01-2.56-0.06-5.12,0.09-7.67c0.11-1.81-1.13-2.88-3.44-2.62c-0.79,0.09-1.57,0.27-2.35,0.27c-3.38-0.03-6.84,1.24-10.17-0.38
		c-0.42-0.2-1.32,0.22-2.01,0.29c-2,0.2-2.14,1.49-2.43,2.58c-0.19,0.72,0.6,1.04,1.49,1.18
		C316.96,731.74,317.77,731.04,318.32,729.8z M269.97,709.73c1.08,0.97,0.71,1.93,0.8,2.81c0.19,1.92-0.28,3.85,0.4,5.77
		c0.72,2.03,2.55,2.19,4.68,1.92c1.04-0.13,1.84-0.76,0.73-1.42c-1.42-0.84-0.86-1.94-1.18-2.94c-0.93-2.95,1.81-5.79,0.16-8.82
		c-0.61-1.12-0.78-2.36-2.55-2.42c-1.95-0.07-1.43,1.29-1.75,2.22c-0.4,1.19-1.66,2.74-3.1,1.83c-2.54-1.61-4.82-0.48-7.15-0.32
		c-1.93,0.14-1.05,1.59-1.15,2.49c-0.06,0.6-0.53,1.61,0.73,1.73c0.99,0.1,1.8-0.52,2.31-1.28c0.29-0.44,0.43-1.13,1.37-1.05
		c0.53,0.05,0.82,0.42,0.93,0.82c0.19,0.66,0.04,1.24-0.71,1.65c-0.74,0.4-1.46,0.85-2.27,1.13c-3.26,1.1-2.78,3.35-2.19,5.18
		c0.61,1.88,2.95,1.33,4.83,1c0.36-0.06,0.79,0.01,1.16,0.09c2.58,0.58,3.42-0.25,3.44-2.21
		C269.48,715.27,267.96,712.58,269.97,709.73z M259.86,733.77c0,1.63-0.06,3.25,0.02,4.88c0.08,1.48,1.22,1.39,2.46,0.8
		c0.96-0.46,1.07-1.24,1.06-2.05c-0.02-1.94-0.04-3.87,0.02-5.81c0.03-0.76-0.48-1.95,1.3-1.89c1.72,0.06,1.14,1.24,1.17,1.99
		c0.07,2.09,0.04,4.18,0.02,6.27c-0.01,1.04,0.28,1.94,1.94,1.83c1.72-0.11,1.82-1.19,1.47-2.08c-0.8-2.07-0.33-4.15-0.45-6.23
		c-0.05-0.82-0.25-1.8,1.46-1.85c1.95-0.05,1.62,1.05,1.63,1.94c0.03,2.24,0,4.49,0.01,6.74c0,1.06,0.74,1.53,2.09,1.52
		c1.28-0.01,1.42-0.65,1.41-1.41c0-2.86,0.12-5.73-0.04-8.59c-0.11-1.82-1.84-2.52-3.98-2.25c-1.31,0.16-2.57,0.33-3.86,0.15
		c-6.63-0.93-7.75-0.23-7.74,4.88C259.85,732.99,259.85,733.38,259.86,733.77z M259.85,341.18c-0.01-3.9-1.84-5.35-6.74-5.33
		c-4.63,0.01-7.15,1.86-7.15,5.24c0,3,3.43,5.93,6.91,5.9C256.82,346.95,259.86,344.42,259.85,341.18z M353.4,730.85
		c0.18,2-0.22,4.01,0.51,6c0.96,2.6,2.49,3.33,6.91,2.99c2.43-0.19,3.94-1.69,4-3.92c0.03-1.25,0.18-2.95-1.67-3.05
		c-1.55-0.08-1.81,1.61-1.85,2.76c-0.04,1.09-0.58,1.51-2,1.5c-1.56-0.01-1.79-0.7-1.78-1.67c0.02-2.25-0.01-4.5-0.01-6.75
		c0-1.36-0.43-3.26,1.89-3.37c1.87-0.09,1.9,1.65,1.91,2.92c0.01,0.98,0.84,1.31,2.01,1.32c1.24,0,1.5-0.57,1.48-1.37
		c-0.02-0.54-0.03-1.09,0-1.63c0.1-1.56-0.1-3-2.54-3.41c-4.48-0.75-7.18-0.02-8.3,2.14C353.04,727.13,353.6,729.01,353.4,730.85z
		 M447.97,736.63c2.18-1.21,2.85-2.65,2.51-4.38c-0.21-1.05,0.55-1.77,1.45-2.4c0.58-0.41,0.94-0.75,0.47-1.37
		c-0.34-0.46-0.85-0.81-1.44-0.62c-1.61,0.52-3.14-0.1-4.71-0.08c-3.06,0.04-4.12,0.77-4.16,3.18c-0.02,1.3,0.09,2.6,0.29,3.91
		c0.24,1.55,0.14,3.26-0.87,4.68c-1.03,1.45-0.42,2.28,1.07,3.12c1.24,0.7,6.51,1,7.71,0.34c0.55-0.3,1.14-0.54,1.35-1.16
		C452.51,739.44,451.44,737.7,447.97,736.63z M345.48,731.13c-0.01,0-0.01,0-0.02,0c0-1.16,0-2.32,0-3.48c0-1.16,0.03-2.32,0-3.48
		c-0.03-0.92-0.63-1.46-1.88-1.41c-1.1,0.04-1.58,0.58-1.61,1.38c-0.03,0.62-0.08,1.24-0.01,1.86c0.13,1.24-0.41,1.94-2.18,1.8
		c-3.12-0.24-3.5,1.57-3.81,3.23c-0.23,1.21-0.06,2.47-0.05,3.71c0.02,4.47,1.11,5.21,6.83,5.13c2.13-0.03,2.84-0.66,2.77-2.23
		C345.41,735.47,345.48,733.3,345.48,731.13z M282.15,737.31c-1.49-2.38-1.21-3.61,1.99-3.52c0.99,0.03,1.59-0.35,2.28-0.89
		c2.68-2.1-0.62-3.18-1.44-4.5c-0.61-0.99-2.73-1.23-4.31-0.85c-1.28,0.3-2.91,0.57-3.19,1.84c-0.5,2.28-1,4.59-0.61,6.9
		c0.47,2.77,3.12,4.14,6.66,3.5c1.73-0.31,2.8-1.19,2.79-2.63c0-0.65,0.4-1.49-0.78-1.8C283.7,734.88,282.93,735.95,282.15,737.31z
		 M311.21,710.97c1.22,1.82-0.33,2.26-1.65,2.81c-2.18,0.9-3.72,4.84-2.51,6.4c0.23,0.3,0.52,0.37,0.97,0.35
		c2.3-0.1,4.6-0.17,6.9-0.24c0.91-0.03,1.77-0.23,1.37-1.06c-1.12-2.34,0.14-4.69-0.28-7.08c-0.69-3.9-0.57-4.08-5.74-3.91
		c-1.74,0.06-2.94,0.57-3.27,1.87c-0.17,0.69-0.56,1.69,0.55,2.11C309.09,712.8,310.37,712.26,311.21,710.97z M294.26,734.58
		c0,1.08-0.01,2.17,0,3.25c0.01,0.95-0.03,2.09,1.75,1.88c1.33-0.16,1.91-1.03,1.69-2.12c-0.54-2.72-1.14-5.45,0.27-8.14
		c0.32-0.62-0.49-0.73-0.85-1.05c-1.77-1.54-3.98-0.33-5.95-0.59c-1.61-0.21-2.1,0.35-2.61,1.54c-0.97,2.24,0.61,4.4-0.16,6.65
		c-0.42,1.24-1.05,3.45,1.46,3.69c2.76,0.27,2.11-2.07,2.38-3.31c0.37-1.73,0.09-3.55,0.12-5.33c0.01-0.52-0.13-1.23,0.83-1.28
		c1.22-0.07,1.05,0.74,1.07,1.33C294.3,732.26,294.27,733.42,294.26,734.58z M289.54,722.52c0.32-1.57,0.97-2.17,2.2-2.55
		c0.94-0.29,1.91-0.8,1.87-1.89c-0.08-2.56,0.06-5.12-0.07-7.67c-0.09-1.72-1.89-2.55-3.71-2.34c-2,0.22-5.29-0.64-5.22,2.46
		c0.04,1.77-0.11,3.53-0.51,5.3c-0.45,2.01,0.7,3.73,3.28,4.4C288.63,720.54,288.75,721.19,289.54,722.52z M295.48,714.48
		c0,0-0.01,0-0.01,0c0,1.32,0,2.63,0,3.95c0,0.91,0.15,1.76,1.66,1.82c1.48,0.06,1.43-0.94,1.67-1.61c0.23-0.66,0.18-1.38,0.19-2.07
		c0.03-1.55-0.05-3.1,0.06-4.65c0.05-0.74,0.26-1.75,1.52-1.71c1.26,0.04,0.93,1.04,0.95,1.68c0.05,2.25,0.02,4.49,0.03,6.74
		c0,0.84,0.27,1.61,1.59,1.63c1.55,0.03,1.34-0.92,1.35-1.66c0.04-2.32-0.13-4.66,0.09-6.97c0.29-3.03,0.12-3.3-3.59-3.4
		c-0.29-0.01-0.6-0.05-0.88-0.12c-2.94-0.71-4.48,0.08-4.61,2.41C295.42,711.85,295.48,713.16,295.48,714.48z M215.8,715.44
		c0,1.08-0.01,2.17,0,3.25c0.01,0.87,0.41,1.54,1.7,1.56c1.35,0.01,1.23-0.79,1.28-1.49c0.19-2.7-0.15-5.39,0.31-8.11
		c0.33-1.97-1.68-2.95-4.27-2.4c-0.85,0.18-1.57,0.44-2.53-0.02c-1.95-0.93-2.24,0.08-2.56,1.36c-0.73,2.93,0.07,5.82,0.04,8.73
		c-0.01,0.88-0.34,2.02,1.62,1.94c1.76-0.07,1.3-1.15,1.33-1.92c0.06-2.01,0.06-4.03,0.03-6.04c-0.01-0.99,0.72-1.84,1.73-1.89
		c1.21-0.06,1.25,1.03,1.3,1.78C215.85,713.27,215.8,714.36,215.8,715.44z M430.65,733.67c0.01,0,0.01,0,0.02,0
		c0,1.24-0.04,2.48,0.01,3.72c0.04,1.03-0.39,2.47,1.78,2.37c1.87-0.09,1.08-1.43,1.13-2.23c0.12-1.78,0.11-3.56,0.02-5.34
		c-0.05-1.06,0.52-2.19,1.58-2.22c1.43-0.04,1.37,1.33,1.39,2.16c0.03,1.84,0.37,3.7-0.41,5.53c-0.39,0.92,0.27,1.79,1.47,1.99
		c1.07,0.18,1.96-0.33,1.96-1.31c0.01-3.1,0.07-6.2-0.09-9.29c-0.06-1.11-1.04-1.72-2.73-1.54c-6.15,0.66-6.15,0.64-6.14,5.7
		C430.65,733.36,430.65,733.52,430.65,733.67z M209.77,733.44c0.01,0,0.01,0,0.02,0c0,1.63-0.02,3.25,0.01,4.88
		c0.01,0.9,0.52,1.52,1.8,1.46c1.36-0.06,1.13-0.91,1.14-1.57c0.03-2.17-0.03-4.34,0.04-6.51c0.02-0.83-0.53-2.1,1.47-2.01
		c1.73,0.08,1.52,1.21,1.54,2.13c0.03,2.17,0.03,4.34,0.03,6.51c0,0.86,0.19,1.55,1.63,1.5c1.3-0.05,1.35-0.74,1.36-1.47
		c0.03-2.08,0.19-4.15,0.47-6.23c0.46-3.46-1.04-4.47-5.3-4.09c-0.65,0.06-1.18-0.01-1.72-0.22c-2.07-0.8-2.47,0.1-2.48,1.43
		C209.77,730.65,209.77,732.05,209.77,733.44z M378.14,733.27c0,1.39,0,2.79,0,4.18c0,0.88,0.02,1.83,1.53,1.9
		c1.76,0.08,1.43-1.01,1.45-1.81c0.04-2.01,0-4.02,0.04-6.04c0.01-0.81-0.29-1.82,1.45-1.85c1.71-0.04,1.55,0.92,1.56,1.77
		c0.02,2.24,0.03,4.49,0.03,6.73c0,0.71,0.27,1.21,1.33,1.25c0.76,0.02,1.57-0.09,1.55-0.77c-0.08-3.23,0.7-6.49-0.52-9.67
		c-0.33-0.86-1.02-1.51-2.35-1.5c-6.05,0.05-6.05,0.05-6.05,4.89C378.15,732.65,378.15,732.96,378.14,733.27z M408.26,733.82
		c-0.01,0-0.02,0-0.03,0c0-1.47,0-2.94,0-4.41c0-0.8,0-1.59-1.49-1.59c-1.48,0-1.49,0.76-1.49,1.59c0.02,2.09,0.04,4.18,0.02,6.27
		c-0.01,0.94-0.08,2.14-1.55,2.19c-1.71,0.06-1.45-1.21-1.47-2.11c-0.04-2.17-0.02-4.34-0.05-6.5c-0.01-0.79-0.49-1.35-1.59-1.4
		c-1.3-0.06-1.39,0.66-1.38,1.41c0,2.01,0.02,4.03,0.01,6.04c-0.03,4.06-0.04,4.06,4.93,3.74c0.1-0.01,0.21-0.04,0.3-0.01
		c4.19,1.33,3.87-0.86,3.79-2.88C408.23,735.37,408.26,734.59,408.26,733.82z M375.72,734.06c0-1.24-0.05-2.48,0.01-3.71
		c0.1-1.83-1.73-2.46-3.38-2.77c-1.89-0.36-4.49,0.14-4.73,1.61c-0.48,2.84-1.81,5.76-0.31,8.66c1.01,1.95,3.22,2.22,5.5,1.95
		c2.02-0.24,3.08-1.27,2.91-2.95C375.63,735.92,375.71,734.99,375.72,734.06z M303.29,739.86c1.32-0.02,2.17,0.04,2.65-0.61
		c0.5-0.68,0.08-1.19-0.64-1.58c-0.65-0.35-0.99-0.81-0.85-1.38c0.59-2.39-1.48-5.09,1.39-7.23c0.17-0.13,0.11-0.68-0.09-0.81
		c-1.41-0.94-1.88-2.27-2.6-3.51c-0.52-0.88-1.86-0.82-2.16-0.27c-0.81,1.49-2.04,3.32-1.54,4.66c1.01,2.69,1.37,5.3,1.14,8.06
		C300.47,738.78,301.59,739.79,303.29,739.86z M221.2,715.7c-0.24,1.42,0.74,2.59,1.43,3.75c0.82,1.37,2.74,1.13,3.94,0.65
		c1.47-0.58,0.08-1.35-0.4-2.06c-0.82-1.2-1.27-2.33-1.01-3.89c0.43-2.63,3.31-5.49-0.32-8.06c-0.05-0.04-0.02-0.15-0.03-0.23
		c-0.07-0.7-0.49-1.22-1.45-1.23c-1.02-0.01-1.99,0.58-1.89,1.22c0.26,1.61-2.75,3.3,0.23,4.86c0.34,0.18,0.18,1.04,0.11,1.57
		C221.66,713.43,221.41,714.56,221.2,715.7z M252.68,734.39c0,1.2-0.1,2.52,0.03,3.82c0.1,0.93,0.95,1.54,2.19,1.61
		c0.96,0.06,2.09,0.25,2.75-0.53c0.69-0.83-0.16-1.42-0.71-2.05c-1.54-1.78-1.02-6.33,0.93-7.87c0.66-0.52,0.63-1.02-0.01-1.36
		c-1.28-0.67-1.83-1.5-1.78-2.7c0.04-0.82-0.79-1.2-1.84-1.16c-0.92,0.04-1.57,0.43-1.57,1.14c0,1.05-0.24,1.95-1.47,2.59
		c-0.41,0.21-0.5,0.82-0.11,1.05C253.6,730.4,252.2,732.48,252.68,734.39z M414.27,731.74c0-2.4-0.02-4.8,0.01-7.21
		c0.01-0.97-0.5-1.39-1.79-1.39c-1.32,0-1.76,0.46-1.76,1.42c0.02,4.57,0.01,9.14,0.01,13.71c0,1.04,0.66,1.56,2.04,1.56
		c1.5,0.01,1.49-0.78,1.48-1.59C414.26,736.08,414.27,733.91,414.27,731.74z M417.36,734.04c0,1.17-0.04,2.18,0.01,3.18
		c0.08,1.9,1.79,2.46,3.83,2.59c1.42,0.1,2.08-0.98,1.25-1.43c-3.26-1.8-1.8-4.32-2.07-6.57c-0.12-0.95-0.37-2.02,1.55-2.33
		c1.03-0.17,1.06-1.09,0.37-1.46c-1.32-0.71-1.52-1.77-1.96-2.77c-0.38-0.86-1.45-1.61-2.12-0.86c-1.13,1.27-2.71,3.39-2.07,4.27
		C417.52,730.54,417.21,732.33,417.36,734.04z M206.73,711.86c-0.01,0-0.01,0-0.02,0c0-2.24,0-4.48,0-6.72
		c0-0.83-0.11-1.56-1.57-1.54c-1.28,0.02-1.38,0.65-1.44,1.4c-0.06,0.69-0.33,1.37-0.34,2.05c-0.08,3.86-0.16,7.72-0.13,11.57
		c0.01,0.94,0.87,1.59,2.14,1.62c1.54,0.04,1.33-0.92,1.34-1.66C206.75,716.34,206.73,714.1,206.73,711.86z M206.74,731.18
		c0,0-0.01,0-0.01,0c0-2.16,0.04-4.33-0.02-6.49c-0.02-0.75,0.52-1.89-1.25-1.94c-1.5-0.04-1.48,0.89-1.77,1.76
		c-0.75,2.26-0.07,4.55-0.44,6.83c-0.34,2.1,0.67,4.23,0,6.4c-0.33,1.09,0.57,2.03,2.14,2.06c1.74,0.04,1.32-1.11,1.33-1.89
		C206.77,735.66,206.74,733.42,206.74,731.18z M393.22,739.43c3.38,0.09,5.16-1.97,3.7-4.29c-0.83-1.33-1.97-2.46-3.56-3.32
		c-0.58-0.32-1.6-0.75-0.97-1.44c0.53-0.58,1.25-0.06,1.8,0.26c0.73,0.42,1.48,0.53,2.14-0.04c0.72-0.62,0.07-1.2-0.34-1.67
		c-1.44-1.65-3.37-1.34-5.3-0.63c-2.13,0.77-1.87,2.12-0.94,3.3c1.03,1.3,2.43,2.42,3.7,3.6c0.79,0.73,2.39,1.38,0.93,2.45
		c-1.28,0.93-2.17-0.07-2.87-0.8c-0.59-0.62-1.22-0.83-1.97-0.3c-0.86,0.61-0.56,1.25,0.17,1.8
		C390.68,739.07,391.84,739.48,393.22,739.43z M279.04,715.45c0,1.01,0.16,2.03-0.04,3.01c-0.2,0.97-0.34,1.75,1.31,1.79
		c1.47,0.04,1.72-0.74,1.84-1.7c0.58-4.37,0.71-8.74-0.05-13.11c-0.12-0.69-0.42-1.2-1.38-1.31c-0.79-0.1-1.67,0.11-1.48,0.76
		c0.52,1.75-0.7,3.4-0.45,5.01C279.09,711.77,278.99,713.61,279.04,715.45z M321.39,711.96c-0.01,0-0.01,0-0.02,0
		c0-2.39,0-4.79,0-7.18c0-0.73-0.37-1.16-1.41-1.17c-0.97-0.01-1.54,0.29-1.55,1.06c-0.01,4.79-0.02,9.58,0.02,14.37
		c0.01,0.82,0.71,1.26,1.79,1.22c1.14-0.04,1.15-0.71,1.15-1.34C321.39,716.6,321.39,714.28,321.39,711.96z M428.17,733.92
		c-0.06,0-0.11,0-0.17,0c0-1.62,0.09-3.24-0.04-4.86c-0.06-0.69-0.64-1.36-1.81-1.2c-1.1,0.15-1.46,0.85-1.29,1.57
		c0.65,2.84,0.12,5.71,0.32,8.56c0.06,0.8-0.3,1.89,1.47,1.79c1.5-0.09,1.52-1.04,1.52-1.91
		C428.17,736.55,428.17,735.24,428.17,733.92z M427.06,723.62c-1.56,0.04-2.36,0.36-2.38,1.33c-0.02,0.84,0.73,0.96,1.59,0.97
		c0.94,0.01,1.8-0.03,1.85-1.02C428.18,724.07,427.79,723.58,427.06,723.62z"/>
	<path class="st0" d="M480.7,294.91c0.78,8.24-1.13,16.35-2.67,24.42c-1.32,6.9-3,13.79-5.48,20.56
		c-2.22,6.08-4.79,12.05-7.27,18.06c-2.65,6.41-6.74,12.27-9.98,18.45c-3.26,6.22-7.83,11.95-12.41,17.56
		c-5.62,6.89-11.7,13.67-19.05,19.61c-7.51,6.07-14.77,12.37-23.08,17.77c-9.04,5.86-18.7,11.11-28.93,15.75
		c-4.53,2.06-8.99,4.2-13.67,6.06c-8.42,3.35-17.3,5.92-26.29,8.03c-4.14,0.97-8.31,2.43-12.98,2.32c-3.53-0.08-4.58,2.17-2.76,4.54
		c2.9,3.76,4.57,7.93,6.43,12.04c1.97,4.36,3.18,8.86,4.09,13.4c1.68,8.43,2.72,16.93,1.81,25.42c-1.08,10.08-3.94,19.99-8.49,29.47
		c-2.92,6.08-7.02,11.84-11.65,17.33c-3.11,3.68-6.34,7.3-9.99,10.65c-3,2.76-6.46,5.22-9.78,7.75c-0.9,0.69-1.64-0.01-2.28-0.5
		c-5.63-4.29-11.27-8.57-16.87-12.88c-9.22-7.11-18.42-14.24-27.62-21.36c-7.93-6.13-15.84-12.27-23.78-18.38
		c-3.53-2.72-7.13-5.39-10.71-8.07c-2.25-1.69-2.13-2.6,0.12-4.16c10.8-7.48,21.89-14.72,30.64-23.79
		c3.76-3.9,8.36-7.37,11.73-11.45c4.38-5.3,8.7-10.7,11.35-16.74c0.56-1.28,0.7-2.19-1.59-1.97c-9.6,0.89-18.05-2.24-26.65-4.65
		c-5.8-1.62-11.39-3.68-17.08-5.5c-10.88-3.47-20.57-8.48-30.52-13.17c-7.43-3.5-14.55-7.36-21.32-11.6
		c-9.74-6.1-18.97-12.56-27.25-19.88c-6.27-5.54-11.08-11.78-16.2-17.91c-5.86-7.03-10.32-14.57-14.42-22.24
		c-3.38-6.32-6.44-12.73-8.73-19.38c-1.95-5.69-4.14-11.34-5.93-17.06c-1.99-6.36-2.98-12.88-4.26-19.35
		c-1.94-9.77-2.25-19.64-3.33-29.45c-0.8-7.24,0.21-14.52,0.8-21.78c0.34-4.09,0.93-8.15,1.33-12.22c0.37-3.78,1.3-7.49,1.8-11.24
		c0.69-5.06,2.01-10.04,3.19-15.04c0.86-3.64,2.02-7.24,3.26-10.81c2.64-7.64,5.43-15.25,8.14-22.87c0.79-2.2,1.36-2.36,3.46-0.78
		c9.22,6.94,18.6,13.77,27.58,20.9c9.21,7.3,19.06,14.06,28.54,21.12c10.11,7.54,20.79,14.69,29.76,23.09
		c9.63,9.01,21.03,16.68,31.2,25.27c7.39,6.24,15.82,11.63,23.46,17.65c4.96,3.91,7.59,8.74,7.36,14.23
		c-0.26,6.1-7.82,11.66-15.81,11.57c-5.38-0.06-10.59,0.55-15.72,1.54c-3.35,0.65-6.45,1.95-9.25,3.63
		c-1.95,1.17-1.75,2.09,0.01,3.1c4.46,2.55,7.85,5.86,11.42,9.09c4.02,3.64,5.94,7.91,7.66,12.33c2.66,6.84,2.03,13.68,0.44,20.6
		c-0.73,3.17-1.37,6.36-1.78,9.6c-0.7,5.59,0.1,11.11,0.11,16.67c0.02,6.63,2.23,12.96,4.49,19.27c1.19,3.32,2.54,6.61,3.92,9.9
		c2.33,5.57,5.91,10.72,9.47,15.85c4.09,5.89,8.41,11.68,12.49,17.57c1.04,1.5,2.53,2.15,4.48,2.36c12.57,1.31,25.16,1.58,37.72,0
		c2.15-0.27,4.19-0.87,6.44-0.91c2.46-0.05,2.25-1.51,1.59-2.73c-3.3-6.01-6.24-12.11-8.81-18.33c-3.15-7.61-6.53-15.19-8.73-23.01
		c-2.68-9.48-5.3-18.98-7.22-28.56c-1.2-6-1.63-12.12-2.24-18.2c-0.91-9.05-1.4-18.09-0.94-27.13c0.62-11.93,1.56-23.85,5.07-35.59
		c1.81-6.06,3.4-12.17,5.66-18.13c3-7.91,6.47-15.73,11.15-23.15c3.68-5.84,7.53-11.6,11.79-17.24c5.92-7.83,12.75-15.12,20.09-22.1
		c7.53-7.17,15.94-13.76,25.05-19.81c3.44-2.28,6.45-4.94,10.25-6.94c1.36-0.71,2.2-0.68,3.35,0.21
		c8.07,6.26,16.19,12.48,24.31,18.7c8.66,6.63,17.37,13.22,26,19.88c7.21,5.57,14.31,11.22,21.52,16.79
		c5.51,4.25,11.31,8.3,16.64,12.68c4.03,3.3,8.81,6.07,12.05,9.93c0.05,0.06,0.11,0.15,0.19,0.18c5.49,1.97,3.96,5.8,4.08,9.19
		C480.74,292.27,480.7,293.59,480.7,294.91z M151.2,407.55c0.11,0.07,0.23,0.15,0.34,0.22c-0.1-0.09-0.2-0.17-0.29-0.26
		c0.08-0.41-0.05-0.75-0.56-0.96c-0.24-0.5-0.41-1.04-0.73-1.51c-5.25-7.7-7.94-16.01-9.61-24.53c-2.07-10.54-1.88-21.15-0.99-31.74
		c0.27-3.25,0.51-6.58,1.8-9.99c0.63,0.41,1.07,0.61,1.35,0.9c4.08,4.15,9.37,7.19,15.16,9.73c4.43,1.95,8.98,3.72,13.4,5.68
		c5.54,2.46,8.31,6.33,9.12,11.13c1.89,11.19,2.62,22.47,5.88,33.54c2.86,9.7,7.33,18.86,13.94,27.32
		c7.43,9.52,18.46,16.16,30.99,21.36c2.31,0.96,4.68,1.95,7.64,2.18c-2.87-4.75-5.79-9.24-8.32-13.86
		c-7.23-13.15-11.34-26.85-12.09-41.16c-0.51-9.74,1.58-19.27,3.09-28.87c1.48-9.43-2.69-17.48-11.12-24.25
		c-4.64-3.72-10.29-6.41-16.23-8.72c-1.46-0.57-1.91-1.11-0.96-2.32c5.97-7.58,14.28-12.81,25.33-15.43
		c5.82-1.38,11.8-1.71,17.82-1.97c3.95-0.17,5.4-1.63,4.55-4.56c-0.93-3.17-3.43-5.57-6.53-7.6c-5.67-3.72-10.91-7.78-16.21-11.78
		c-6.45-4.87-12.7-9.9-18.93-14.93c-1.52-1.23-2.41-1-3.37,0.27c-1.66,2.2-3.37,4.38-4.95,6.62c-9.62,13.7-17.24,27.81-15.41,43.91
		c0.06,0.48,0.41,1.15-0.48,1.43c-0.77,0.24-1.28-0.22-1.85-0.54c-10.14-5.68-18.84-12.44-25.9-20.45c-1.18-1.33-1.4-2.7-1.16-4.19
		c0.33-1.99,0.69-3.98,1.08-5.96c1.11-5.65,1.82-11.38,3.44-16.94c2.98-10.23,8.57-19.76,14.5-29.15c0.83-1.32,0.73-2.1-0.77-3.17
		c-8.7-6.17-17.4-12.35-25.84-18.73c-9.04-6.82-18.46-13.33-27.17-20.42c-2.08-1.7-2.48-1.53-3.18,0.75
		c-0.98,3.16-1.93,6.32-2.92,9.48c-5.03,15.99-7.83,32.24-8.63,48.66c-0.62,12.78-0.31,25.55,1.56,38.29
		c2.17,14.72,5.78,29.19,11.44,43.36c7.61,19.08,18.16,37.02,34.27,52.82c2.02,1.98,3.66,4.25,6.69,5.51
		C150.45,407.12,150.62,407.46,151.2,407.55z M296.12,362.86c0.35,3.77,0.79,7.55,1.03,11.32c0.57,9.21,2.2,18.35,4.07,27.43
		c2.08,10.07,4.72,20.09,8.66,29.86c2.82,7.02,6.01,13.92,10.09,20.58c0.86,1.39,1.73,1.66,3.72,1.27
		c10.46-2.08,20.22-5.5,29.86-9.13c15.05-5.66,28.85-12.71,41.19-21.55c11.21-8.03,21.51-16.58,30.29-26.25
		c7.36-8.11,14.07-16.5,19.69-25.42c3.73-5.92,7.3-11.9,10.42-18.03c1.05-2.07,0.83-3.47-2.34-4.39
		c-6.76-1.96-13.16-4.57-19.58-7.11c-10.97-4.35-21.77-8.92-31.99-14.3c-11.71-6.15-23.35-12.32-33.52-20
		c-2-1.51-2.19-2.8-0.57-4.43c0.49-0.49,0.85-1.05,1.31-1.56c4.97-5.64,10.18-11.11,17.09-15.48c2.39-1.51,4.49-1.8,7.54-0.67
		c12.85,4.75,26.09,8.8,39.31,12.91c7.8,2.42,15.78,4.51,23.34,7.39c0.91,0.35,1.71,0.69,1.94,1.61c1.16,4.64,2.27,9.28,2.5,14.01
		c0.26,5.42,0.45,10.84,0.31,16.3c0.9-1.33,1.6-2.68,2.08-4.07c2.44-7.02,4.33-14.14,5.45-21.36c1.08-6.91,2.09-13.84,1.92-20.83
		c-0.02-0.91-0.33-1.62-1.19-2.27c-4.19-3.21-8.4-6.41-12.59-9.62c-16.03-12.27-32.27-24.38-48.39-36.57
		c-10.82-8.19-21.59-16.43-32.36-24.66c-1.52-1.16-2.65-1.58-4.66-0.18c-7.32,5.08-14.36,10.31-20.7,16.18
		c-15.65,14.48-27.46,30.63-36.53,48.06c-9.03,17.34-15.09,35.22-17.35,53.85c-0.59,4.89-0.62,4.89,5.51,6.64
		c0.56,0.16,1.12,0.33,1.67,0.52c11.16,3.86,22.83,6.72,34.12,10.34c9.68,3.1,19.9,5.24,30,7.49c2.78,0.62,3,1.66,2.67,3.31
		c-1.21,6.05-2.84,12.03-5.93,17.7c-4.47,8.22-11.22,15.13-20.2,20.75c-1.16,0.73-2.01,0.6-3.24,0.19
		c-2.74-0.91-4.75-2.56-7.11-3.85c-11.53-6.34-20.65-14.35-27.99-23.63C302.42,371.13,299.54,366.91,296.12,362.86z"/>
	<path class="st2" d="M316.44,689.43c55.11,0,110.21,0,165.32,0.01c1.28,0,3.12-0.46,3.7,0.33c0.7,0.96-0.86,1.87-1.58,2.77
		c-1.44,1.77-2.92,3.53-4.18,5.38c-0.87,1.28-2.02,1.72-3.86,1.69c-5.73-0.08-11.46-0.06-17.19-0.06c-97.04,0-194.08,0-291.12,0
		c-3.92,0-7.83,0.05-11.75,0c-1.52-0.02-2.3,0.36-2.11,1.6c0.02,0.15-0.01,0.31,0,0.47c0.13,2.39-1.26,5.47,0.52,6.98
		c1.82,1.55,5.88,0.47,8.95,0.51c6.94,0.07,13.88-0.01,20.81,0.04c5.61,0.04,8.25,1.95,8.33,6.19c0.11,5.97,0.1,11.95-0.03,17.92
		c-0.08,3.86-2.04,5.43-7.02,5.85c-1.69,0.14-3.41,0.08-5.12,0.09c-18.9,0.04-37.81,0.05-56.71,0.16c-2.63,0.02-3.69-0.41-3.58-2.66
		c0.24-5.11,0.01-10.24,0.11-15.36c0.03-1.5-0.55-2.03-2.55-2c-6.84,0.08-13.68,0.07-20.51,0c-1.99-0.02-2.62,0.54-2.59,2.04
		c0.08,5.2-0.09,10.4,0.1,15.59c0.07,1.93-0.85,2.45-3.12,2.36c-2.61-0.1-5.23-0.07-7.84,0c-1.72,0.05-2.24-0.49-2.24-1.78
		c0.04-15.44,0.04-30.87-0.01-46.31c0-1.34,0.65-1.75,2.31-1.7c2.71,0.08,5.44,0.11,8.14-0.01c2.13-0.09,2.77,0.53,2.74,2.14
		c-0.11,4.96,0.04,9.93-0.08,14.89c-0.05,1.86,0.66,2.64,3.23,2.61c6.63-0.1,13.27-0.08,19.91,0.01c2.05,0.03,2.54-0.59,2.51-2.04
		c-0.08-5.12,0.09-10.24-0.09-15.36c-0.07-1.89,0.71-2.41,3.03-2.26c2.4,0.16,4.83,0.15,7.23,0.01c2.25-0.13,3,0.49,2.96,2.22
		c-0.11,4.89-0.04,9.77-0.04,14.66c0,6.67,0.08,13.34-0.07,20.01c-0.05,2.02,0.7,2.65,3.37,2.63c13.67-0.09,27.35-0.06,41.02,0.02
		c1.79,0.01,2.03-0.59,2.02-1.64c-0.02-2.02-0.14-4.04,0-6.05c0.12-1.71-0.87-2.07-2.86-2.05c-8.65,0.06-17.3,0.03-25.94,0.01
		c-7.51-0.02-9.95-1.94-9.93-7.68c0.01-4.73-0.04-9.46,0.04-14.19c0.02-1.38,0.01-2.89,0.67-4.12c1.04-1.93,2.66-3.65,5.88-3.7
		c3.01-0.05,6.02-0.19,9.04-0.19C209.64,689.43,263.04,689.44,316.44,689.43z"/>
	<path class="st0" d="M231.99,715.22c1.22,0.37,1.65,1.55,3.08,0.96c1.14-0.47,2.41-0.97,2.86,0.33c0.5,1.45,0.35,3.03-1.92,3.69
		c-4.22,1.21-7.48-0.55-7.5-3.98c-0.01-1.63-0.08-3.26,0.04-4.88c0.11-1.44,0.68-2.86,2.65-3.34c2.17-0.53,4.44-0.24,6.4,0.57
		c0.91,0.37,0.44,1.44,0.44,2.19c0.01,1.1-0.07,2.19,2,2.77c0-1.32-0.22-2.56,0.06-3.73c0.26-1.07,0.18-2.33,3.01-1.58
		c3.07,0.81,6.69,0.5,9.99,0.02c2.97-0.43,4.43,0.08,4.25,2.3c-0.21,2.63,1.39,5.13,0.67,7.78c-0.25,0.94-0.15,1.97-1.88,1.92
		c-1.95-0.06-1.7-1.25-1.71-2.24c-0.02-1.94,0.03-3.87-0.03-5.81c-0.02-0.76-0.1-1.77-1.28-1.82c-0.92-0.03-1.23,0.96-1.44,1.59
		c-0.69,2.05-0.11,4.16-0.33,6.24c-0.08,0.76,0.51,1.82-1.16,2.06c-1.88,0.27-1.75-0.92-2.05-1.75c-0.67-1.83-0.18-3.7-0.31-5.55
		c-0.06-0.91,0.23-1.91-1.65-1.99c-1.86-0.08-2.59,0.7-2.66,1.93c-0.1,1.7-0.03,3.41-0.05,5.11c-0.01,1,0.23,2.16-1.71,2.24
		c-1.76,0.07-1.7-1.04-1.93-1.93c-0.02-0.08-0.06-0.15-0.1-0.22c-0.61-1.05,1.12-2.29-0.4-3.26
		C238.81,714.51,234.01,714.74,231.99,715.22z"/>
	<path class="st0" d="M241.05,736.88c-0.81,1.66-2.12,2.69-3.9,2.89c-3.55,0.39-6.64,0.15-6.3-3.89c0.14-1.62,0.04-3.26,0.03-4.88
		c0-0.53,0.09-1.21-0.87-1.26c-0.97-0.05-0.92,0.65-1.08,1.16c-0.72,2.33-0.77,4.73-1.6,7.06c-0.36,1-0.12,2.02-2.11,1.91
		c-1.85-0.11-2.56-0.81-2.81-2.2c-0.47-2.67-0.89-5.36-2.01-7.94c-0.33-0.75-0.82-1.6,0.67-1.86c1.34-0.23,2.45,0.11,2.49,1.37
		c0.05,1.63,0.45,3.18,1.54,5.15c0.53-1.87,0.93-3.22,1-4.66c0.09-1.83,1.4-2.52,3.26-1.57c1.31,0.67,1.96,0.39,3.15-0.09
		c4.11-1.64,7.33-0.25,7.9,3.25c0.35,2.15-1.14,3.06-3.75,2.27c-0.81-0.25-1.79-0.43-2.02,0.33c-0.29,0.99-0.85,2.25,0.48,3.01
		c0.94,0.53,1.64-0.03,1.84-0.89c0.16-0.69,1.07-1.03,1.54-0.68c1.67,1.26,4.17,0.34,5.84,1.47c0.56,0.38,1.39,0.46,1.88-0.04
		c0.45-0.46-0.26-0.82-0.55-1.2c-0.77-1-1.69-1.87-2.84-2.66c-1.35-0.93-1.74-2.24-1.11-3.57c0.56-1.2,1.9-1.92,3.47-1.93
		c1.7-0.01,3.41,0.38,4.28,1.75c0.33,0.53,1.04,1.13,0.14,1.65c-0.6,0.35-1.31,0.16-1.95-0.18c-0.64-0.34-1.24-1.43-2.11-0.54
		c-0.76,0.77,0.35,1.42,1.06,1.93c1.25,0.91,2.35,1.89,3.04,3.11c0.93,1.65,0.88,3.2-1.21,4.32c-1.79,0.96-4.86,0.47-6.2-0.94
		C241.85,738.13,241.59,737.64,241.05,736.88z M236.9,731.08c-0.02-0.69,0.02-1.43-1.3-1.4c-1.12,0.02-1.15,0.66-1.14,1.29
		c0.02,0.69-0.03,1.45,1.29,1.42C236.86,732.35,236.86,731.7,236.9,731.08z"/>
	<path class="st0" d="M318.32,729.8c-0.55,1.24-1.36,1.94-3.11,1.67c-0.89-0.14-1.68-0.46-1.49-1.18c0.29-1.09,0.42-2.38,2.43-2.58
		c0.69-0.07,1.59-0.5,2.01-0.29c3.33,1.62,6.78,0.35,10.17,0.38c0.78,0.01,1.57-0.18,2.35-0.27c2.31-0.25,3.55,0.81,3.44,2.62
		c-0.16,2.55-0.08,5.11-0.09,7.67c-0.01,0.98-0.05,1.97-1.77,1.97c-1.73,0-1.76-1.01-1.76-1.98c0.01-2.25,0.03-4.5,0.01-6.75
		c-0.01-0.59,0.13-1.39-1.11-1.3c-0.97,0.07-0.86,0.79-0.81,1.29c0.23,2.34-0.35,4.62-0.63,6.93c-0.1,0.84-0.27,1.85-1.79,1.77
		c-1.53-0.08-1.11-1.11-1.12-1.81c-0.05-2.25,0-4.5-0.02-6.75c-0.01-0.68,0.15-1.52-1.21-1.53c-1.37-0.01-1.28,0.85-1.19,1.51
		c0.27,2.04-0.55,4.09,0.63,6.15c0.74,1.3-1.53,2.8-3.5,2.6c-0.4-0.04-0.8-0.13-1.19-0.1c-2.3,0.14-4.56,0.13-5.44-1.95
		c-0.63-1.47,1.52-4.5,3.97-5.27C319.05,732,319.37,731.21,318.32,729.8z"/>
	<path class="st0" d="M269.97,709.73c-2.01,2.85-0.49,5.54-0.5,8.18c-0.01,1.96-0.85,2.79-3.44,2.21c-0.37-0.08-0.8-0.16-1.16-0.09
		c-1.88,0.33-4.23,0.88-4.83-1c-0.59-1.82-1.07-4.08,2.19-5.18c0.82-0.27,1.53-0.73,2.27-1.13c0.76-0.4,0.91-0.99,0.71-1.65
		c-0.12-0.4-0.4-0.77-0.93-0.82c-0.94-0.08-1.08,0.61-1.37,1.05c-0.5,0.77-1.31,1.38-2.31,1.28c-1.26-0.13-0.79-1.14-0.73-1.73
		c0.09-0.89-0.78-2.35,1.15-2.49c2.33-0.17,4.61-1.3,7.15,0.32c1.43,0.91,2.7-0.64,3.1-1.83c0.31-0.92-0.2-2.29,1.75-2.22
		c1.77,0.06,1.95,1.3,2.55,2.42c1.64,3.02-1.09,5.87-0.16,8.82c0.32,1-0.24,2.09,1.18,2.94c1.11,0.66,0.31,1.29-0.73,1.42
		c-2.13,0.27-3.96,0.12-4.68-1.92c-0.68-1.93-0.21-3.85-0.4-5.77C270.68,711.66,271.05,710.7,269.97,709.73z"/>
	<path class="st0" d="M259.85,733.77c0-0.39,0-0.77,0-1.16c-0.01-5.11,1.11-5.81,7.74-4.88c1.29,0.18,2.55,0.02,3.86-0.15
		c2.14-0.27,3.87,0.43,3.98,2.25c0.17,2.86,0.04,5.73,0.04,8.59c0,0.76-0.14,1.4-1.41,1.41c-1.35,0.01-2.08-0.46-2.09-1.52
		c-0.01-2.25,0.02-4.49-0.01-6.74c-0.01-0.89,0.31-1.99-1.63-1.94c-1.71,0.04-1.51,1.02-1.46,1.85c0.12,2.07-0.35,4.16,0.45,6.23
		c0.35,0.9,0.25,1.97-1.47,2.08c-1.67,0.11-1.95-0.79-1.94-1.83c0.01-2.09,0.05-4.18-0.02-6.27c-0.03-0.75,0.55-1.93-1.17-1.99
		c-1.78-0.06-1.27,1.13-1.3,1.89c-0.07,1.93-0.05,3.87-0.02,5.81c0.01,0.81-0.09,1.59-1.06,2.05c-1.24,0.59-2.39,0.68-2.46-0.8
		C259.79,737.02,259.86,735.39,259.85,733.77z"/>
	<path class="st0" d="M259.85,341.18c0.01,3.24-3.03,5.77-6.98,5.8c-3.48,0.03-6.91-2.9-6.91-5.9c0-3.38,2.52-5.23,7.15-5.24
		C258.01,335.84,259.84,337.28,259.85,341.18z"/>
	<path class="st0" d="M353.39,730.85c0.2-1.84-0.36-3.72,0.58-5.52c1.12-2.16,3.81-2.89,8.3-2.14c2.44,0.41,2.64,1.85,2.54,3.41
		c-0.03,0.54-0.02,1.09,0,1.63c0.03,0.8-0.24,1.37-1.48,1.37c-1.17,0-2-0.34-2.01-1.32c-0.01-1.27-0.04-3-1.91-2.92
		c-2.33,0.11-1.89,2.01-1.89,3.37c-0.01,2.25,0.03,4.5,0.01,6.75c-0.01,0.97,0.22,1.65,1.78,1.67c1.41,0.01,1.96-0.41,2-1.5
		c0.04-1.15,0.3-2.84,1.85-2.76c1.85,0.1,1.7,1.79,1.67,3.05c-0.06,2.23-1.57,3.73-4,3.92c-4.42,0.34-5.95-0.39-6.91-2.99
		C353.17,734.86,353.57,732.85,353.39,730.85z"/>
	<path class="st0" d="M447.97,736.63c3.47,1.07,4.53,2.81,3.69,5.22c-0.22,0.62-0.81,0.86-1.35,1.16c-1.2,0.66-6.48,0.36-7.71-0.34
		c-1.49-0.84-2.1-1.67-1.07-3.12c1.01-1.41,1.1-3.12,0.87-4.68c-0.2-1.31-0.31-2.61-0.29-3.91c0.04-2.42,1.1-3.14,4.16-3.18
		c1.57-0.02,3.1,0.6,4.71,0.08c0.59-0.19,1.1,0.16,1.44,0.62c0.47,0.62,0.11,0.96-0.47,1.37c-0.9,0.63-1.66,1.35-1.45,2.4
		C450.82,733.97,450.15,735.42,447.97,736.63z M444.48,731.55c0.06,0.96-0.25,2.22,1.7,2.18c1.65-0.04,2.02-1.02,1.91-2.15
		c-0.09-0.89,0.25-1.91-1.63-1.98C444.5,729.53,444.42,730.46,444.48,731.55z M446.44,741.31c1.05-0.14,2.58-0.08,2.51-1.12
		c-0.07-1.03-1.48-1.21-2.77-1.24c-1.38-0.04-2.32,0.68-2.29,1.41C443.93,741.4,445.42,741.22,446.44,741.31z"/>
	<path class="st0" d="M345.48,731.13c0,2.17-0.07,4.34,0.02,6.5c0.07,1.57-0.65,2.2-2.77,2.23c-5.72,0.09-6.8-0.66-6.83-5.13
		c-0.01-1.24-0.18-2.5,0.05-3.71c0.32-1.66,0.69-3.47,3.81-3.23c1.78,0.14,2.31-0.56,2.18-1.8c-0.06-0.62-0.01-1.24,0.01-1.86
		c0.03-0.8,0.51-1.34,1.61-1.38c1.25-0.05,1.86,0.49,1.88,1.41c0.03,1.16,0,2.32,0,3.48c0,1.16,0,2.32,0,3.48
		C345.47,731.13,345.47,731.13,345.48,731.13z M341.9,733.82c0-1.23,0.02-2.23-0.01-3.22c-0.01-0.52-0.36-0.86-1.08-0.9
		c-0.86-0.05-1.31,0.29-1.33,0.94c-0.04,1-0.22,2.02,0.01,2.98c0.27,1.15-1.13,3.26,1.08,3.28
		C343.22,736.93,341.28,734.7,341.9,733.82z"/>
	<path class="st0" d="M282.15,737.31c0.79-1.36,1.55-2.43,3.39-1.94c1.17,0.31,0.77,1.16,0.78,1.8c0,1.44-1.06,2.32-2.79,2.63
		c-3.54,0.64-6.2-0.74-6.66-3.5c-0.39-2.32,0.11-4.63,0.61-6.9c0.28-1.27,1.92-1.54,3.19-1.84c1.58-0.38,3.7-0.14,4.31,0.85
		c0.82,1.33,4.13,2.4,1.44,4.5c-0.69,0.54-1.3,0.91-2.28,0.89C280.94,733.7,280.65,734.93,282.15,737.31z"/>
	<path class="st0" d="M311.21,710.97c-0.85,1.29-2.12,1.83-3.65,1.25c-1.11-0.42-0.72-1.42-0.55-2.11c0.33-1.3,1.53-1.81,3.27-1.87
		c5.16-0.17,5.05,0.01,5.74,3.91c0.42,2.39-0.84,4.74,0.28,7.08c0.4,0.83-0.46,1.04-1.37,1.06c-2.3,0.07-4.6,0.14-6.9,0.24
		c-0.46,0.02-0.74-0.05-0.97-0.35c-1.2-1.56,0.33-5.49,2.51-6.4C310.88,713.23,312.43,712.79,311.21,710.97z M310.47,716.69
		c0.16,0.52-0.35,1.47,0.71,1.5c1.29,0.03,1.78-0.87,1.72-1.8c-0.04-0.62,0.37-1.6-1.09-1.51
		C310.47,714.95,310.52,715.87,310.47,716.69z"/>
	<path class="st0" d="M294.27,734.58c0-1.16,0.03-2.32-0.01-3.48c-0.02-0.58,0.15-1.4-1.07-1.33c-0.96,0.05-0.82,0.77-0.83,1.28
		c-0.03,1.78,0.25,3.59-0.12,5.33c-0.26,1.24,0.38,3.58-2.38,3.31c-2.51-0.24-1.88-2.46-1.46-3.69c0.77-2.25-0.81-4.41,0.16-6.65
		c0.51-1.18,1.01-1.75,2.61-1.54c1.97,0.26,4.18-0.95,5.95,0.59c0.36,0.32,1.18,0.43,0.85,1.05c-1.41,2.69-0.81,5.41-0.27,8.14
		c0.21,1.08-0.36,1.96-1.69,2.12c-1.78,0.21-1.74-0.93-1.75-1.88C294.26,736.74,294.26,735.66,294.27,734.58z"/>
	<path class="st0" d="M289.54,722.52c-0.79-1.33-0.91-1.98-2.16-2.3c-2.58-0.67-3.73-2.39-3.28-4.4c0.4-1.77,0.55-3.53,0.51-5.3
		c-0.07-3.1,3.22-2.24,5.22-2.46c1.82-0.2,3.62,0.63,3.71,2.34c0.14,2.55-0.01,5.12,0.07,7.67c0.03,1.09-0.94,1.6-1.87,1.89
		C290.51,720.35,289.86,720.95,289.54,722.52z M287.61,714.27c0,1.08-0.02,2.15,0.01,3.23c0.01,0.52,0.34,0.87,1.07,0.91
		c0.53,0.03,1.17-0.09,1.17-0.51c-0.02-2.35,1-4.68,0.13-7.04c-0.19-0.53-0.59-0.77-1.28-0.73c-0.72,0.04-1.07,0.4-1.08,0.91
		C287.58,712.12,287.61,713.19,287.61,714.27z"/>
	<path class="st0" d="M295.48,714.48c0-1.32-0.06-2.64,0.01-3.95c0.13-2.34,1.68-3.12,4.61-2.41c0.28,0.07,0.58,0.11,0.88,0.12
		c3.71,0.09,3.88,0.36,3.59,3.4c-0.22,2.31-0.05,4.64-0.09,6.97c-0.01,0.75,0.2,1.7-1.35,1.66c-1.32-0.03-1.58-0.79-1.59-1.63
		c-0.01-2.25,0.02-4.49-0.03-6.74c-0.01-0.64,0.32-1.64-0.95-1.68c-1.26-0.04-1.47,0.97-1.52,1.71c-0.11,1.54-0.03,3.1-0.06,4.65
		c-0.01,0.69,0.04,1.41-0.19,2.07c-0.24,0.67-0.19,1.68-1.67,1.61c-1.51-0.07-1.66-0.91-1.66-1.82c0.01-1.32,0-2.63,0-3.95
		C295.48,714.48,295.48,714.48,295.48,714.48z"/>
	<path class="st0" d="M215.8,715.44c0-1.08,0.05-2.17-0.02-3.25c-0.05-0.75-0.09-1.84-1.3-1.78c-1.02,0.05-1.75,0.9-1.73,1.89
		c0.03,2.01,0.03,4.03-0.03,6.04c-0.02,0.77,0.44,1.85-1.33,1.92c-1.96,0.08-1.63-1.05-1.62-1.94c0.03-2.91-0.76-5.81-0.04-8.73
		c0.32-1.28,0.61-2.29,2.56-1.36c0.97,0.46,1.68,0.2,2.53,0.02c2.59-0.55,4.6,0.43,4.27,2.4c-0.46,2.71-0.12,5.41-0.31,8.11
		c-0.05,0.7,0.07,1.5-1.28,1.49c-1.29-0.01-1.69-0.68-1.7-1.56C215.79,717.61,215.8,716.53,215.8,715.44z"/>
	<path class="st0" d="M430.65,733.67c0-0.15,0-0.31,0-0.46c-0.01-5.06,0-5.04,6.14-5.7c1.68-0.18,2.67,0.42,2.73,1.54
		c0.16,3.09,0.1,6.19,0.09,9.29c0,0.98-0.9,1.48-1.96,1.31c-1.2-0.2-1.86-1.06-1.47-1.99c0.78-1.83,0.45-3.69,0.41-5.53
		c-0.02-0.83,0.04-2.2-1.39-2.16c-1.06,0.03-1.64,1.16-1.58,2.22c0.09,1.78,0.1,3.57-0.02,5.34c-0.05,0.8,0.74,2.14-1.13,2.23
		c-2.18,0.1-1.74-1.34-1.78-2.37c-0.05-1.24-0.01-2.48-0.01-3.72C430.67,733.67,430.66,733.67,430.65,733.67z"/>
	<path class="st0" d="M209.77,733.44c0-1.39,0-2.79,0-4.18c0-1.32,0.41-2.23,2.48-1.43c0.54,0.21,1.07,0.28,1.72,0.22
		c4.26-0.38,5.76,0.63,5.3,4.09c-0.28,2.08-0.44,4.15-0.47,6.23c-0.01,0.72-0.05,1.42-1.36,1.47c-1.43,0.05-1.63-0.64-1.63-1.5
		c0-2.17,0-4.34-0.03-6.51c-0.01-0.91,0.2-2.05-1.54-2.13c-2-0.09-1.45,1.18-1.47,2.01c-0.06,2.17-0.01,4.34-0.04,6.51
		c-0.01,0.66,0.22,1.51-1.14,1.57c-1.29,0.06-1.79-0.57-1.8-1.46c-0.02-1.63-0.01-3.25-0.01-4.88
		C209.78,733.44,209.78,733.44,209.77,733.44z"/>
	<path class="st0" d="M378.14,733.27c0-0.31,0-0.62,0-0.93c0-4.85,0-4.85,6.05-4.89c1.33-0.01,2.02,0.64,2.35,1.5
		c1.22,3.18,0.45,6.45,0.52,9.67c0.02,0.69-0.79,0.8-1.55,0.77c-1.06-0.03-1.32-0.54-1.33-1.25c0-2.24-0.01-4.49-0.03-6.73
		c-0.01-0.85,0.16-1.8-1.56-1.77c-1.73,0.04-1.43,1.04-1.45,1.85c-0.03,2.01,0.01,4.02-0.04,6.04c-0.02,0.8,0.31,1.9-1.45,1.81
		c-1.51-0.07-1.53-1.02-1.53-1.9C378.14,736.05,378.14,734.66,378.14,733.27z"/>
	<path class="st0" d="M408.26,733.82c0,0.77-0.03,1.55,0.01,2.32c0.08,2.02,0.4,4.21-3.79,2.88c-0.08-0.03-0.2,0-0.3,0.01
		c-4.97,0.32-4.96,0.32-4.93-3.74c0.01-2.01,0-4.03-0.01-6.04c0-0.74,0.08-1.46,1.38-1.41c1.1,0.05,1.58,0.61,1.59,1.4
		c0.03,2.17,0.02,4.34,0.05,6.5c0.02,0.9-0.24,2.17,1.47,2.11c1.46-0.05,1.54-1.25,1.55-2.19c0.02-2.09,0-4.18-0.02-6.27
		c-0.01-0.82,0.01-1.58,1.49-1.59c1.49,0,1.49,0.79,1.49,1.59c0,1.47,0,2.94,0,4.41C408.24,733.82,408.25,733.82,408.26,733.82z"/>
	<path class="st0" d="M375.71,734.06c0,0.93-0.08,1.86,0.01,2.78c0.17,1.68-0.89,2.71-2.91,2.95c-2.29,0.28-4.49,0-5.5-1.95
		c-1.5-2.89-0.17-5.82,0.31-8.66c0.25-1.47,2.85-1.97,4.73-1.61c1.64,0.31,3.47,0.94,3.38,2.77
		C375.66,731.58,375.72,732.82,375.71,734.06z M369.7,733.43C369.7,733.43,369.69,733.43,369.7,733.43c-0.01,0.85,0,1.7-0.01,2.55
		c-0.01,0.87,0.51,1.72,1.53,1.76c1.12,0.04,1.95-0.75,1.99-1.69c0.07-1.7,0-3.4,0.03-5.11c0.02-1.02-0.67-1.34-1.88-1.32
		c-1.11,0.02-1.68,0.36-1.66,1.25C369.72,731.73,369.7,732.58,369.7,733.43z"/>
	<path class="st0" d="M303.29,739.86c-1.7-0.07-2.82-1.08-2.69-2.67c0.23-2.76-0.13-5.36-1.14-8.06c-0.5-1.34,0.73-3.17,1.54-4.66
		c0.3-0.55,1.64-0.61,2.16,0.27c0.72,1.24,1.19,2.56,2.6,3.51c0.2,0.13,0.26,0.69,0.09,0.81c-2.87,2.14-0.8,4.84-1.39,7.23
		c-0.14,0.57,0.2,1.03,0.85,1.38c0.72,0.38,1.14,0.89,0.64,1.58C305.46,739.9,304.61,739.84,303.29,739.86z"/>
	<path class="st0" d="M221.2,715.7c0.21-1.14,0.46-2.28,0.61-3.42c0.07-0.53,0.23-1.39-0.11-1.57c-2.98-1.56,0.03-3.25-0.23-4.86
		c-0.1-0.64,0.87-1.23,1.89-1.22c0.95,0.01,1.38,0.53,1.45,1.23c0.01,0.08-0.03,0.19,0.03,0.23c3.63,2.57,0.75,5.42,0.32,8.06
		c-0.25,1.55,0.2,2.69,1.01,3.89c0.48,0.71,1.87,1.48,0.4,2.06c-1.21,0.48-3.13,0.71-3.94-0.65
		C221.94,718.29,220.96,717.12,221.2,715.7z"/>
	<path class="st0" d="M252.68,734.39c-0.48-1.91,0.93-3.99-1.58-5.47c-0.39-0.23-0.29-0.84,0.11-1.05c1.24-0.64,1.47-1.53,1.47-2.59
		c0-0.71,0.64-1.1,1.57-1.14c1.05-0.05,1.88,0.33,1.84,1.16c-0.05,1.21,0.5,2.03,1.78,2.7c0.65,0.34,0.68,0.84,0.01,1.36
		c-1.95,1.54-2.47,6.09-0.93,7.87c0.55,0.64,1.39,1.23,0.71,2.05c-0.65,0.79-1.78,0.59-2.75,0.53c-1.24-0.07-2.09-0.68-2.19-1.61
		C252.57,736.91,252.68,735.59,252.68,734.39z"/>
	<path class="st0" d="M414.27,731.74c0,2.17-0.01,4.34,0,6.51c0,0.81,0.02,1.59-1.48,1.59c-1.37-0.01-2.04-0.52-2.04-1.56
		c0-4.57,0.01-9.14-0.01-13.71c-0.01-0.96,0.44-1.42,1.76-1.42c1.29,0,1.8,0.42,1.79,1.39
		C414.25,726.93,414.27,729.33,414.27,731.74z"/>
	<path class="st0" d="M417.36,734.04c-0.15-1.71,0.16-3.5-1.21-5.38c-0.64-0.88,0.95-3,2.07-4.27c0.67-0.75,1.74,0,2.12,0.86
		c0.44,1,0.64,2.06,1.96,2.77c0.69,0.37,0.67,1.29-0.37,1.46c-1.92,0.31-1.67,1.38-1.55,2.33c0.27,2.24-1.19,4.76,2.07,6.57
		c0.82,0.45,0.17,1.53-1.25,1.43c-2.05-0.14-3.75-0.7-3.83-2.59C417.32,736.21,417.36,735.21,417.36,734.04z"/>
	<path class="st0" d="M206.73,711.86c0,2.24,0.01,4.48-0.01,6.72c-0.01,0.75,0.2,1.7-1.34,1.66c-1.27-0.03-2.13-0.68-2.14-1.62
		c-0.03-3.86,0.05-7.72,0.13-11.57c0.01-0.69,0.28-1.37,0.34-2.05c0.06-0.75,0.15-1.38,1.44-1.4c1.46-0.02,1.57,0.7,1.57,1.54
		c-0.01,2.24,0,4.48,0,6.72C206.72,711.86,206.73,711.86,206.73,711.86z"/>
	<path class="st0" d="M206.74,731.18c0,2.24,0.03,4.48-0.02,6.72c-0.02,0.78,0.4,1.93-1.33,1.89c-1.57-0.03-2.47-0.97-2.14-2.06
		c0.67-2.17-0.34-4.3,0-6.4c0.37-2.28-0.31-4.56,0.44-6.83c0.29-0.86,0.27-1.79,1.77-1.76c1.77,0.04,1.23,1.19,1.25,1.94
		c0.07,2.16,0.02,4.33,0.02,6.49C206.73,731.18,206.73,731.18,206.74,731.18z"/>
	<path class="st0" d="M393.22,739.43c-1.38,0.04-2.54-0.36-3.51-1.09c-0.73-0.55-1.03-1.19-0.17-1.8c0.76-0.54,1.38-0.32,1.97,0.3
		c0.7,0.73,1.59,1.74,2.87,0.8c1.46-1.06-0.14-1.72-0.93-2.45c-1.27-1.18-2.67-2.31-3.7-3.6c-0.94-1.18-1.19-2.52,0.94-3.3
		c1.94-0.7,3.86-1.01,5.3,0.63c0.41,0.47,1.06,1.04,0.34,1.67c-0.65,0.57-1.4,0.46-2.14,0.04c-0.55-0.32-1.27-0.84-1.8-0.26
		c-0.63,0.69,0.39,1.13,0.97,1.44c1.59,0.87,2.73,1.99,3.56,3.32C398.38,737.47,396.61,739.52,393.22,739.43z"/>
	<path class="st0" d="M279.04,715.45c-0.04-1.85,0.05-3.68-0.25-5.54c-0.25-1.6,0.97-3.26,0.45-5.01c-0.19-0.65,0.69-0.85,1.48-0.76
		c0.95,0.12,1.26,0.63,1.38,1.31c0.76,4.37,0.62,8.73,0.05,13.11c-0.13,0.95-0.37,1.73-1.84,1.7c-1.65-0.04-1.51-0.83-1.31-1.79
		C279.19,717.48,279.04,716.46,279.04,715.45z"/>
	<path class="st0" d="M321.39,711.96c0,2.32,0.01,4.64-0.01,6.95c0,0.63-0.02,1.3-1.15,1.34c-1.07,0.04-1.78-0.4-1.79-1.22
		c-0.04-4.79-0.03-9.58-0.02-14.37c0-0.78,0.58-1.08,1.55-1.06c1.03,0.01,1.41,0.44,1.41,1.17c-0.01,2.39,0,4.79,0,7.18
		C321.37,711.96,321.38,711.96,321.39,711.96z"/>
	<path class="st0" d="M428.17,733.92c0,1.31,0,2.63,0,3.94c0,0.88-0.02,1.83-1.52,1.91c-1.77,0.1-1.41-0.99-1.47-1.79
		c-0.2-2.85,0.34-5.71-0.32-8.56c-0.17-0.73,0.19-1.42,1.29-1.57c1.17-0.16,1.75,0.51,1.81,1.2c0.13,1.61,0.04,3.24,0.04,4.86
		C428.05,733.92,428.11,733.92,428.17,733.92z"/>
	<path class="st0" d="M427.06,723.62c0.73-0.03,1.11,0.45,1.07,1.28c-0.05,0.98-0.91,1.02-1.85,1.02c-0.86-0.01-1.61-0.13-1.59-0.97
		C424.7,723.97,425.5,723.66,427.06,723.62z"/>
	<path class="st2" d="M296.12,362.86c3.42,4.05,6.3,8.27,9.52,12.34c7.34,9.29,16.47,17.29,27.99,23.63
		c2.36,1.3,4.37,2.94,7.11,3.85c1.23,0.41,2.08,0.53,3.24-0.19c8.98-5.62,15.73-12.53,20.2-20.75c3.09-5.68,4.72-11.65,5.93-17.7
		c0.33-1.65,0.1-2.69-2.67-3.31c-10.1-2.25-20.32-4.39-30-7.49c-11.29-3.62-22.96-6.48-34.12-10.34c-0.55-0.19-1.11-0.36-1.67-0.52
		c-6.13-1.75-6.1-1.74-5.51-6.64c2.26-18.63,8.32-36.51,17.35-53.85c9.08-17.43,20.89-33.58,36.53-48.06
		c6.34-5.87,13.37-11.1,20.7-16.18c2.01-1.39,3.14-0.98,4.66,0.18c10.77,8.23,21.53,16.47,32.36,24.66
		c16.12,12.2,32.36,24.3,48.39,36.57c4.19,3.21,8.4,6.41,12.59,9.62c0.85,0.65,1.16,1.36,1.19,2.27c0.18,6.99-0.84,13.92-1.92,20.83
		c-1.13,7.21-3.01,14.33-5.45,21.36c-0.48,1.39-1.18,2.73-2.08,4.07c0.14-5.46-0.05-10.88-0.31-16.3c-0.23-4.73-1.33-9.37-2.5-14.01
		c-0.23-0.92-1.03-1.26-1.94-1.61c-7.56-2.88-15.54-4.97-23.34-7.39c-13.21-4.1-26.46-8.16-39.31-12.91
		c-3.05-1.13-5.14-0.84-7.54,0.67c-6.91,4.37-12.12,9.84-17.09,15.48c-0.45,0.51-0.82,1.07-1.31,1.56
		c-1.62,1.63-1.43,2.92,0.57,4.43c10.17,7.68,21.82,13.85,33.52,20c10.23,5.37,21.02,9.95,31.99,14.3
		c6.42,2.54,12.82,5.16,19.58,7.11c3.18,0.92,3.4,2.32,2.34,4.39c-3.12,6.13-6.69,12.11-10.42,18.03
		c-5.61,8.91-12.33,17.3-19.69,25.42c-8.77,9.68-19.08,18.23-30.29,26.25c-12.35,8.84-26.15,15.89-41.19,21.55
		c-9.63,3.62-19.4,7.04-29.86,9.13c-1.99,0.4-2.86,0.13-3.72-1.27c-4.08-6.65-7.27-13.56-10.09-20.58
		c-3.93-9.77-6.58-19.78-8.66-29.86c-1.87-9.08-3.5-18.21-4.07-27.43C296.91,370.41,296.47,366.64,296.12,362.86z"/>
	<path class="st2" d="M150.39,406.73c-3.03-1.26-4.67-3.54-6.69-5.52c-16.11-15.79-26.66-33.73-34.27-52.82
		c-5.65-14.17-9.27-28.64-11.44-43.36c-1.88-12.74-2.18-25.52-1.56-38.29c0.79-16.42,3.6-32.67,8.63-48.66
		c0.99-3.16,1.94-6.32,2.92-9.48c0.71-2.28,1.1-2.45,3.18-0.75c8.71,7.09,18.13,13.6,27.17,20.42c8.45,6.38,17.14,12.56,25.84,18.73
		c1.51,1.07,1.61,1.85,0.77,3.17c-5.93,9.39-11.52,18.92-14.5,29.15c-1.62,5.57-2.34,11.29-3.44,16.94
		c-0.39,1.98-0.75,3.97-1.08,5.96c-0.25,1.49-0.02,2.86,1.16,4.19c7.07,8.01,15.76,14.77,25.9,20.45c0.57,0.32,1.08,0.79,1.85,0.54
		c0.9-0.28,0.54-0.94,0.48-1.43c-1.83-16.09,5.79-30.21,15.41-43.91c1.57-2.24,3.28-4.42,4.95-6.62c0.95-1.26,1.85-1.49,3.37-0.27
		c6.23,5.04,12.48,10.07,18.93,14.93c5.3,4,10.54,8.07,16.21,11.78c3.1,2.03,5.6,4.43,6.53,7.6c0.86,2.93-0.6,4.4-4.55,4.56
		c-6.01,0.25-11.99,0.59-17.82,1.97c-11.06,2.62-19.36,7.85-25.33,15.43c-0.95,1.21-0.5,1.75,0.96,2.32
		c5.94,2.31,11.59,5,16.23,8.72c8.43,6.77,12.6,14.82,11.12,24.25c-1.5,9.6-3.6,19.13-3.09,28.87c0.75,14.31,4.86,28.01,12.09,41.16
		c2.54,4.61,5.46,9.1,8.32,13.86c-2.96-0.23-5.33-1.22-7.64-2.18c-12.54-5.2-23.56-11.85-30.99-21.36
		c-6.61-8.46-11.08-17.63-13.94-27.32c-3.26-11.07-4-22.36-5.88-33.54c-0.81-4.8-3.58-8.67-9.12-11.13
		c-4.42-1.96-8.97-3.74-13.4-5.68c-5.79-2.55-11.08-5.58-15.16-9.73c-0.28-0.29-0.72-0.49-1.35-0.9c-1.3,3.41-1.53,6.74-1.8,9.99
		c-0.89,10.59-1.08,21.2,0.99,31.74c1.68,8.52,4.36,16.83,9.61,24.53c0.32,0.47,0.49,1,0.73,1.51
		C150.59,406.62,150.49,406.68,150.39,406.73z"/>
	<path class="st2" d="M151.2,407.55c-0.58-0.1-0.75-0.43-0.8-0.83c0.1-0.05,0.2-0.1,0.29-0.17c0.51,0.21,0.65,0.54,0.56,0.96
		L151.2,407.55z"/>
	<path class="st2" d="M151.25,407.52c0.1,0.09,0.2,0.17,0.29,0.26c-0.11-0.07-0.23-0.15-0.34-0.22
		C151.2,407.55,151.25,407.52,151.25,407.52z"/>
	<path class="st1" d="M236.9,731.08c-0.03,0.62-0.04,1.27-1.15,1.3c-1.32,0.03-1.27-0.73-1.29-1.42c-0.01-0.63,0.02-1.26,1.14-1.29
		C236.92,729.65,236.88,730.38,236.9,731.08z"/>
	<path class="st1" d="M444.48,731.55c-0.07-1.09,0.01-2.02,1.97-1.95c1.88,0.07,1.54,1.09,1.63,1.98c0.12,1.13-0.26,2.12-1.91,2.15
		C444.24,733.78,444.54,732.52,444.48,731.55z"/>
	<path class="st1" d="M446.44,741.31c-1.02-0.09-2.51,0.09-2.55-0.96c-0.03-0.73,0.91-1.44,2.29-1.41c1.29,0.03,2.7,0.21,2.77,1.24
		C449.02,741.23,447.49,741.17,446.44,741.31z"/>
	<path class="st1" d="M341.9,733.82c-0.62,0.88,1.32,3.11-1.33,3.08c-2.21-0.02-0.81-2.13-1.08-3.28c-0.22-0.96-0.04-1.99-0.01-2.98
		c0.02-0.64,0.47-0.98,1.33-0.94c0.72,0.04,1.07,0.38,1.08,0.9C341.92,731.59,341.9,732.59,341.9,733.82z"/>
	<path class="st1" d="M310.47,716.69c0.05-0.81,0-1.74,1.34-1.82c1.45-0.09,1.05,0.89,1.09,1.51c0.06,0.93-0.43,1.84-1.72,1.8
		C310.12,718.16,310.64,717.2,310.47,716.69z"/>
	<path class="st1" d="M287.61,714.27c0-1.08-0.03-2.15,0.01-3.23c0.02-0.51,0.36-0.86,1.08-0.91c0.7-0.04,1.09,0.2,1.28,0.73
		c0.87,2.36-0.15,4.69-0.13,7.04c0,0.41-0.63,0.54-1.17,0.51c-0.73-0.04-1.05-0.4-1.07-0.91
		C287.59,716.42,287.61,715.34,287.61,714.27z"/>
	<path class="st1" d="M369.7,733.43c0-0.85,0.02-1.7,0-2.55c-0.02-0.89,0.55-1.23,1.66-1.25c1.21-0.02,1.9,0.29,1.88,1.32
		c-0.03,1.7,0.05,3.41-0.03,5.11c-0.04,0.94-0.87,1.73-1.99,1.69c-1.02-0.04-1.54-0.89-1.53-1.76
		C369.7,735.14,369.69,734.28,369.7,733.43C369.69,733.43,369.7,733.43,369.7,733.43z"/>
</g>
</svg>
