<svg width="208" height="138" viewBox="0 0 208 138" fill="none" xmlns="http://www.w3.org/2000/svg">
<path d="M27.4155 106.451C27.4679 105.554 27.5623 104.664 27.6672 103.812C28.5411 103.901 29.3993 103.972 30.2471 104.006C32.5052 104.09 34.7657 103.924 36.987 103.509C37.861 103.334 38.7087 103.13 39.5354 102.885C35.9512 100.13 33.1493 96.4864 31.4075 92.3148C29.6657 88.1432 29.0446 83.5888 29.6056 79.1032C30.0619 75.4395 31.3 71.9167 33.236 68.773C33.2203 68.7328 33.2028 68.6944 33.1871 68.6542C33.0857 68.4077 32.986 68.1595 32.8882 67.9061C32.7903 67.6526 32.7134 67.4062 32.6242 67.1527C32.4494 66.6441 32.2851 66.1162 32.1401 65.5796C31.995 65.043 31.8691 64.5187 31.7468 63.9681C31.6839 63.6901 31.6297 63.4175 31.5825 63.143C31.5353 62.8686 31.4881 62.589 31.4427 62.3076C31.3972 62.0261 31.357 61.743 31.3168 61.4546C31.2766 61.1662 31.2539 60.8883 31.2259 60.5998C31.1735 60.0283 31.1228 59.4375 31.0966 58.8519C31.0703 58.2664 31.0686 57.6739 31.0721 57.0691C30.4766 57.0551 29.8695 57.0551 29.2508 57.0691C28.6408 57.0831 28.0272 57.1215 27.4085 57.1635C27.0974 57.1879 26.7792 57.2089 26.4681 57.2439L25.5347 57.3575L24.5856 57.4903C24.2658 57.5358 23.9476 57.5882 23.6365 57.6511C23.0073 57.7717 22.3675 57.9046 21.7138 58.0514C21.0601 58.1982 20.4431 58.3783 19.7911 58.5635C19.4695 58.6562 19.1427 58.7506 18.821 58.8537L17.8632 59.1806H17.8405C14.5296 64.5519 12.4156 70.5739 11.6424 76.8361C10.9056 82.5732 11.3141 88.3995 12.8443 93.9776C14.3744 99.5557 16.9958 104.775 20.5567 109.333C22.8288 112.262 25.4595 114.895 28.3873 117.169C28.1438 116.14 27.9439 115.115 27.7878 114.094C27.4047 111.566 27.2799 109.005 27.4155 106.451ZM75.8761 98.1186C73.1218 101.704 69.4782 104.507 65.3066 106.249C61.135 107.992 56.5803 108.614 52.0941 108.054C48.4305 107.597 44.9076 106.359 41.764 104.423L41.6452 104.472C41.4005 104.574 41.1505 104.673 40.8971 104.771C40.6436 104.869 40.3989 104.946 40.1437 105.035C39.6368 105.21 39.109 105.374 38.5811 105.519C38.0532 105.664 37.5114 105.781 36.9695 105.907C36.6916 105.97 36.4172 106.024 36.1445 106.072C35.8718 106.119 35.5904 106.166 35.309 106.211C35.0276 106.257 34.7427 106.297 34.4543 106.337C34.1659 106.377 33.888 106.4 33.5996 106.428C33.028 106.481 32.4372 106.531 31.8517 106.557C31.2661 106.584 30.6753 106.585 30.0705 106.582C30.0566 107.179 30.0531 107.786 30.0601 108.403C30.074 109.013 30.1125 109.627 30.1562 110.247C30.1789 110.557 30.2016 110.875 30.2348 111.186L30.3485 112.119L30.4813 113.068C30.5285 113.388 30.5809 113.706 30.6421 114.018C30.7627 114.647 30.8956 115.287 31.0424 115.931C31.1892 116.576 31.371 117.202 31.5545 117.854C31.6489 118.176 31.7415 118.503 31.8447 118.824L32.1715 119.782L32.1803 119.805C37.55 123.12 43.5715 125.238 49.8341 126.015C55.5709 126.752 61.3968 126.343 66.9747 124.813C72.5525 123.283 77.7714 120.662 82.3294 117.101C85.2587 114.829 87.8912 112.198 90.1652 109.27C89.1392 109.51 76.1226 98.9454 75.8761 98.1186Z" fill="url(#paint0_linear_116_9289)"/>
<path d="M84.6715 59.8324L77.4614 39.8293L75.2661 43.0577C70.7381 40.7643 65.8477 39.2711 60.8109 38.6443C55.0738 37.9076 49.2476 38.3162 43.6695 39.8463C38.0914 41.3765 32.8721 43.9978 28.3139 47.5586C25.3846 49.8307 22.7521 52.4614 20.478 55.3892C21.507 55.1456 22.5318 54.9458 23.5526 54.7897C26.0811 54.4051 28.6422 54.2798 31.1962 54.4156C32.0928 54.4698 32.9825 54.5642 33.8373 54.669C33.7464 55.543 33.6747 56.3995 33.6415 57.2472C33.5598 59.5056 33.7293 61.7661 34.1466 63.9871C34.3214 64.8611 34.5259 65.7088 34.7706 66.5373C37.5255 62.9531 41.1694 60.1512 45.341 58.4094C49.5125 56.6676 54.0669 56.0464 58.5526 56.6075C60.7488 56.8832 62.9006 57.4395 64.9552 58.2627L63.4188 60.535L84.6715 59.8324Z" fill="url(#paint1_linear_116_9289)"/>
<path d="M196.728 121.612V127.314H179.036V123.96C180.483 122.361 182.146 120.657 184.024 118.849C188.23 114.829 190.332 111.752 190.332 109.62C190.332 106.781 189.208 105.362 186.961 105.362C184.225 105.362 182.857 107.077 182.858 110.508C182.858 111.323 183.055 112.464 183.449 113.93L179.779 113.056C179.536 112.202 179.397 111.322 179.363 110.434C179.363 105.626 182.334 103.222 188.277 103.221C190.79 103.221 192.858 103.841 194.48 105.08C196.102 106.32 196.916 107.909 196.92 109.847C196.92 112.061 195.316 114.471 192.106 117.076L189.951 118.814L187.569 120.813C187.419 120.942 187.048 121.208 186.457 121.612H196.728Z" fill="#20A049"/>
<path d="M38.7719 29.7598C38.2195 29.7598 37.6392 29.7476 37.0345 29.7248C36.4297 29.7021 35.8284 29.6672 35.2341 29.6217C34.6398 29.5763 34.0822 29.5151 33.5684 29.4469V13.4851C34.1207 13.3732 34.7185 13.2771 35.3617 13.1932C36.0049 13.1093 36.6621 13.0446 37.3351 12.9939C38.008 12.9432 38.6565 12.917 39.2858 12.917C41.9659 12.917 43.9101 13.2998 45.1185 14.0654C46.3269 14.8309 46.9323 15.9746 46.9346 17.4965C46.9402 18.079 46.8078 18.6546 46.5483 19.1762C46.2878 19.6922 45.9019 20.1345 45.4261 20.4627C44.8882 20.827 44.2754 21.066 43.6328 21.1619L43.6468 21.0238C44.3475 21.1046 45.0252 21.3232 45.6411 21.667C46.1904 21.977 46.6448 22.4308 46.9556 22.9797C47.281 23.5947 47.4412 24.2837 47.4205 24.9793C47.4487 25.919 47.1476 26.839 46.5693 27.5801C46.0029 28.2898 45.0859 28.8317 43.8181 29.2057C42.5503 29.5798 40.8682 29.7644 38.7719 29.7598ZM39.5584 27.297C40.6631 27.297 41.5324 27.2049 42.1663 27.0208C42.8002 26.8367 43.2529 26.5623 43.5244 26.1976C43.808 25.7964 43.9511 25.3128 43.9317 24.822C43.9317 24.0004 43.6485 23.3963 43.0822 23.0094C42.5159 22.6225 41.5912 22.4291 40.3083 22.4291H36.7985V19.8841H39.9587C41.2347 19.8841 42.1232 19.6948 42.6242 19.3161C43.1253 18.9374 43.3753 18.3885 43.3741 17.6695C43.3741 16.8667 43.0956 16.2881 42.5386 15.9339C41.9816 15.5796 41.0453 15.4048 39.7297 15.4095C39.2805 15.4095 38.8453 15.4252 38.4205 15.4567C37.9958 15.4882 37.5903 15.5388 37.197 15.6018V27.1799C37.6165 27.2271 38.015 27.2585 38.3908 27.2778C38.7666 27.297 39.1582 27.3005 39.5584 27.3005V27.297Z" fill="#FAFAFC"/>
<path d="M53.7111 29.5733V21.1641L54.4819 23.737L47.1914 13.1133H51.2378L56.2403 20.43H55.1409L60.1154 13.1133H63.8751L56.7385 23.744L57.5093 21.2113V29.5733H53.7111Z" fill="#FAFAFC"/>
<path d="M65.5479 29.5733V13.1133H78.0995V15.8383H69.2639V26.85H78.2271V29.5733H65.5479ZM67.8061 22.5467V19.8217H76.869V22.5467H67.8061Z" fill="#FAFAFC"/>
<path d="M18.5938 13.5953L19.5428 14.7821L20.6003 13.9169L19.667 12.7686L18.5938 13.5953Z" fill="url(#paint2_linear_116_9289)"/>
<path d="M21.9167 13.4531L21.6318 13.1035L20.6495 13.9075L21.5339 15.0175L20.4188 15.9386L19.5361 14.8322L18.5066 15.6747L17.5085 14.4249L16.4248 15.2447L17.3617 16.4525L16.7761 16.9454L20.3489 21.3519C23.4671 17.0782 22.5897 14.5071 21.9167 13.4531Z" fill="url(#paint3_linear_116_9289)"/>
<path d="M16.383 11.749L16.2554 12.9463L16.9266 12.4115L16.383 11.749Z" fill="#85C341"/>
<path d="M17.5367 10.5332L17.4126 11.7026L18.0663 11.1799L17.5367 10.5332Z" fill="#85C341"/>
<path d="M14.9375 11.6113L14.8379 12.5552L15.3658 12.134L14.9375 11.6113Z" fill="#85C341"/>
<path d="M13.478 13.1727L13.8975 12.8389L13.5567 12.4229L13.478 13.1727Z" fill="#85C341"/>
<path d="M15.4165 12.7646L15.3169 13.6998L15.8395 13.2838L15.4165 12.7646Z" fill="#85C341"/>
<path d="M16.4736 14.5358L17.1798 13.9748L16.6082 13.2773L16.4736 14.5358Z" fill="#85C341"/>
<path d="M18.4976 13.1026L19.382 12.3982L18.6654 11.5225L18.4976 13.1026Z" fill="#85C341"/>
<path d="M18.0103 14.7052L18.7863 14.0847L18.1571 13.3174L18.0103 14.7052Z" fill="#85C341"/>
<path d="M15.659 10.4873L15.5576 11.4312L16.0855 11.0099L15.659 10.4873Z" fill="#85C341"/>
<path d="M17.1992 13.3699L17.6239 13.0308L17.2796 12.6113L17.1992 13.3699Z" fill="#85C341"/>
<path d="M15.4146 15.1645L15.897 14.7799L15.5054 14.3027L15.4146 15.1645Z" fill="#85C341"/>
<path d="M12.4888 12.3127L12.7999 12.0645L12.5482 11.7568L12.4888 12.3127Z" fill="#85C341"/>
<path d="M13.6245 11.7806L13.9356 11.5342L13.684 11.2266L13.6245 11.7806Z" fill="#85C341"/>
<path d="M15.9526 16.4446L16.6221 15.9115L16.0802 15.249L15.9526 16.4446Z" fill="url(#paint4_linear_116_9289)"/>
<path d="M14.3081 14.2336L14.7294 13.8963L14.3885 13.4785L14.3081 14.2336Z" fill="#85C341"/>
<path d="M20.2494 11.959L20.1445 12.9483L20.6986 12.5061L20.2494 11.959Z" fill="#85C341"/>
<path d="M19.3472 11.5907L19.9013 11.1485L19.4521 10.5996L19.3472 11.5907Z" fill="#85C341"/>
<path d="M16.3828 11.749L15.7134 12.2839L16.2552 12.9463L16.3828 11.749Z" fill="url(#paint5_linear_116_9289)"/>
<path d="M17.5365 10.5332L16.8828 11.0541L17.4124 11.7026L17.5365 10.5332Z" fill="url(#paint6_linear_116_9289)"/>
<path d="M14.4097 12.0326L14.8379 12.5552L14.9375 11.6113L14.4097 12.0326Z" fill="url(#paint7_linear_116_9289)"/>
<path d="M13.478 13.1727L13.5567 12.4229L13.1372 12.7567L13.478 13.1727Z" fill="url(#paint8_linear_116_9289)"/>
<path d="M15.4165 12.7646L14.8921 13.1824L15.3168 13.6998L15.4165 12.7646Z" fill="url(#paint9_linear_116_9289)"/>
<path d="M16.4736 14.5358L16.6082 13.2773L15.9038 13.8384L16.4736 14.5358Z" fill="url(#paint10_linear_116_9289)"/>
<path d="M18.4979 13.1026L18.6657 11.5225L17.7812 12.2286L18.4979 13.1026Z" fill="url(#paint11_linear_116_9289)"/>
<path d="M18.0101 14.7052L18.1569 13.3174L17.3809 13.9361L18.0101 14.7052Z" fill="url(#paint12_linear_116_9289)"/>
<path d="M15.659 10.4873L15.1294 10.9085L15.5576 11.4312L15.659 10.4873Z" fill="url(#paint13_linear_116_9289)"/>
<path d="M17.1993 13.3699L17.2797 12.6113L16.855 12.9487L17.1993 13.3699Z" fill="url(#paint14_linear_116_9289)"/>
<path d="M15.5056 14.3027L15.0249 14.6873L15.4147 15.1645L15.5056 14.3027Z" fill="url(#paint15_linear_116_9289)"/>
<path d="M12.4885 12.3127L12.5479 11.7568L12.2368 12.005L12.4885 12.3127Z" fill="url(#paint16_linear_116_9289)"/>
<path d="M13.6247 11.7806L13.6842 11.2266L13.373 11.473L13.6247 11.7806Z" fill="url(#paint17_linear_116_9289)"/>
<path d="M15.9527 16.4446L16.0803 15.249L15.4126 15.7821L15.9527 16.4446Z" fill="url(#paint18_linear_116_9289)"/>
<path d="M14.3079 14.2336L14.3883 13.4785L13.9653 13.8141L14.3079 14.2336Z" fill="url(#paint19_linear_116_9289)"/>
<path d="M19.6953 12.3995L20.1445 12.9483L20.2494 11.959L19.6953 12.3995Z" fill="url(#paint20_linear_116_9289)"/>
<path d="M19.3472 11.5907L19.452 10.5996L18.8979 11.0418L19.3472 11.5907Z" fill="url(#paint21_linear_116_9289)"/>
<path d="M16.8952 30.9209L17.4388 30.2567L16.7676 29.7236L16.8952 30.9209Z" fill="url(#paint22_linear_116_9289)"/>
<path d="M18.0489 32.1363L18.5785 31.4896L17.9248 30.9688L18.0489 32.1363Z" fill="url(#paint23_linear_116_9289)"/>
<path d="M15.4495 31.0581L15.8778 30.5355L15.3481 30.1143L15.4495 31.0581Z" fill="url(#paint24_linear_116_9289)"/>
<path d="M13.9902 29.499L14.0689 30.2489L14.4097 29.8329L13.9902 29.499Z" fill="url(#paint25_linear_116_9289)"/>
<path d="M15.8271 28.9688L15.9268 29.9039L16.3515 29.3865L15.8271 28.9688Z" fill="url(#paint26_linear_116_9289)"/>
<path d="M17.1209 29.394L17.6925 28.6966L16.9863 28.1338L17.1209 29.394Z" fill="url(#paint27_linear_116_9289)"/>
<path d="M19.0103 29.5664L19.178 31.1465L19.8947 30.2726L19.0103 29.5664Z" fill="url(#paint28_linear_116_9289)"/>
<path d="M18.5225 27.9658L18.6693 29.3537L19.2985 28.5846L18.5225 27.9658Z" fill="url(#paint29_linear_116_9289)"/>
<path d="M16.17 32.1831L16.5982 31.6605L16.0703 31.2393L16.17 32.1831Z" fill="url(#paint30_linear_116_9289)"/>
<path d="M17.7114 29.3008L17.7918 30.0594L18.1362 29.6399L17.7114 29.3008Z" fill="url(#paint31_linear_116_9289)"/>
<path d="M16.4097 27.8904L15.9272 27.5059L16.0181 28.3676L16.4097 27.8904Z" fill="url(#paint32_linear_116_9289)"/>
<path d="M13.0604 30.9125L13.3121 30.6066L13.001 30.3584L13.0604 30.9125Z" fill="url(#paint33_linear_116_9289)"/>
<path d="M14.1966 31.4445L14.4483 31.1369L14.1372 30.8887L14.1966 31.4445Z" fill="url(#paint34_linear_116_9289)"/>
<path d="M17.1348 26.7597L16.4653 26.2266L16.5929 27.4221L17.1348 26.7597Z" fill="url(#paint35_linear_116_9289)"/>
<path d="M14.9012 29.1926L15.242 28.7748L14.8208 28.4375L14.9012 29.1926Z" fill="url(#paint36_linear_116_9289)"/>
<path d="M20.6567 29.7227L20.7616 30.712L21.2108 30.1631L20.6567 29.7227Z" fill="url(#paint37_linear_116_9289)"/>
<path d="M19.9647 32.0711L20.414 31.5223L19.8599 31.0801L19.9647 32.0711Z" fill="url(#paint38_linear_116_9289)"/>
<path d="M16.2236 30.3861L16.8948 30.9209L16.7672 29.7236L16.2236 30.3861Z" fill="#85C341"/>
<path d="M17.395 31.6155L18.0487 32.1363L17.9246 30.9688L17.395 31.6155Z" fill="#85C341"/>
<path d="M14.9219 30.6369L15.4497 31.0581L15.3484 30.1143L14.9219 30.6369Z" fill="#85C341"/>
<path d="M13.9903 29.499L13.6494 29.9133L14.0689 30.2489L13.9903 29.499Z" fill="#85C341"/>
<path d="M15.8273 28.9688L15.4043 29.4879L15.9269 29.9039L15.8273 28.9688Z" fill="#85C341"/>
<path d="M16.416 28.8312L17.1204 29.394L16.9858 28.1338L16.416 28.8312Z" fill="#85C341"/>
<path d="M18.2935 30.4421L19.1779 31.1465L19.0101 29.5664L18.2935 30.4421Z" fill="#85C341"/>
<path d="M18.5223 27.9658L17.8931 28.7349L18.6691 29.3537L18.5223 27.9658Z" fill="#85C341"/>
<path d="M15.6416 31.7619L16.1695 32.1831L16.0698 31.2393L15.6416 31.7619Z" fill="#85C341"/>
<path d="M17.7115 29.3008L17.3672 29.722L17.7919 30.0594L17.7115 29.3008Z" fill="#85C341"/>
<path d="M15.9267 27.5059L15.5352 27.983L16.0176 28.3676L15.9267 27.5059Z" fill="#85C341"/>
<path d="M12.749 30.666L13.0602 30.9125L13.0007 30.3584L12.749 30.666Z" fill="#85C341"/>
<path d="M13.8853 31.1963L14.1964 31.4445L14.137 30.8887L13.8853 31.1963Z" fill="#85C341"/>
<path d="M16.4652 26.2266L15.9233 26.889L16.5928 27.4221L16.4652 26.2266Z" fill="#85C341"/>
<path d="M14.4775 28.8552L14.9005 29.1926L14.8201 28.4375L14.4775 28.8552Z" fill="#85C341"/>
<path d="M20.6567 29.7227L20.2075 30.2697L20.7616 30.712L20.6567 29.7227Z" fill="#85C341"/>
<path d="M19.4102 31.6289L19.9642 32.0711L19.8594 31.0801L19.4102 31.6289Z" fill="#85C341"/>
<path d="M18.019 28.257L18.9244 27.1261L17.8547 26.2539L16.937 27.4372L18.019 28.257Z" fill="url(#paint39_linear_116_9289)"/>
<path d="M18.7198 25.1L19.8472 26.0282L19.0396 27.0245L20.0709 27.8687L19.2162 28.9384L20.2649 29.7914H20.2771L21.1319 28.7427L21.8503 29.3299L28.3175 21.349L21.9184 13.459C22.5914 14.5077 23.4688 17.0841 20.3453 21.349L16.9858 25.4898L17.8388 26.2064L18.7198 25.1Z" fill="url(#paint40_linear_116_9289)"/>
<path d="M126.889 61.449C126.89 61.4636 126.89 61.4782 126.889 61.4927C126.027 61.8933 125.19 62.345 124.382 62.8456C124.144 62.6986 123.947 62.4929 123.81 62.2481C123.674 62.0033 123.602 61.7276 123.603 61.4473C123.603 61.0111 123.776 60.5927 124.085 60.2842C124.393 59.9758 124.811 59.8025 125.248 59.8025C125.683 59.8039 126.101 59.978 126.408 60.2866C126.716 60.5952 126.889 61.0132 126.889 61.449ZM119.149 49.5825C117.565 49.5825 116.045 50.2119 114.925 51.3324C113.804 52.4528 113.175 53.9723 113.175 55.5568C113.175 57.141 113.805 58.6602 114.925 59.7802C116.046 60.9002 117.565 61.5294 119.149 61.5294C119.934 61.5297 120.71 61.3753 121.435 61.0753C122.16 60.7752 122.819 60.3353 123.374 59.7807C123.928 59.2261 124.368 58.5676 124.669 57.8429C124.969 57.1181 125.123 56.3413 125.123 55.5568C125.123 53.9723 124.494 52.4528 123.374 51.3324C122.253 50.2119 120.734 49.5825 119.149 49.5825ZM161.3 88.0871C162.661 88.0871 163.967 87.5462 164.93 86.5835C165.893 85.6207 166.433 84.315 166.433 82.9535C166.434 82.2789 166.302 81.6108 166.044 80.9873C165.786 80.3639 165.408 79.7974 164.932 79.3201C164.455 78.8428 163.889 78.4642 163.266 78.2059C162.642 77.9476 161.974 77.8146 161.3 77.8146C160.894 77.8148 160.49 77.8629 160.096 77.958C160.461 79.6317 160.645 81.34 160.644 83.0531C160.645 84.6976 160.475 86.3378 160.137 87.9472C160.518 88.0383 160.908 88.0853 161.3 88.0871ZM115.118 73.5026C114.885 73.7632 114.747 74.0953 114.727 74.4447C114.85 74.1277 114.981 73.8137 115.118 73.5026ZM164.759 74.7034C164.227 74.7034 163.716 74.9148 163.34 75.2911C162.964 75.6674 162.752 76.1778 162.752 76.71C162.752 76.9734 162.804 77.2342 162.905 77.4776C163.006 77.721 163.154 77.942 163.34 78.1282C163.527 78.3144 163.748 78.4621 163.991 78.5627C164.235 78.6634 164.495 78.7151 164.759 78.7148C165.022 78.7151 165.283 78.6634 165.526 78.5627C165.77 78.462 165.991 78.3143 166.177 78.1281C166.363 77.9419 166.511 77.7208 166.612 77.4775C166.712 77.2341 166.764 76.9733 166.764 76.71C166.764 76.4465 166.712 76.1857 166.612 75.9422C166.511 75.6988 166.363 75.4776 166.177 75.2912C165.991 75.1049 165.77 74.957 165.527 74.8562C165.283 74.7553 165.022 74.7034 164.759 74.7034ZM171.642 69.2202C171.642 67.8066 171.08 66.4511 170.08 65.4517C169.08 64.4523 167.725 63.8909 166.311 63.8909C164.897 63.8909 163.542 64.4523 162.542 65.4517C161.542 66.4511 160.98 67.8066 160.98 69.2202C160.98 70.6341 161.542 71.9901 162.541 72.9899C163.541 73.9896 164.897 74.5513 166.311 74.5513C167.011 74.5515 167.705 74.4138 168.352 74.146C168.999 73.8782 169.587 73.4855 170.082 72.9905C170.577 72.4954 170.97 71.9076 171.238 71.2607C171.506 70.6138 171.644 69.9204 171.644 69.2202H171.642ZM108.943 69.3198C107.662 69.3189 106.433 69.8265 105.527 70.7311C104.62 71.6356 104.109 72.8632 104.107 74.1441C104.107 74.7711 104.229 75.3921 104.467 75.9724C104.479 76.0003 104.489 76.03 104.502 76.058C104.875 76.9243 105.495 77.6622 106.283 78.1807C107.071 78.6991 107.994 78.9753 108.938 78.9753C109.573 78.9759 110.202 78.8515 110.788 78.609C111.375 78.3665 111.908 78.0108 112.357 77.5621C112.807 77.1134 113.163 76.5806 113.406 75.9941C113.649 75.4076 113.774 74.7789 113.774 74.1441C113.772 72.8643 113.263 71.6375 112.357 70.733C111.452 69.8285 110.225 69.3203 108.945 69.3198H108.943ZM148.336 62.2356C149.256 62.7427 150.142 63.3109 150.987 63.9363C151.268 63.7806 151.501 63.5525 151.663 63.2758C151.825 62.9991 151.91 62.6839 151.908 62.3632C151.908 61.8885 151.72 61.4332 151.384 61.0976C151.048 60.7619 150.593 60.5733 150.118 60.5733C149.666 60.574 149.231 60.7458 148.901 61.0542C148.571 61.3626 148.369 61.7847 148.337 62.2356H148.336ZM152.328 53.5328C152.212 53.5328 152.099 53.5328 151.978 53.5503H151.961C151.129 53.6391 150.36 54.0323 149.801 54.6541C149.243 55.2759 148.933 56.0824 148.933 56.9185C148.933 57.8164 149.29 58.6776 149.925 59.3125C150.56 59.9474 151.421 60.3042 152.319 60.3042C153.217 60.3042 154.078 59.9474 154.713 59.3125C155.348 58.6776 155.705 57.8164 155.705 56.9185C155.704 56.0225 155.349 55.1632 154.716 54.5286C154.084 53.8941 153.226 53.536 152.33 53.5328H152.328ZM145.032 56.9307C144.226 56.9298 143.447 57.2164 142.833 57.739C142.22 58.2616 141.814 58.9859 141.687 59.7815C143.868 60.2307 145.975 60.9869 147.944 62.0276C148.25 61.5093 148.412 60.9184 148.413 60.3164C148.413 59.4197 148.057 58.5595 147.423 57.9248C146.79 57.2901 145.931 56.9326 145.034 56.9307H145.032ZM112.722 79.4594C112.721 79.9276 112.904 80.3774 113.231 80.7127C113.324 79.7551 113.477 78.8042 113.687 77.8653C113.396 78.0179 113.153 78.2471 112.982 78.528C112.812 78.8089 112.722 79.131 112.722 79.4594ZM135.26 107.758C135.26 107.412 135.187 107.069 135.046 106.753C133.666 106.648 132.298 106.422 130.958 106.078C130.535 106.535 130.299 107.135 130.299 107.758C130.299 108.415 130.559 109.044 131.023 109.509C131.487 109.974 132.116 110.236 132.772 110.238C133.099 110.239 133.422 110.176 133.724 110.051C134.025 109.927 134.3 109.745 134.531 109.514C134.762 109.284 134.945 109.01 135.07 108.709C135.195 108.407 135.26 108.084 135.26 107.758ZM101.789 103.159C101.789 104.057 102.146 104.918 102.781 105.553C103.416 106.188 104.277 106.545 105.175 106.545C106.073 106.545 106.934 106.188 107.569 105.553C108.204 104.918 108.56 104.057 108.56 103.159C108.56 102.261 108.204 101.4 107.569 100.765C106.934 100.13 106.073 99.7736 105.175 99.7736C104.277 99.7736 103.416 100.13 102.781 100.765C102.146 101.4 101.789 102.261 101.789 103.159ZM144.613 107.761C144.613 107.362 144.454 106.979 144.171 106.696C143.889 106.414 143.505 106.255 143.106 106.255C142.706 106.255 142.323 106.414 142.041 106.696C141.758 106.979 141.599 107.362 141.599 107.761C141.599 108.161 141.758 108.544 142.041 108.827C142.323 109.109 142.706 109.268 143.106 109.268C143.505 109.266 143.887 109.106 144.168 108.823C144.449 108.54 144.607 108.157 144.606 107.758L144.613 107.761ZM144.23 113.979C144.346 114.25 144.539 114.482 144.785 114.645C145.032 114.808 145.32 114.895 145.616 114.895C146.015 114.895 146.399 114.736 146.681 114.453C146.964 114.171 147.123 113.788 147.123 113.388C147.123 113.19 147.084 112.994 147.008 112.812C146.932 112.629 146.821 112.463 146.681 112.323C146.541 112.183 146.375 112.073 146.192 111.997C146.01 111.922 145.814 111.883 145.616 111.883C145.418 111.883 145.222 111.922 145.039 111.997C144.857 112.073 144.691 112.183 144.551 112.323C144.411 112.463 144.3 112.629 144.224 112.812C144.148 112.994 144.109 113.19 144.109 113.388C144.109 113.585 144.148 113.781 144.225 113.963L144.23 113.979ZM151.176 113.846C151.85 113.846 152.517 113.713 153.14 113.455C153.762 113.197 154.328 112.819 154.804 112.343C155.281 111.866 155.658 111.3 155.916 110.678C156.174 110.055 156.306 109.388 156.306 108.714C156.306 108.04 156.173 107.373 155.916 106.751C155.658 106.128 155.28 105.563 154.803 105.087C154.327 104.61 153.762 104.232 153.139 103.974C152.517 103.717 151.85 103.584 151.176 103.584C149.815 103.584 148.511 104.124 147.548 105.087C146.586 106.049 146.046 107.354 146.046 108.714C146.046 110.073 146.586 111.377 147.547 112.338C148.507 113.3 149.81 113.841 151.169 113.842L151.176 113.846ZM138.145 119.439C138.864 119.439 139.575 119.296 140.238 119.021C140.902 118.745 141.504 118.342 142.012 117.833C142.519 117.324 142.921 116.721 143.195 116.057C143.47 115.393 143.61 114.681 143.609 113.963C143.61 113.319 143.496 112.68 143.274 112.075V112.06C142.885 111.013 142.185 110.11 141.268 109.473C140.352 108.836 139.262 108.494 138.145 108.494C136.695 108.494 135.304 109.07 134.278 110.096C133.252 111.121 132.676 112.513 132.676 113.963C132.676 115.412 133.251 116.802 134.276 117.828C135.3 118.853 136.689 119.43 138.138 119.432L138.145 119.439ZM121.287 102.035C121.615 102.036 121.936 101.938 122.208 101.754C121.371 101.093 120.579 100.377 119.838 99.6093C119.71 99.8473 119.643 100.113 119.644 100.384C119.644 100.818 119.816 101.235 120.122 101.544C120.429 101.852 120.845 102.026 121.28 102.028L121.287 102.035ZM109.576 94.7186C109.576 94.1484 109.349 93.6016 108.946 93.1984C108.543 92.7952 107.996 92.5687 107.426 92.5687C106.856 92.5687 106.309 92.7952 105.906 93.1984C105.503 93.6016 105.276 94.1484 105.276 94.7186C105.276 95.001 105.332 95.2805 105.44 95.5412C105.549 95.802 105.707 96.0389 105.907 96.2383C106.107 96.4378 106.344 96.596 106.605 96.7038C106.866 96.8116 107.145 96.867 107.428 96.8668C107.71 96.8668 107.99 96.811 108.252 96.7026C108.513 96.5943 108.75 96.4354 108.95 96.2352C109.149 96.0351 109.308 95.7974 109.415 95.536C109.523 95.2745 109.578 94.9944 109.578 94.7116L109.576 94.7186ZM129.451 118.072C129.737 118.073 130.02 118.017 130.284 117.907C130.548 117.798 130.788 117.638 130.99 117.436C131.192 117.234 131.352 116.994 131.462 116.73C131.571 116.467 131.627 116.184 131.627 115.898C131.627 115.612 131.571 115.329 131.462 115.065C131.352 114.802 131.192 114.562 130.99 114.36C130.788 114.158 130.548 113.998 130.284 113.889C130.02 113.779 129.737 113.723 129.451 113.724C128.875 113.724 128.322 113.953 127.914 114.36C127.506 114.768 127.277 115.321 127.277 115.898C127.277 116.475 127.506 117.028 127.914 117.436C128.322 117.843 128.875 118.072 129.451 118.072ZM121.005 105.895C121.423 105.895 121.823 105.729 122.118 105.434C122.413 105.139 122.579 104.739 122.579 104.322C122.579 103.904 122.413 103.504 122.118 103.209C121.823 102.914 121.423 102.748 121.005 102.748C120.588 102.748 120.188 102.914 119.893 103.209C119.598 103.504 119.432 103.904 119.432 104.322C119.432 104.738 119.597 105.137 119.891 105.431C120.184 105.726 120.582 105.893 120.998 105.895H121.005ZM122.229 114.14L122.28 114.171C123.057 114.641 123.948 114.889 124.856 114.888C125.511 114.888 126.16 114.759 126.765 114.508C127.371 114.257 127.921 113.889 128.384 113.426C128.847 112.963 129.215 112.412 129.465 111.807C129.716 111.202 129.845 110.553 129.845 109.897C129.845 109.242 129.716 108.593 129.465 107.987C129.214 107.382 128.847 106.832 128.383 106.368C127.92 105.905 127.37 105.537 126.764 105.287C126.159 105.036 125.51 104.907 124.854 104.907C123.531 104.907 122.262 105.433 121.327 106.368C120.391 107.304 119.866 108.573 119.866 109.896C119.865 110.746 120.082 111.582 120.495 112.325C120.908 113.067 121.505 113.692 122.227 114.14H122.229ZM151.552 101.761C151.901 101.971 152.3 102.081 152.707 102.081C153.005 102.081 153.3 102.023 153.575 101.91C153.85 101.796 154.099 101.629 154.31 101.419C154.52 101.208 154.687 100.958 154.8 100.683C154.914 100.408 154.972 100.113 154.971 99.8155C154.971 99.4501 154.882 99.09 154.712 98.7668C153.752 99.8592 152.694 100.861 151.552 101.761ZM102.46 71.1412C102.46 70.9044 102.413 70.6699 102.323 70.4511C102.232 70.2324 102.099 70.0336 101.932 69.8663C101.764 69.6989 101.565 69.5662 101.346 69.4757C101.128 69.3853 100.893 69.3388 100.656 69.3391C100.18 69.3414 99.7238 69.5323 99.3877 69.87C99.0516 70.2077 98.863 70.6647 98.863 71.1412C98.863 71.6193 99.0528 72.0778 99.3907 72.416C99.7286 72.7543 100.187 72.9445 100.665 72.945C101.142 72.9427 101.599 72.7516 101.935 72.4136C102.271 72.0755 102.46 71.6181 102.46 71.1412ZM102.686 90.1776L102.736 90.209C103.383 90.6011 104.125 90.8079 104.881 90.8068C105.982 90.8068 107.038 90.3694 107.816 89.5909C108.595 88.8124 109.032 87.7565 109.032 86.6555C109.032 85.5546 108.595 84.4987 107.816 83.7202C107.038 82.9416 105.982 82.5043 104.881 82.5043C103.78 82.5047 102.725 82.9423 101.947 83.7208C101.169 84.4992 100.731 85.5549 100.731 86.6555C100.731 87.3603 100.91 88.0535 101.252 88.6697C101.594 89.2859 102.088 89.8049 102.686 90.1776ZM94.1698 86.1417C94.1698 86.5268 94.2457 86.9082 94.3931 87.2641C94.5405 87.6199 94.7565 87.9432 95.0289 88.2156C95.3012 88.4879 95.6246 88.704 95.9804 88.8514C96.3363 88.9988 96.7177 89.0746 97.1028 89.0746C97.8807 89.0746 98.6267 88.7656 99.1768 88.2156C99.7268 87.6656 100.036 86.9195 100.036 86.1417C100.035 85.3641 99.7261 84.6185 99.1761 84.0689C98.6261 83.5192 97.8804 83.2104 97.1028 83.2104C96.7177 83.2102 96.3364 83.2858 95.9805 83.4331C95.6247 83.5803 95.3014 83.7961 95.029 84.0683C94.7566 84.3406 94.5405 84.6638 94.3931 85.0195C94.2457 85.3753 94.1698 85.7566 94.1698 86.1417ZM136.705 54.1166C136.704 53.9267 136.668 53.7386 136.597 53.5625L136.581 53.5205C136.464 53.2507 136.271 53.0208 136.026 52.8593C135.78 52.6978 135.492 52.6117 135.198 52.6116C135.001 52.6114 134.805 52.6502 134.622 52.7257C134.439 52.8012 134.273 52.912 134.133 53.0518C133.993 53.1916 133.882 53.3576 133.806 53.5403C133.731 53.723 133.692 53.9188 133.692 54.1166C133.692 54.5162 133.85 54.8994 134.133 55.182C134.416 55.4645 134.799 55.6233 135.198 55.6233C135.598 55.6233 135.981 55.4645 136.264 55.182C136.546 54.8994 136.705 54.5162 136.705 54.1166ZM137.359 59.3009C137.074 58.2107 136.436 57.2456 135.545 56.5568C134.653 55.8679 133.558 55.4941 132.431 55.4939C131.081 55.4939 129.787 56.0301 128.832 56.9846C127.877 57.9391 127.34 59.2337 127.34 60.5838C127.34 60.8124 127.356 61.0407 127.387 61.2672C130.381 59.96 133.613 59.2858 136.88 59.2869C137.041 59.2869 137.2 59.2974 137.359 59.3009ZM123.944 63.1218C123.31 62.8884 122.639 62.7701 121.963 62.7722C120.797 62.7724 119.659 63.1294 118.702 63.7952C117.744 64.461 117.014 65.4038 116.608 66.497C116.597 66.5319 116.585 66.5669 116.571 66.6018C116.361 67.2066 116.253 67.8423 116.253 68.4826C116.253 69.2007 116.389 69.9124 116.653 70.5801C118.505 67.588 120.994 65.0414 123.944 63.1218ZM180.226 81.9345C180.207 81.1933 180.17 80.454 180.114 79.7216C179.843 80.0035 179.691 80.3792 179.69 80.7704C179.688 80.9914 179.734 81.2102 179.826 81.4113C179.918 81.6124 180.053 81.791 180.221 81.9345H180.226ZM170.177 74.8939C170.176 75.9953 170.503 77.0721 171.118 77.9859C170.98 77.7829 170.794 77.6168 170.577 77.5019C170.36 77.3871 170.119 77.327 169.873 77.327C169.474 77.327 169.09 77.4857 168.808 77.7683C168.525 78.0508 168.367 78.4341 168.367 78.8337C168.367 79.2333 168.525 79.6165 168.808 79.8991C169.09 80.1816 169.474 80.3404 169.873 80.3404C170.071 80.3404 170.267 80.3014 170.45 80.2256C170.632 80.1499 170.798 80.0389 170.938 79.899C171.078 79.759 171.189 79.5929 171.264 79.4101C171.34 79.2273 171.378 79.0315 171.378 78.8337C171.378 78.5384 171.291 78.2496 171.128 78.0034C171.637 78.7575 172.323 79.375 173.127 79.8017C173.93 80.2284 174.826 80.4512 175.736 80.4505C176.547 80.4515 177.349 80.2742 178.085 79.9311C178.82 79.588 179.471 79.0874 179.992 78.4649C179.687 75.5607 179.087 72.6951 178.202 69.9124C177.436 69.5319 176.591 69.3345 175.736 69.3356C174.262 69.3356 172.848 69.9212 171.805 70.9636C170.763 72.006 170.177 73.4197 170.177 74.8939ZM101.695 77.341C101.695 76.8566 101.6 76.3768 101.417 75.9287L101.39 75.864C101.14 75.2844 100.746 74.7778 100.247 74.3915C99.7475 74.0051 99.1583 73.7516 98.5344 73.6546H98.4907C98.317 73.6295 98.1418 73.6166 97.9663 73.6162C96.9769 73.6162 96.0279 74.0091 95.3281 74.7086C94.6284 75.408 94.235 76.3568 94.2345 77.3462C94.2345 78.3359 94.6277 79.2851 95.3275 79.985C96.0274 80.6848 96.9766 81.078 97.9663 81.078C98.4564 81.078 98.9417 80.9814 99.3945 80.7937C99.8473 80.606 100.259 80.331 100.605 79.9843C100.951 79.6375 101.226 79.2259 101.413 78.773C101.601 78.32 101.697 77.8346 101.696 77.3445L101.695 77.341ZM115.589 105.416C115.589 105.815 115.747 106.199 116.03 106.481C116.313 106.764 116.696 106.922 117.095 106.922C117.495 106.922 117.878 106.764 118.161 106.481C118.443 106.199 118.602 105.815 118.602 105.416C118.602 105.218 118.563 105.022 118.487 104.839C118.412 104.657 118.301 104.491 118.161 104.351C118.021 104.211 117.855 104.1 117.672 104.025C117.489 103.949 117.293 103.911 117.095 103.911C116.897 103.911 116.701 103.95 116.519 104.026C116.336 104.102 116.17 104.213 116.03 104.353C115.89 104.493 115.779 104.659 115.704 104.842C115.629 105.025 115.59 105.221 115.59 105.419L115.589 105.416ZM113.804 93.9583C112.424 93.9583 111.1 94.5067 110.123 95.4829C109.147 96.459 108.599 97.783 108.599 99.1635C108.597 99.8484 108.73 100.527 108.991 101.16C109.252 101.793 109.635 102.369 110.119 102.854C110.603 103.339 111.177 103.723 111.81 103.986C112.443 104.248 113.121 104.383 113.806 104.383C114.489 104.383 115.167 104.248 115.798 103.986C116.43 103.725 117.004 103.341 117.487 102.858C117.97 102.374 118.354 101.8 118.615 101.168C118.877 100.537 119.011 99.8595 119.011 99.1758C119.011 99.0185 119.011 98.8612 118.988 98.7073C117.847 97.406 116.85 95.9841 116.017 94.4669C115.326 94.1371 114.571 93.9646 113.806 93.9618L113.804 93.9583ZM159.445 55.1548C159.446 55.1484 159.446 55.142 159.445 55.1356C159.494 54.986 159.519 54.8297 159.519 54.6724C159.519 54.2731 159.36 53.8901 159.078 53.6076C158.796 53.3251 158.413 53.1662 158.014 53.1657C157.614 53.1657 157.231 53.3245 156.948 53.607C156.666 53.8896 156.507 54.2728 156.507 54.6724C156.507 55.072 156.666 55.4552 156.948 55.7378C157.231 56.0204 157.614 56.1791 158.014 56.1791C158.33 56.1807 158.638 56.0828 158.896 55.8993C159.153 55.7158 159.346 55.4559 159.447 55.1566L159.445 55.1548ZM124.312 104.528C124.545 104.528 124.775 104.474 124.983 104.37C125.192 104.266 125.373 104.114 125.513 103.928C124.635 103.448 123.787 102.913 122.975 102.327C122.861 102.543 122.801 102.783 122.8 103.026C122.801 103.426 122.961 103.808 123.244 104.09C123.526 104.372 123.91 104.53 124.309 104.53L124.312 104.528ZM159.024 74.4097C159.342 75.2198 159.613 76.0473 159.837 76.8883C160.081 76.6137 160.215 76.2591 160.214 75.892C160.216 75.5456 160.098 75.2092 159.881 74.9396C159.663 74.6699 159.359 74.4834 159.021 74.4115L159.024 74.4097ZM158.951 69.7498C158.57 69.7502 158.204 69.8946 157.926 70.1541C157.648 70.4135 157.478 70.7687 157.451 71.1481C157.72 71.6142 157.974 72.0891 158.213 72.5727C158.438 72.6998 158.692 72.7666 158.951 72.7667C159.35 72.7667 159.733 72.608 160.016 72.3254C160.299 72.0428 160.457 71.6596 160.457 71.26C160.458 71.0617 160.419 70.8653 160.343 70.6821C160.267 70.4988 160.156 70.3324 160.015 70.1922C159.875 70.0521 159.709 69.941 159.525 69.8654C159.342 69.7898 159.145 69.7511 158.947 69.7516L158.951 69.7498ZM141.318 106.407C139.855 106.686 138.369 106.828 136.88 106.83C136.67 106.83 136.462 106.83 136.254 106.83C136.93 107.105 137.652 107.246 138.381 107.246C139.419 107.243 140.435 106.953 141.318 106.407ZM129.532 105.781C129.626 105.781 129.719 105.772 129.811 105.755C129.322 105.603 128.84 105.433 128.364 105.251C128.509 105.418 128.689 105.552 128.89 105.643C129.092 105.734 129.31 105.782 129.532 105.781ZM151.931 64.2334C151.931 64.3855 151.94 64.5376 151.954 64.6879C153.585 66.0273 155.032 67.5773 156.255 69.2971C156.521 69.3385 156.79 69.3596 157.059 69.36C158.419 69.36 159.723 68.8199 160.684 67.8585C161.646 66.8971 162.186 65.5931 162.186 64.2334C162.185 62.8762 161.645 61.5749 160.686 60.6149C159.726 59.6548 158.425 59.1144 157.068 59.1121C156.395 59.1109 155.728 59.2424 155.105 59.4991C154.482 59.7558 153.916 60.1326 153.439 60.608C152.962 61.0834 152.584 61.6481 152.325 62.2698C152.066 62.8916 151.932 63.5582 151.931 64.2317V64.2334ZM147.804 104.164C147.432 104.358 147.053 104.544 146.668 104.717C146.886 104.713 147.101 104.661 147.297 104.566C147.493 104.471 147.666 104.333 147.804 104.164ZM157.89 111.505C158.337 111.505 158.765 111.328 159.081 111.012C159.397 110.696 159.575 110.267 159.575 109.821C159.574 109.374 159.396 108.945 159.081 108.63C158.765 108.314 158.336 108.136 157.89 108.136C157.443 108.136 157.014 108.313 156.698 108.629C156.381 108.945 156.203 109.373 156.203 109.821C156.203 110.042 156.247 110.262 156.332 110.467C156.417 110.672 156.542 110.858 156.699 111.014C156.856 111.171 157.043 111.295 157.248 111.379C157.453 111.464 157.673 111.506 157.895 111.505H157.89ZM108.347 90.4398C108.347 90.8662 108.516 91.2753 108.818 91.5768C109.12 91.8784 109.529 92.0478 109.955 92.0478C110.382 92.0478 110.791 91.8784 111.092 91.5768C111.394 91.2753 111.563 90.8662 111.563 90.4398C111.563 90.0133 111.394 89.6042 111.092 89.3027C110.791 89.0011 110.382 88.8317 109.955 88.8317C109.529 88.8317 109.12 89.0011 108.818 89.3027C108.516 89.6042 108.347 90.0133 108.347 90.4398ZM112.465 82.8836C112.465 82.3097 112.237 81.7593 111.831 81.3535C111.426 80.9476 110.875 80.7197 110.301 80.7197C109.727 80.7197 109.177 80.9476 108.771 81.3535C108.365 81.7593 108.137 82.3097 108.137 82.8836C108.137 83.4576 108.365 84.0082 108.771 84.4143C109.177 84.8204 109.727 85.0488 110.301 85.0492C110.875 85.0488 111.426 84.8204 111.831 84.4143C112.237 84.0082 112.465 83.4576 112.465 82.8836ZM115.192 92.7837C114.028 90.1895 113.341 87.4066 113.164 84.5686C112.316 85.5059 111.847 86.7252 111.848 87.9892C111.848 89.0348 112.168 90.0554 112.766 90.9131C113.364 91.7708 114.211 92.4244 115.192 92.7854V92.7837ZM139.313 59.4162C139.673 59.4535 140.03 59.4984 140.384 59.5508C140.163 59.4354 139.917 59.3754 139.668 59.376C139.551 59.377 139.434 59.3911 139.32 59.418L139.313 59.4162ZM104.159 108.81C103.598 108.81 103.054 109.002 102.617 109.356C103.613 110.653 104.681 111.894 105.816 113.072C106.068 112.842 106.269 112.563 106.406 112.252C106.544 111.941 106.615 111.605 106.615 111.264C106.616 110.942 106.553 110.622 106.43 110.324C106.307 110.025 106.126 109.754 105.898 109.526C105.669 109.298 105.398 109.118 105.1 108.995C104.801 108.872 104.482 108.809 104.159 108.81ZM98.7301 102.388C98.5793 102.389 98.4291 102.407 98.2827 102.443C98.828 103.53 99.417 104.589 100.05 105.62C100.229 105.445 100.372 105.236 100.469 105.005C100.567 104.774 100.617 104.525 100.616 104.274C100.616 103.774 100.417 103.295 100.064 102.941C99.71 102.587 99.2303 102.388 98.7301 102.388ZM100.581 106.466C101.022 107.148 101.481 107.816 101.958 108.471C101.991 108.341 102.008 108.207 102.009 108.073C102.009 107.676 101.864 107.294 101.601 106.998C101.337 106.702 100.975 106.513 100.581 106.466ZM108.034 114.099C107.708 114.1 107.388 114.191 107.11 114.362C107.925 115.141 108.774 115.888 109.656 116.602C109.759 116.374 109.812 116.127 109.812 115.877C109.812 115.644 109.766 115.412 109.677 115.197C109.587 114.981 109.456 114.785 109.291 114.62C109.126 114.455 108.93 114.324 108.714 114.235C108.499 114.145 108.268 114.099 108.034 114.099ZM111.988 115.045C113.347 115.045 114.65 114.505 115.611 113.545C116.572 112.584 117.112 111.281 117.113 109.922C117.113 108.563 116.573 107.259 115.612 106.298C114.651 105.337 113.347 104.797 111.988 104.797C110.629 104.797 109.325 105.337 108.364 106.298C107.403 107.259 106.863 108.563 106.863 109.922C106.864 111.281 107.404 112.584 108.365 113.545C109.326 114.505 110.629 115.045 111.988 115.045ZM95.5419 90.868C95.5422 90.6702 95.5034 90.4743 95.4279 90.2915C95.3524 90.1087 95.2415 89.9426 95.1018 89.8027C94.962 89.6628 94.796 89.5518 94.6133 89.476C94.4306 89.4003 94.2348 89.3613 94.037 89.3613C94.1873 90.3425 94.3714 91.312 94.5893 92.2698C94.8706 92.1589 95.1118 91.9658 95.2817 91.7158C95.4517 91.4657 95.5423 91.1703 95.5419 90.868ZM97.2059 42.1819C97.6841 42.1814 98.1424 41.9912 98.4803 41.6529C98.8182 41.3147 99.008 40.8562 99.008 40.3781C99.0076 39.9003 98.8176 39.4421 98.4797 39.1043C98.1419 38.7664 97.6837 38.5764 97.2059 38.576C96.7278 38.576 96.2693 38.7658 95.9311 39.1037C95.5928 39.4416 95.4026 39.8999 95.4021 40.3781C95.4021 40.6151 95.4488 40.8498 95.5396 41.0688C95.6304 41.2877 95.7634 41.4866 95.9311 41.6542C96.0987 41.8217 96.2978 41.9545 96.5169 42.0451C96.7359 42.1356 96.9707 42.1821 97.2077 42.1819H97.2059ZM95.7167 53.6936C95.2386 53.694 94.7803 53.8843 94.4424 54.2225C94.1044 54.5608 93.9146 55.0193 93.9146 55.4974C93.916 55.9746 94.1065 56.4318 94.4442 56.7689C94.782 57.106 95.2395 57.2955 95.7167 57.296C96.1948 57.296 96.6534 57.1062 96.9916 56.7683C97.3299 56.4304 97.5201 55.972 97.5206 55.4939C97.5196 55.0161 97.3292 54.5582 96.991 54.2207C96.6528 53.8831 96.1945 53.6936 95.7167 53.6936ZM111.797 115.569C111.387 115.569 110.981 115.666 110.614 115.851C110.247 116.035 109.929 116.304 109.684 116.634C111.049 117.744 112.479 118.77 113.968 119.707C114.273 119.266 114.435 118.744 114.435 118.209C114.437 117.861 114.37 117.517 114.238 117.195C114.107 116.873 113.913 116.581 113.667 116.335C113.422 116.088 113.131 115.893 112.81 115.759C112.489 115.626 112.145 115.557 111.797 115.557V115.569ZM103.434 95.5803C103.434 94.84 103.245 94.1118 102.885 93.4649C102.525 92.818 102.006 92.2736 101.376 91.8835L101.334 91.8573C100.656 91.4457 99.8782 91.2286 99.0849 91.2298C98.1503 91.2302 97.2406 91.5314 96.4905 92.0889C95.7403 92.6464 95.1896 93.4305 94.9197 94.3253C95.3041 95.9123 95.7952 97.4715 96.3897 98.9922C97.1565 99.6 98.1065 99.9302 99.0849 99.9291C99.6566 99.9284 100.223 99.815 100.75 99.5954C101.278 99.3758 101.758 99.0543 102.161 98.6492C102.564 98.2442 102.884 97.7636 103.101 97.2349C103.319 96.7062 103.43 96.1398 103.428 95.5681L103.434 95.5803ZM94.9127 68.8042L94.9616 68.8357C95.6089 69.2278 96.3513 69.4346 97.1081 69.4334C98.2087 69.433 99.2642 68.9954 100.042 68.217C100.82 67.4385 101.258 66.3829 101.258 65.2822C101.258 64.7371 101.151 64.1973 100.942 63.6937C100.734 63.19 100.428 62.7324 100.043 62.3469C99.6575 61.9614 99.2 61.6556 98.6964 61.4469C98.1929 61.2383 97.6531 61.1309 97.1081 61.1309C96.0071 61.1309 94.9512 61.5683 94.1727 62.3468C93.3942 63.1253 92.9568 64.1812 92.9568 65.2822C92.9582 65.9845 93.1379 66.675 93.4791 67.2889C93.8203 67.9027 94.3118 68.4199 94.9075 68.792L94.9127 68.8042ZM94.9669 49.8814C95.5705 49.8786 96.1484 49.6369 96.5743 49.2091C97.0001 48.7813 97.2392 48.2023 97.2391 47.5986C97.2391 47.15 97.1064 46.7115 96.8575 46.3382C96.6087 45.9649 96.2549 45.6737 95.8408 45.5012C95.5601 45.3842 95.2588 45.3247 94.9546 45.3264C94.3492 45.3264 93.7686 45.5669 93.3405 45.995C92.9124 46.4231 92.6719 47.0037 92.6719 47.6091C92.6779 48.2118 92.922 48.7877 93.351 49.2111C93.7799 49.6345 94.3589 49.871 94.9616 49.8692L94.9669 49.8814ZM167.818 106.977C166.882 106.977 165.984 107.348 165.322 108.01C164.66 108.672 164.287 109.57 164.287 110.506C164.287 111.339 164.582 112.145 165.12 112.782C165.657 113.419 166.402 113.845 167.223 113.986C168.652 112.589 169.983 111.095 171.205 109.515C170.993 108.779 170.547 108.133 169.935 107.673C169.323 107.213 168.578 106.964 167.813 106.964L167.818 106.977ZM172.201 97.9138C170.842 97.9143 169.538 98.4548 168.576 99.4165C167.615 100.378 167.075 101.682 167.075 103.042C167.075 103.208 167.075 103.372 167.099 103.535C166.969 102.282 166.379 101.121 165.443 100.278C164.506 99.4346 163.291 98.9684 162.03 98.9695C160.681 98.9695 159.387 99.5056 158.433 100.46C157.478 101.414 156.942 102.708 156.942 104.058C156.942 104.726 157.074 105.388 157.329 106.005C157.585 106.623 157.959 107.184 158.432 107.657C158.904 108.129 159.465 108.504 160.083 108.76C160.7 109.016 161.362 109.148 162.03 109.148C163.38 109.148 164.675 108.611 165.63 107.657C166.584 106.702 167.12 105.408 167.12 104.058C167.12 103.892 167.12 103.729 167.096 103.568C167.226 104.83 167.82 105.999 168.762 106.849C169.704 107.698 170.928 108.169 172.196 108.169C173.925 105.745 175.4 103.15 176.597 100.424C176.146 99.6575 175.503 99.0219 174.731 98.5797C173.959 98.1375 173.086 97.9037 172.196 97.9016L172.201 97.9138ZM173.775 87.5662C172.395 87.5662 171.072 88.1142 170.096 89.0898C169.121 90.0653 168.573 91.3884 168.573 92.768C168.573 94.1476 169.121 95.4706 170.096 96.4462C171.072 97.4217 172.395 97.9697 173.775 97.9697C174.458 97.97 175.134 97.8356 175.766 97.5742C176.397 97.3129 176.97 96.9298 177.453 96.4467C177.936 95.9636 178.32 95.3901 178.581 94.7589C178.842 94.1277 178.977 93.4511 178.976 92.768C178.978 92.0832 178.845 91.4048 178.584 90.7717C178.323 90.1386 177.939 89.5633 177.455 89.0789C176.971 88.5944 176.396 88.2103 175.764 87.9486C175.131 87.6869 174.452 87.5528 173.768 87.554L173.775 87.5662ZM180.242 82.7752C179.878 82.6193 179.487 82.5374 179.092 82.534C178.299 82.534 177.54 82.8487 176.979 83.4089C176.419 83.9691 176.105 84.7289 176.105 85.5212C176.104 85.9139 176.181 86.3029 176.33 86.6659C176.48 87.0289 176.7 87.3589 176.978 87.6368C177.255 87.9147 177.585 88.1352 177.947 88.2857C178.31 88.4361 178.699 88.5136 179.092 88.5136C179.365 88.5127 179.637 88.4745 179.899 88.4C180.119 86.6226 180.229 84.8335 180.23 83.0426C180.235 82.9482 180.231 82.8556 180.231 82.763L180.242 82.7752ZM160.316 111.35C158.971 111.35 157.682 111.884 156.731 112.835C155.781 113.785 155.247 115.074 155.247 116.419C155.246 117.09 155.38 117.755 155.638 118.375C155.179 117.339 154.429 116.458 153.479 115.84C152.529 115.222 151.42 114.893 150.286 114.893C149.517 114.893 148.756 115.044 148.046 115.338C147.335 115.632 146.69 116.063 146.146 116.607C145.602 117.15 145.171 117.796 144.877 118.506C144.582 119.216 144.431 119.978 144.431 120.747C144.43 121.608 144.619 122.458 144.986 123.238C145.352 124.017 145.886 124.706 146.549 125.254C149.828 124.515 153.008 123.393 156.025 121.913C156.101 121.529 156.14 121.138 156.14 120.747C156.141 119.972 155.987 119.205 155.689 118.49C156.152 119.525 156.948 120.375 157.949 120.906C160.591 119.441 163.072 117.704 165.351 115.723C165.186 114.503 164.581 113.386 163.652 112.579C162.722 111.772 161.531 111.331 160.3 111.338L160.316 111.35ZM136.719 119.7C135.807 119.7 134.932 120.062 134.287 120.707C133.642 121.352 133.279 122.227 133.279 123.14C133.28 123.807 133.475 124.46 133.84 125.019C134.206 125.578 134.727 126.018 135.338 126.286C135.885 126.307 136.432 126.321 136.985 126.321C137.341 126.321 137.697 126.316 138.053 126.307C138.675 126.043 139.206 125.601 139.579 125.037C139.952 124.473 140.151 123.812 140.15 123.136C140.151 122.683 140.063 122.234 139.89 121.815C139.717 121.396 139.463 121.015 139.142 120.694C138.821 120.374 138.441 120.12 138.021 119.947C137.602 119.774 137.153 119.686 136.7 119.687L136.719 119.7ZM134.793 119.065C134.793 118.838 134.748 118.612 134.661 118.402C134.574 118.192 134.446 118.001 134.286 117.84C134.125 117.679 133.934 117.552 133.724 117.465C133.513 117.378 133.288 117.333 133.061 117.333C132.601 117.333 132.16 117.515 131.835 117.84C131.51 118.165 131.327 118.606 131.327 119.065C131.327 119.525 131.509 119.966 131.835 120.291C132.16 120.616 132.601 120.799 133.061 120.799C133.52 120.799 133.961 120.616 134.286 120.291C134.61 119.965 134.793 119.525 134.793 119.065ZM131.122 124.94C130.846 124.94 130.574 125.01 130.332 125.143C130.09 125.276 129.886 125.469 129.738 125.702C130.712 125.866 131.696 125.998 132.688 126.097C132.584 125.761 132.375 125.468 132.091 125.261C131.808 125.053 131.465 124.942 131.114 124.943L131.122 124.94ZM144.305 121.133C144.305 120.836 144.246 120.541 144.132 120.267C144.017 119.993 143.85 119.744 143.639 119.534C143.428 119.325 143.178 119.159 142.903 119.046C142.628 118.934 142.333 118.877 142.036 118.878C141.74 118.878 141.446 118.936 141.172 119.05C140.898 119.163 140.649 119.329 140.439 119.539C140.229 119.749 140.063 119.998 139.949 120.272C139.836 120.546 139.778 120.84 139.778 121.136C139.778 121.735 140.016 122.31 140.439 122.733C140.863 123.157 141.437 123.395 142.036 123.395C142.333 123.395 142.627 123.337 142.901 123.223C143.175 123.11 143.424 122.944 143.634 122.734C143.844 122.524 144.011 122.275 144.124 122.001C144.238 121.727 144.296 121.433 144.296 121.136L144.305 121.133ZM143.109 123.265C142.491 123.265 141.897 123.511 141.459 123.949C141.022 124.386 140.776 124.98 140.776 125.599C140.777 125.779 140.798 125.959 140.841 126.134C142.384 125.998 143.918 125.779 145.438 125.478C145.406 124.881 145.145 124.318 144.71 123.907C144.276 123.495 143.699 123.267 143.101 123.269L143.109 123.265ZM131.087 122.495C131.087 121.515 130.698 120.575 130.005 119.882C129.312 119.189 128.372 118.799 127.392 118.799C126.706 118.8 126.034 118.991 125.45 119.352C124.867 119.713 124.395 120.229 124.089 120.843C124.411 120.163 124.578 119.419 124.576 118.667C124.577 117.803 124.357 116.953 123.936 116.198C123.516 115.443 122.91 114.808 122.175 114.353L122.121 114.32C121.33 113.841 120.423 113.589 119.499 113.591C118.154 113.591 116.865 114.125 115.914 115.075C114.964 116.026 114.43 117.315 114.43 118.66C114.43 119.144 114.499 119.626 114.636 120.091C116.775 121.383 119.022 122.487 121.351 123.389C122.529 122.928 123.493 122.044 124.055 120.911C123.824 121.403 123.705 121.94 123.706 122.484C123.704 123.154 123.886 123.813 124.23 124.388C125.908 124.905 127.616 125.318 129.345 125.625C129.875 125.293 130.312 124.832 130.615 124.285C130.919 123.738 131.078 123.123 131.079 122.498L131.087 122.495ZM170.2 88.1046C170.199 87.808 170.139 87.5146 170.025 87.241C169.91 86.9675 169.743 86.7192 169.533 86.5103C169.322 86.3014 169.072 86.136 168.798 86.0236C168.524 85.9111 168.23 85.8539 167.933 85.855C167.636 85.8548 167.343 85.913 167.069 86.0264C166.795 86.1398 166.545 86.3062 166.336 86.5159C166.126 86.7257 165.96 86.9747 165.846 87.2488C165.733 87.5229 165.675 87.8167 165.675 88.1133C165.675 88.7122 165.913 89.2866 166.336 89.7101C166.76 90.1337 167.334 90.3716 167.933 90.3716C168.23 90.3714 168.524 90.3126 168.798 90.1987C169.072 90.0848 169.322 89.918 169.531 89.7078C169.741 89.4976 169.907 89.2481 170.021 88.9736C170.134 88.6991 170.192 88.405 170.191 88.1081L170.2 88.1046ZM160.936 54.9626C160.936 54.9626 160.936 54.9748 160.936 54.9818C160.718 55.5811 160.607 56.2142 160.608 56.852C160.608 58.3021 161.184 59.6928 162.209 60.7181C163.234 61.7434 164.625 62.3195 166.075 62.3195C167.495 62.3169 168.858 61.7617 169.876 60.7715C170.893 59.7813 171.485 58.4339 171.527 57.0146C170.01 55.0042 168.321 53.1298 166.479 51.4126C166.343 51.4021 166.204 51.3951 166.063 51.3951C164.945 51.3943 163.854 51.7362 162.936 52.3747C162.019 53.0132 161.319 53.9176 160.931 54.9661L160.936 54.9626ZM174.395 64.6057C174.936 64.6062 175.465 64.4416 175.911 64.1338C175.133 62.5374 174.257 60.9904 173.289 59.5019C172.821 59.7131 172.423 60.0548 172.144 60.486C171.865 60.9172 171.716 61.4196 171.716 61.9332C171.715 62.2839 171.783 62.6314 171.917 62.9557C172.05 63.28 172.247 63.5748 172.494 63.8233C172.742 64.0718 173.036 64.2691 173.359 64.4039C173.683 64.5388 174.03 64.6086 174.381 64.6092L174.395 64.6057ZM146.57 44.8439C146.981 44.8439 147.387 44.7631 147.766 44.606C148.145 44.449 148.49 44.2188 148.78 43.9286C149.07 43.6384 149.301 43.2939 149.458 42.9147C149.615 42.5355 149.695 42.1291 149.695 41.7187C149.695 41.7047 149.695 41.6907 149.695 41.6767C147.76 41.0826 145.784 40.6259 143.784 40.3099C143.562 40.7462 143.446 41.229 143.447 41.7187C143.447 42.5473 143.776 43.3419 144.361 43.928C144.947 44.514 145.742 44.8435 146.57 44.8439ZM161.366 52.7305C162.177 52.7297 162.961 52.4414 163.578 51.9167C164.196 51.3921 164.608 50.6653 164.74 49.8657C163.173 48.5534 161.516 47.3531 159.781 46.2737C159.227 46.5629 158.762 46.9985 158.438 47.5331C158.114 48.0678 157.942 48.6811 157.942 49.3063C157.942 49.756 158.031 50.2013 158.203 50.6167C158.375 51.0321 158.627 51.4096 158.945 51.7276C159.263 52.0455 159.64 52.2978 160.056 52.4698C160.471 52.6419 160.917 52.7305 161.366 52.7305ZM147.208 48.0793C147.208 48.76 147.342 49.4341 147.603 50.063C147.863 50.6919 148.245 51.2633 148.727 51.7445C149.208 52.2258 149.78 52.6075 150.409 52.8678C151.038 53.1282 151.712 53.2621 152.393 53.2619C152.568 53.2619 152.743 53.2531 152.917 53.2356H152.934C154.208 53.1009 155.386 52.4999 156.243 51.5481C157.099 50.5964 157.573 49.3614 157.573 48.0811C157.574 47.2806 157.389 46.4909 157.033 45.7739C156.677 45.057 156.159 44.4323 155.521 43.949C154.802 43.6076 154.073 43.2854 153.333 42.9824C153.022 42.9255 152.707 42.8968 152.391 42.8968C151.017 42.8977 149.7 43.4441 148.728 44.4159C147.757 45.3878 147.212 46.7054 147.212 48.0793H147.208ZM173.951 69.5366C174.59 69.5366 175.203 69.2826 175.656 68.8306C176.108 68.3786 176.362 67.7655 176.362 67.1262C176.362 66.8095 176.3 66.4959 176.179 66.2033C176.057 65.9106 175.88 65.6447 175.656 65.4207C175.432 65.1967 175.167 65.019 174.874 64.8978C174.581 64.7765 174.268 64.7141 173.951 64.7141C173.312 64.7146 172.699 64.9689 172.247 65.4212C171.795 65.8735 171.541 66.4868 171.541 67.1262C171.541 67.4434 171.604 67.7575 171.726 68.0504C171.847 68.3433 172.026 68.6093 172.25 68.8332C172.475 69.0571 172.742 69.2344 173.035 69.3551C173.328 69.4758 173.643 69.5375 173.96 69.5366H173.951ZM166.26 98.7493C166.498 98.7514 166.735 98.7063 166.955 98.6167C167.176 98.5271 167.376 98.3947 167.545 98.2272C167.715 98.0596 167.849 97.8603 167.941 97.6406C168.032 97.4209 168.08 97.1853 168.08 96.9472C168.08 96.4688 167.89 96.01 167.552 95.6717C167.213 95.3334 166.755 95.1434 166.276 95.1434C165.798 95.1438 165.34 95.3341 165.002 95.6723C164.664 96.0105 164.474 96.4691 164.474 96.9472C164.474 97.4235 164.663 97.8803 164.999 98.2179C165.335 98.5555 165.791 98.7465 166.267 98.7493H166.26ZM162.176 96.713C163.127 96.713 164.039 96.3351 164.712 95.6625C165.384 94.9898 165.762 94.0775 165.762 93.1263C165.762 92.1749 165.384 91.2624 164.712 90.5895C164.039 89.9166 163.127 89.5383 162.176 89.5378C161.607 89.5376 161.046 89.6731 160.54 89.933C160.033 90.1929 159.597 90.5697 159.265 91.0323C159.069 91.5788 158.855 92.1166 158.622 92.6456C158.6 92.8049 158.588 92.9655 158.587 93.1263C158.587 93.598 158.681 94.065 158.861 94.5006C159.042 94.9362 159.307 95.3319 159.641 95.665C159.975 95.9982 160.371 96.2622 160.808 96.442C161.244 96.6218 161.711 96.7139 162.183 96.713H162.176ZM178.066 69.5069C177.773 68.6189 177.453 67.745 177.106 66.885C176.907 67.1707 176.801 67.5106 176.802 67.8586C176.803 68.2348 176.928 68.6002 177.158 68.8981C177.388 69.1961 177.709 69.41 178.073 69.5069H178.066ZM158.9 97.8351C158.9 97.3082 158.692 96.8027 158.321 96.4278C157.951 96.0529 157.448 95.8389 156.921 95.832C156.337 96.7494 155.69 97.6254 154.985 98.4539C155.114 98.8592 155.368 99.213 155.711 99.4643C156.054 99.7156 156.468 99.8515 156.893 99.8522C157.158 99.8522 157.42 99.8 157.664 99.6985C157.908 99.597 158.129 99.4482 158.316 99.2608C158.502 99.0734 158.65 98.8509 158.75 98.6062C158.85 98.3616 158.901 98.0995 158.9 97.8351ZM172.831 87.6047C173.738 87.6047 174.609 87.2441 175.251 86.6023C175.893 85.9604 176.253 85.0899 176.253 84.1823C176.253 83.2746 175.893 82.4041 175.251 81.7623C174.609 81.1204 173.738 80.7599 172.831 80.7599C171.923 80.7599 171.053 81.1204 170.411 81.7623C169.769 82.4041 169.408 83.2746 169.408 84.1823C169.408 84.6316 169.497 85.0766 169.669 85.4917C169.841 85.9068 170.093 86.284 170.411 86.6016C170.729 86.9193 171.106 87.1712 171.521 87.343C171.936 87.5148 172.381 87.6031 172.831 87.6029V87.6047ZM104.766 62.0084C105.369 62.0056 105.947 61.7639 106.373 61.3361C106.799 60.9083 107.038 60.3292 107.038 59.7256C107.038 59.277 106.905 58.8384 106.656 58.4652C106.407 58.0919 106.054 57.8007 105.64 57.6281C105.359 57.5111 105.057 57.4517 104.753 57.4533C104.15 57.4533 103.571 57.6924 103.143 58.1182C102.715 58.5441 102.473 59.122 102.471 59.7256C102.471 60.0264 102.53 60.3242 102.646 60.602C102.761 60.8798 102.93 61.132 103.144 61.3441C103.357 61.5562 103.61 61.7241 103.888 61.8381C104.167 61.9521 104.465 62.01 104.766 62.0084ZM108.284 64.6092C108.284 65.0773 108.376 65.5407 108.555 65.9731C108.735 66.4055 108.997 66.7984 109.328 67.1294C109.659 67.4603 110.052 67.7228 110.484 67.9019C110.917 68.081 111.38 68.1732 111.848 68.1732C112.574 68.1731 113.283 67.9513 113.88 67.5374C114.477 67.1236 114.934 66.5374 115.188 65.8572L115.225 65.7541C115.35 65.3852 115.413 64.9986 115.414 64.6092C115.414 64.1411 115.322 63.6775 115.142 63.245C114.963 62.8124 114.701 62.4195 114.369 62.0885C114.038 61.7575 113.645 61.4951 113.213 61.3161C112.78 61.1371 112.316 61.045 111.848 61.0453C110.903 61.0453 109.996 61.4208 109.328 62.0891C108.66 62.7575 108.284 63.664 108.284 64.6092ZM106.615 42.4965C107.261 42.4973 107.892 42.3007 108.423 41.933C108.954 41.5653 109.36 41.0441 109.586 40.4392C109.599 40.4078 109.609 40.3763 109.62 40.3466C109.733 40.0193 109.792 39.6757 109.794 39.3293C109.794 38.4893 109.461 37.6837 108.867 37.0898C108.273 36.4958 107.467 36.1621 106.627 36.1621C105.787 36.1621 104.982 36.4958 104.388 37.0898C103.794 37.6837 103.46 38.4893 103.46 39.3293C103.46 40.1672 103.792 40.9709 104.383 41.5645C104.975 42.1582 105.777 42.4933 106.615 42.4965ZM106.615 54.1218C107.341 54.1214 108.05 53.8994 108.646 53.4856C109.243 53.0717 109.699 52.4857 109.953 51.8058L109.99 51.701C110.115 51.3327 110.178 50.9466 110.179 50.5578C110.179 49.6126 109.803 48.7061 109.135 48.0377C108.467 47.3694 107.56 46.9939 106.615 46.9939C105.671 46.9957 104.766 47.372 104.099 48.0402C103.432 48.7084 103.058 49.6138 103.058 50.5578C103.058 51.5019 103.432 52.4073 104.099 53.0755C104.766 53.7437 105.671 54.12 106.615 54.1218ZM100.656 46.5901C101.134 46.5901 101.593 46.4003 101.931 46.0624C102.269 45.7245 102.46 45.2661 102.46 44.788C102.46 44.3096 102.27 43.8508 101.932 43.5125C101.594 43.1742 101.135 42.9842 100.656 42.9842C100.18 42.9869 99.7236 43.1782 99.3876 43.5162C99.0516 43.8542 98.8629 44.3114 98.863 44.788C98.8634 45.2643 99.0522 45.7211 99.3882 46.0587C99.7242 46.3963 100.18 46.5873 100.656 46.5901ZM113.916 46.4153L113.965 46.4468C114.612 46.8378 115.355 47.0439 116.111 47.0428C117.212 47.0428 118.267 46.6056 119.045 45.8274C119.824 45.0493 120.261 43.9938 120.261 42.8933C120.261 42.3482 120.154 41.8084 119.945 41.3048C119.737 40.8011 119.431 40.3435 119.046 39.958C118.661 39.5725 118.203 39.2667 117.7 39.058C117.196 38.8494 116.656 38.742 116.111 38.742C115.01 38.742 113.954 39.1794 113.176 39.9579C112.397 40.7364 111.96 41.7923 111.96 42.8933C111.96 43.5985 112.139 44.2921 112.481 44.9087C112.823 45.5253 113.317 46.0444 113.916 46.4171V46.4153ZM123.683 39.969C124.161 39.9686 124.62 39.7783 124.958 39.4401C125.295 39.1019 125.485 38.6433 125.485 38.1652C125.485 37.6874 125.295 37.2293 124.957 36.8915C124.619 36.5536 124.161 36.3636 123.683 36.3631C123.205 36.3631 122.747 36.5529 122.408 36.8908C122.07 37.2287 121.88 37.6871 121.879 38.1652C121.879 38.6436 122.069 39.1024 122.408 39.4407C122.746 39.779 123.205 39.969 123.683 39.969ZM138.366 44.8527C139.264 44.8527 140.125 44.496 140.76 43.861C141.395 43.2261 141.751 42.3649 141.751 41.467C141.751 40.9306 141.623 40.4021 141.377 39.9253C140.185 39.8251 138.979 39.7744 137.759 39.7733C136.967 39.7733 136.18 39.7948 135.398 39.8379C135.123 40.337 134.979 40.8974 134.98 41.467C134.98 42.3649 135.337 43.2261 135.972 43.861C136.606 44.496 137.468 44.8527 138.366 44.8527ZM128.927 41.1087C129.405 41.1087 129.864 40.9186 130.202 40.5803C130.541 40.2421 130.731 39.7832 130.731 39.3048C130.732 39.0674 130.686 38.8321 130.595 38.6124C130.505 38.3927 130.372 38.1931 130.205 38.0248C130.037 37.8566 129.838 37.7231 129.619 37.632C129.399 37.5409 129.164 37.494 128.927 37.494C128.449 37.4945 127.991 37.6845 127.653 38.0223C127.315 38.3602 127.125 38.8183 127.125 39.2961C127.124 39.5336 127.169 39.7689 127.259 39.9887C127.349 40.2084 127.482 40.4082 127.649 40.5766C127.817 40.745 128.016 40.8787 128.235 40.97C128.454 41.0613 128.689 41.1084 128.927 41.1087ZM130.278 53.4716C131.798 53.4716 133.256 52.8678 134.331 51.7929C135.406 50.7181 136.009 49.2603 136.009 47.7402C136.009 46.22 135.406 44.762 134.331 43.6869C133.256 42.6118 131.798 42.0076 130.278 42.0071C128.758 42.0076 127.3 42.6117 126.225 43.6868C125.15 44.7619 124.545 46.2198 124.545 47.7402C124.548 49.2598 125.154 50.7162 126.23 51.7892C127.306 52.8623 128.764 53.4642 130.283 53.4629L130.278 53.4716ZM136.647 51.0245C136.647 51.7278 136.784 52.4244 137.051 53.0748L137.067 53.1168C137.478 54.0999 138.171 54.9396 139.058 55.5305C139.945 56.1213 140.986 56.437 142.052 56.4378C142.763 56.4376 143.466 56.2972 144.122 56.0247C144.779 55.7523 145.375 55.353 145.877 54.8499C146.379 54.3468 146.776 53.7496 147.047 53.0926C147.318 52.4356 147.456 51.7317 147.455 51.021C147.455 50.3112 147.315 49.6082 147.044 48.9523C146.772 48.2964 146.374 47.7004 145.872 47.1983C145.37 46.6963 144.775 46.298 144.119 46.0263C143.463 45.7546 142.76 45.6148 142.05 45.6148C140.618 45.6166 139.245 46.1871 138.232 47.2008C137.22 48.2145 136.652 49.5886 136.653 51.021L136.647 51.0245ZM121.79 47.4169C122.268 47.4164 122.726 47.2264 123.064 46.8885C123.402 46.5507 123.592 46.0926 123.592 45.6148C123.592 45.1367 123.403 44.6781 123.065 44.3399C122.727 44.0016 122.268 43.8114 121.79 43.8109C121.312 43.8109 120.853 44.001 120.515 44.3393C120.176 44.6776 119.986 45.1364 119.986 45.6148C119.987 45.8517 120.034 46.0861 120.126 46.3047C120.217 46.5233 120.35 46.7217 120.518 46.8887C120.686 47.0558 120.886 47.1881 121.105 47.2781C121.324 47.3681 121.559 47.4141 121.795 47.4134L121.79 47.4169Z" fill="url(#paint41_linear_116_9289)"/>
<defs>
<linearGradient id="paint0_linear_116_9289" x1="9.17072" y1="71.683" x2="82.3168" y2="126.613" gradientUnits="userSpaceOnUse">
<stop offset="0.07" stop-color="#F1553B"/>
<stop offset="0.41" stop-color="#C6D92D"/>
<stop offset="0.74" stop-color="#2DA44E"/>
<stop offset="1" stop-color="#20A049"/>
</linearGradient>
<linearGradient id="paint1_linear_116_9289" x1="34.8347" y1="37.1619" x2="79.8096" y2="70.9354" gradientUnits="userSpaceOnUse">
<stop offset="0.07" stop-color="#F1553B"/>
<stop offset="0.41" stop-color="#C6D92D"/>
<stop offset="0.74" stop-color="#2DA44E"/>
<stop offset="1" stop-color="#20A049"/>
</linearGradient>
<linearGradient id="paint2_linear_116_9289" x1="18.6392" y1="13.3366" x2="20.1302" y2="14.0131" gradientUnits="userSpaceOnUse">
<stop stop-color="#34A851"/>
<stop offset="0.68" stop-color="#33A850"/>
<stop offset="1" stop-color="#20A049"/>
</linearGradient>
<linearGradient id="paint3_linear_116_9289" x1="6.98612" y1="10.8662" x2="22.2226" y2="17.7809" gradientUnits="userSpaceOnUse">
<stop stop-color="#CBDB2A"/>
<stop offset="0.11" stop-color="#A6CE30"/>
<stop offset="0.32" stop-color="#68B93B"/>
<stop offset="0.5" stop-color="#3BA942"/>
<stop offset="0.64" stop-color="#1FA047"/>
<stop offset="0.72" stop-color="#159C49"/>
<stop offset="1" stop-color="#0D4C28"/>
</linearGradient>
<linearGradient id="paint4_linear_116_9289" x1="15.9526" y1="15.8468" x2="16.6221" y2="15.8468" gradientUnits="userSpaceOnUse">
<stop stop-color="#34A851"/>
<stop offset="0.68" stop-color="#33A850"/>
<stop offset="1" stop-color="#20A049"/>
</linearGradient>
<linearGradient id="paint5_linear_116_9289" x1="15.7134" y1="12.3468" x2="16.3828" y2="12.3468" gradientUnits="userSpaceOnUse">
<stop stop-color="#34A851"/>
<stop offset="0.68" stop-color="#33A850"/>
<stop offset="1" stop-color="#20A049"/>
</linearGradient>
<linearGradient id="paint6_linear_116_9289" x1="16.9894" y1="8.19451" x2="18.2794" y2="23.3541" gradientUnits="userSpaceOnUse">
<stop stop-color="#34A851"/>
<stop offset="0.68" stop-color="#33A850"/>
<stop offset="1" stop-color="#20A049"/>
</linearGradient>
<linearGradient id="paint7_linear_116_9289" x1="14.3834" y1="8.41616" x2="15.6734" y2="23.574" gradientUnits="userSpaceOnUse">
<stop stop-color="#34A851"/>
<stop offset="0.68" stop-color="#33A850"/>
<stop offset="1" stop-color="#20A049"/>
</linearGradient>
<linearGradient id="paint8_linear_116_9289" x1="13.0026" y1="8.53377" x2="14.2926" y2="23.6933" gradientUnits="userSpaceOnUse">
<stop stop-color="#34A851"/>
<stop offset="0.68" stop-color="#33A850"/>
<stop offset="1" stop-color="#20A049"/>
</linearGradient>
<linearGradient id="paint9_linear_116_9289" x1="14.7627" y1="8.3844" x2="16.0527" y2="23.5422" gradientUnits="userSpaceOnUse">
<stop stop-color="#34A851"/>
<stop offset="0.68" stop-color="#33A850"/>
<stop offset="1" stop-color="#20A049"/>
</linearGradient>
<linearGradient id="paint10_linear_116_9289" x1="15.8077" y1="8.29582" x2="17.0976" y2="23.4536" gradientUnits="userSpaceOnUse">
<stop stop-color="#34A851"/>
<stop offset="0.68" stop-color="#33A850"/>
<stop offset="1" stop-color="#20A049"/>
</linearGradient>
<linearGradient id="paint11_linear_116_9289" x1="17.9036" y1="8.11754" x2="19.1935" y2="23.2754" gradientUnits="userSpaceOnUse">
<stop stop-color="#34A851"/>
<stop offset="0.68" stop-color="#33A850"/>
<stop offset="1" stop-color="#20A049"/>
</linearGradient>
<linearGradient id="paint12_linear_116_9289" x1="17.304" y1="8.16806" x2="18.5939" y2="23.3259" gradientUnits="userSpaceOnUse">
<stop stop-color="#34A851"/>
<stop offset="0.68" stop-color="#33A850"/>
<stop offset="1" stop-color="#20A049"/>
</linearGradient>
<linearGradient id="paint13_linear_116_9289" x1="15.1941" y1="8.34787" x2="16.484" y2="23.5057" gradientUnits="userSpaceOnUse">
<stop stop-color="#34A851"/>
<stop offset="0.68" stop-color="#33A850"/>
<stop offset="1" stop-color="#20A049"/>
</linearGradient>
<linearGradient id="paint14_linear_116_9289" x1="16.6802" y1="8.22059" x2="17.9702" y2="23.3802" gradientUnits="userSpaceOnUse">
<stop stop-color="#34A851"/>
<stop offset="0.68" stop-color="#33A850"/>
<stop offset="1" stop-color="#20A049"/>
</linearGradient>
<linearGradient id="paint15_linear_116_9289" x1="14.7452" y1="8.38433" x2="16.0352" y2="23.5439" gradientUnits="userSpaceOnUse">
<stop stop-color="#34A851"/>
<stop offset="0.68" stop-color="#33A850"/>
<stop offset="1" stop-color="#20A049"/>
</linearGradient>
<linearGradient id="paint16_linear_116_9289" x1="12.1145" y1="8.60886" x2="13.4026" y2="23.7684" gradientUnits="userSpaceOnUse">
<stop stop-color="#34A851"/>
<stop offset="0.68" stop-color="#33A850"/>
<stop offset="1" stop-color="#20A049"/>
</linearGradient>
<linearGradient id="paint17_linear_116_9289" x1="13.2874" y1="8.50857" x2="14.5773" y2="23.6681" gradientUnits="userSpaceOnUse">
<stop stop-color="#34A851"/>
<stop offset="0.68" stop-color="#33A850"/>
<stop offset="1" stop-color="#20A049"/>
</linearGradient>
<linearGradient id="paint18_linear_116_9289" x1="15.1364" y1="8.35179" x2="16.4264" y2="23.5114" gradientUnits="userSpaceOnUse">
<stop stop-color="#CBDB2A"/>
<stop offset="0.07" stop-color="#BCD62D"/>
<stop offset="0.39" stop-color="#7EC23B"/>
<stop offset="0.67" stop-color="#51B345"/>
<stop offset="0.88" stop-color="#35AA4B"/>
<stop offset="1" stop-color="#2BA74D"/>
</linearGradient>
<linearGradient id="paint19_linear_116_9289" x1="13.7364" y1="8.47077" x2="15.0264" y2="23.6303" gradientUnits="userSpaceOnUse">
<stop stop-color="#34A851"/>
<stop offset="0.68" stop-color="#33A850"/>
<stop offset="1" stop-color="#20A049"/>
</linearGradient>
<linearGradient id="paint20_linear_116_9289" x1="19.6149" y1="7.97027" x2="20.9031" y2="23.1298" gradientUnits="userSpaceOnUse">
<stop stop-color="#34A851"/>
<stop offset="0.68" stop-color="#33A850"/>
<stop offset="1" stop-color="#20A049"/>
</linearGradient>
<linearGradient id="paint21_linear_116_9289" x1="18.8979" y1="11.0943" x2="19.452" y2="11.0943" gradientUnits="userSpaceOnUse">
<stop stop-color="#34A851"/>
<stop offset="0.68" stop-color="#33A850"/>
<stop offset="1" stop-color="#20A049"/>
</linearGradient>
<linearGradient id="paint22_linear_116_9289" x1="18.068" y1="22.9785" x2="15.8412" y2="39.1518" gradientUnits="userSpaceOnUse">
<stop stop-color="#34A851"/>
<stop offset="0.68" stop-color="#33A850"/>
<stop offset="1" stop-color="#20A049"/>
</linearGradient>
<linearGradient id="paint23_linear_116_9289" x1="19.3633" y1="23.1574" x2="17.1365" y2="39.3307" gradientUnits="userSpaceOnUse">
<stop stop-color="#34A851"/>
<stop offset="0.68" stop-color="#33A850"/>
<stop offset="1" stop-color="#20A049"/>
</linearGradient>
<linearGradient id="paint24_linear_116_9289" x1="16.6521" y1="22.7835" x2="14.4253" y2="38.9587" gradientUnits="userSpaceOnUse">
<stop stop-color="#34A851"/>
<stop offset="0.68" stop-color="#33A850"/>
<stop offset="1" stop-color="#20A049"/>
</linearGradient>
<linearGradient id="paint25_linear_116_9289" x1="15.1753" y1="22.5808" x2="12.9483" y2="38.7542" gradientUnits="userSpaceOnUse">
<stop stop-color="#34A851"/>
<stop offset="0.68" stop-color="#33A850"/>
<stop offset="1" stop-color="#20A049"/>
</linearGradient>
<linearGradient id="paint26_linear_116_9289" x1="16.965" y1="22.8266" x2="14.7365" y2="39" gradientUnits="userSpaceOnUse">
<stop stop-color="#34A851"/>
<stop offset="0.68" stop-color="#33A850"/>
<stop offset="1" stop-color="#20A049"/>
</linearGradient>
<linearGradient id="paint27_linear_116_9289" x1="18.0875" y1="22.981" x2="15.8606" y2="39.1561" gradientUnits="userSpaceOnUse">
<stop stop-color="#34A851"/>
<stop offset="0.68" stop-color="#33A850"/>
<stop offset="1" stop-color="#20A049"/>
</linearGradient>
<linearGradient id="paint28_linear_116_9289" x1="20.3649" y1="23.2932" x2="18.1363" y2="39.4683" gradientUnits="userSpaceOnUse">
<stop stop-color="#34A851"/>
<stop offset="0.68" stop-color="#33A850"/>
<stop offset="1" stop-color="#20A049"/>
</linearGradient>
<linearGradient id="paint29_linear_116_9289" x1="19.6097" y1="23.1905" x2="17.3829" y2="39.3657" gradientUnits="userSpaceOnUse">
<stop stop-color="#34A851"/>
<stop offset="0.68" stop-color="#33A850"/>
<stop offset="1" stop-color="#20A049"/>
</linearGradient>
<linearGradient id="paint30_linear_116_9289" x1="17.5106" y1="22.9018" x2="15.2838" y2="39.0751" gradientUnits="userSpaceOnUse">
<stop stop-color="#34A851"/>
<stop offset="0.68" stop-color="#33A850"/>
<stop offset="1" stop-color="#20A049"/>
</linearGradient>
<linearGradient id="paint31_linear_116_9289" x1="18.8039" y1="23.08" x2="16.5771" y2="39.2534" gradientUnits="userSpaceOnUse">
<stop stop-color="#34A851"/>
<stop offset="0.68" stop-color="#33A850"/>
<stop offset="1" stop-color="#20A049"/>
</linearGradient>
<linearGradient id="paint32_linear_116_9289" x1="16.8414" y1="22.8092" x2="14.6146" y2="38.9843" gradientUnits="userSpaceOnUse">
<stop stop-color="#34A851"/>
<stop offset="0.68" stop-color="#33A850"/>
<stop offset="1" stop-color="#20A049"/>
</linearGradient>
<linearGradient id="paint33_linear_116_9289" x1="14.2612" y1="22.4544" x2="12.0344" y2="38.6277" gradientUnits="userSpaceOnUse">
<stop stop-color="#34A851"/>
<stop offset="0.68" stop-color="#33A850"/>
<stop offset="1" stop-color="#20A049"/>
</linearGradient>
<linearGradient id="paint34_linear_116_9289" x1="15.4482" y1="22.6176" x2="13.2214" y2="38.7927" gradientUnits="userSpaceOnUse">
<stop stop-color="#34A851"/>
<stop offset="0.68" stop-color="#33A850"/>
<stop offset="1" stop-color="#20A049"/>
</linearGradient>
<linearGradient id="paint35_linear_116_9289" x1="17.2991" y1="22.8723" x2="15.0723" y2="39.0474" gradientUnits="userSpaceOnUse">
<stop stop-color="#34A851"/>
<stop offset="0.68" stop-color="#33A850"/>
<stop offset="1" stop-color="#20A049"/>
</linearGradient>
<linearGradient id="paint36_linear_116_9289" x1="15.8485" y1="22.6729" x2="13.6216" y2="38.8462" gradientUnits="userSpaceOnUse">
<stop stop-color="#34A851"/>
<stop offset="0.68" stop-color="#33A850"/>
<stop offset="1" stop-color="#20A049"/>
</linearGradient>
<linearGradient id="paint37_linear_116_9289" x1="21.8208" y1="23.4949" x2="19.5939" y2="39.67" gradientUnits="userSpaceOnUse">
<stop stop-color="#34A851"/>
<stop offset="0.68" stop-color="#33A850"/>
<stop offset="1" stop-color="#20A049"/>
</linearGradient>
<linearGradient id="paint38_linear_116_9289" x1="21.2232" y1="23.412" x2="18.9964" y2="39.5871" gradientUnits="userSpaceOnUse">
<stop stop-color="#34A851"/>
<stop offset="0.68" stop-color="#33A850"/>
<stop offset="1" stop-color="#20A049"/>
</linearGradient>
<linearGradient id="paint39_linear_116_9289" x1="31.6946" y1="11.54" x2="12.3697" y2="33.6161" gradientUnits="userSpaceOnUse">
<stop stop-color="#34A851"/>
<stop offset="0.68" stop-color="#33A850"/>
<stop offset="1" stop-color="#20A049"/>
</linearGradient>
<linearGradient id="paint40_linear_116_9289" x1="25.0664" y1="17.7501" x2="15.9616" y2="28.1484" gradientUnits="userSpaceOnUse">
<stop stop-color="#C6D92E"/>
<stop offset="0.07" stop-color="#B1D231"/>
<stop offset="0.31" stop-color="#73BD3B"/>
<stop offset="0.51" stop-color="#46AD43"/>
<stop offset="0.67" stop-color="#2AA447"/>
<stop offset="0.75" stop-color="#20A049"/>
</linearGradient>
<linearGradient id="paint41_linear_116_9289" x1="86.3165" y1="68.729" x2="186.484" y2="97.0346" gradientUnits="userSpaceOnUse">
<stop offset="0.05" stop-color="#EB4335"/>
<stop offset="0.38" stop-color="#C6D92D"/>
<stop offset="0.68" stop-color="#33A850"/>
<stop offset="1" stop-color="#20A049"/>
</linearGradient>
</defs>
</svg>
