<svg width="18" height="18" viewBox="0 0 18 18" fill="none" xmlns="http://www.w3.org/2000/svg">
<path fill-rule="evenodd" clip-rule="evenodd" d="M13.4079 4.51462C13.0174 4.12831 13.1229 3.39758 13.6436 2.88249L14.5864 1.94985C15.1071 1.43476 15.8458 1.33037 16.2363 1.71669C16.6268 2.103 16.5213 2.83373 16.0006 3.34882L15.0578 4.28146C14.5371 4.79655 13.7984 4.90094 13.4079 4.51462Z" fill="#FAFAFC"/>
<path fill-rule="evenodd" clip-rule="evenodd" d="M10.0809 4.04195C9.54744 3.90055 9.26948 3.21552 9.46007 2.5119L9.80517 1.23788C9.99575 0.534264 10.5827 0.0784955 11.1162 0.219896C11.6496 0.361297 11.9276 1.04632 11.737 1.74994L11.3919 3.02396C11.2013 3.72758 10.6144 4.18335 10.0809 4.04195Z" fill="#FAFAFC"/>
<path fill-rule="evenodd" clip-rule="evenodd" d="M13.9475 7.86683C14.0904 8.39454 14.7829 8.66951 15.4942 8.48097L16.7821 8.1396C17.4934 7.95106 17.9541 7.37043 17.8112 6.84271C17.6682 6.315 16.9757 6.04004 16.2645 6.22857L14.9766 6.56994C14.2653 6.75848 13.8045 7.33911 13.9475 7.86683Z" fill="#FAFAFC"/>
<path fill-rule="evenodd" clip-rule="evenodd" d="M10.4155 13.6393C7.91715 12.3839 5.87053 10.4366 4.56512 8.06935L6.14577 7.13142C6.6412 6.83745 6.85455 6.23601 6.65346 5.70026L4.75594 0.6449C4.60383 0.239653 4.20333 -0.0209584 3.76692 0.00132501L1.63541 0.110162C1.43985 0.120147 1.25686 0.168943 1.09295 0.248185C0.480426 0.413004 0.0246618 0.936055 0.00640094 1.56716C0.00214207 1.71435 0 1.862 0 2.01008C0 2.53138 0.0265483 3.04726 0.0785173 3.55653C0.888974 11.4986 7.86641 17.7432 16.4525 17.9993C16.6008 18.0037 16.7447 17.9877 16.8813 17.954C17.4634 18.0183 17.9899 17.5673 17.9899 16.9705L17.9899 16.7529C17.9947 16.7135 17.9979 16.6735 17.9992 16.6332C18.0016 16.562 17.9984 16.4918 17.9899 16.4231L17.9899 14.4797C17.9899 13.8683 17.5847 13.3293 16.9928 13.1533L12.908 11.9391C12.3596 11.776 11.7661 11.9599 11.4095 12.4032L10.4155 13.6393Z" fill="#FAFAFC"/>
</svg>
