<svg width="71" height="50" viewBox="0 0 71 50" fill="none" xmlns="http://www.w3.org/2000/svg">
<path d="M67.3896 34.4335C67.717 32.9059 67.717 31.2691 67.3896 29.7415L70.2267 28.1047C70.5541 27.9956 70.6632 27.5591 70.5541 27.2318C69.7902 24.8312 68.5899 22.7579 66.9532 20.9029C66.7349 20.6847 66.2985 20.5756 65.9711 20.7938L63.1341 22.4306C61.9338 21.4485 60.6243 20.5756 59.0967 20.1391V16.8656C59.0967 16.4291 58.8785 16.1017 58.5511 16.1017C56.0414 15.5562 53.6408 15.5562 51.2402 16.1017C50.9129 16.1017 50.6946 16.4291 50.6946 16.8656V20.1391C49.167 20.5756 47.8576 21.4485 46.6573 22.4306L43.8202 20.7938C43.4929 20.5756 43.0564 20.6847 42.8382 20.9029C41.2014 22.7579 39.892 24.8312 39.2373 27.2318C39.1282 27.5591 39.2373 27.9956 39.5646 28.1047L42.4017 29.7415C42.0743 31.2691 42.0743 32.9059 42.4017 34.4335L39.5646 36.0703C39.2373 36.1794 39.1282 36.6159 39.2373 36.9432C39.892 39.3438 41.2014 41.4171 42.8382 43.2721C43.0564 43.4903 43.4929 43.5994 43.8202 43.3812L46.6573 41.7444C47.8576 42.7265 49.167 43.5994 50.6946 44.0359V47.3094C50.6946 47.7459 50.9129 48.0732 51.2402 48.0732C53.7499 48.6188 56.1505 48.6188 58.5511 48.0732C58.8785 48.0732 59.0967 47.7459 59.0967 47.3094V44.0359C60.6243 43.5994 61.9338 42.7265 63.1341 41.7444L65.9711 43.3812C66.2985 43.5994 66.7349 43.4903 66.9532 43.2721C68.5899 41.4171 69.7902 39.3438 70.5541 36.9432C70.6632 36.6159 70.5541 36.1794 70.2267 36.0703L67.3896 34.4335ZM54.9502 37.3797C52.004 37.3797 49.6035 34.9791 49.6035 32.0329C49.6035 29.1959 52.004 26.7953 54.9502 26.7953C57.7873 26.7953 60.1879 29.1959 60.1879 32.0329C60.1879 34.9791 57.7873 37.3797 54.9502 37.3797ZM11.3031 21.5576C15.1223 21.5576 18.2867 18.5023 18.2867 14.5741C18.2867 10.755 15.1223 7.59057 11.3031 7.59057C7.37491 7.59057 4.31961 10.755 4.31961 14.5741C4.31961 18.5023 7.37491 21.5576 11.3031 21.5576ZM35.7455 25.0494C35.8546 25.0494 36.0729 25.0494 36.2911 25.0494C37.164 22.6488 38.5826 20.4665 40.2193 18.6115C41.0923 17.7385 42.1835 17.1929 43.3838 17.1929C44.1476 17.1929 44.9114 17.4112 45.5661 17.7385L46.439 18.2841C46.5482 18.175 46.5482 18.175 46.6573 18.175C47.4211 16.5382 47.8576 14.7923 47.8576 12.9373C47.8576 6.17204 42.4017 0.716154 35.6364 0.716154C28.9802 0.716154 23.5243 6.17204 23.5243 12.8282C23.5243 19.5935 28.9802 25.0494 35.7455 25.0494ZM47.2029 46.3274C46.8755 46.2182 46.6573 46 46.439 45.8909C45.5661 46.4365 44.8023 46.9821 43.3838 46.9821C42.2926 46.9821 41.0923 46.4365 40.3285 45.5635C38.2552 43.3812 36.7276 40.7624 35.8546 38.0344C34.7635 34.2153 38.5826 32.5785 38.6917 32.4694C38.6917 32.2512 38.6917 31.9238 38.6917 31.7056L37.8187 31.16C37.3823 30.9418 37.0549 30.6144 36.7276 30.2871C36.4002 30.2871 36.0729 30.2871 35.7455 30.2871C33.0176 30.2871 30.5079 29.6323 28.2164 28.5412H27.3434C20.3599 28.5412 14.7949 34.2153 14.7949 41.1988V44.2541C14.7949 47.2003 17.0864 49.4918 20.0326 49.4918H47.8576C47.4211 48.8371 47.2029 48.1824 47.2029 47.3094V46.3274ZM19.7052 27.1226C18.3958 25.9223 16.6499 25.0494 14.7949 25.0494H7.81138C3.88314 25.0494 0.827847 28.2138 0.827847 32.0329V35.5247C0.827847 37.4888 2.35549 39.0165 4.31961 39.0165H11.4123C12.1761 33.8879 15.2314 29.5232 19.7052 27.1226Z" fill="#EA6B39"/>
</svg>
