<svg width="57" height="56" viewBox="0 0 57 56" fill="none" xmlns="http://www.w3.org/2000/svg">
<path d="M56.6796 14.0823V3.60704C56.6796 1.75204 55.0429 0.11527 53.1879 0.11527H42.7126C40.7485 0.11527 39.2208 1.75204 39.2208 3.60704H18.2702C18.2702 1.75204 16.6334 0.11527 14.7784 0.11527H4.30314C2.33903 0.11527 0.811378 1.75204 0.811378 3.60704V14.0823C0.811378 16.0465 2.33903 17.5741 4.30314 17.5741V38.5247C2.33903 38.5247 0.811378 40.1615 0.811378 42.0165V52.4918C0.811378 54.4559 2.33903 55.9835 4.30314 55.9835H14.7784C16.6334 55.9835 18.2702 54.4559 18.2702 52.4918H39.2208C39.2208 54.4559 40.7485 55.9835 42.7126 55.9835H53.1879C55.0429 55.9835 56.6796 54.4559 56.6796 52.4918V42.0165C56.6796 40.1615 55.0429 38.5247 53.1879 38.5247V17.5741C55.0429 17.5741 56.6796 16.0465 56.6796 14.0823ZM46.2043 7.0988H49.6961V10.5906H46.2043V7.0988ZM7.79491 7.0988H11.2867V10.5906H7.79491V7.0988ZM11.2867 49H7.79491V45.5082H11.2867V49ZM49.6961 49H46.2043V45.5082H49.6961V49ZM46.2043 38.5247H42.7126C40.7485 38.5247 39.2208 40.1615 39.2208 42.0165V45.5082H18.2702V42.0165C18.2702 40.1615 16.6334 38.5247 14.7784 38.5247H11.2867V17.5741H14.7784C16.6334 17.5741 18.2702 16.0465 18.2702 14.0823V10.5906H39.2208V14.0823C39.2208 16.0465 40.7485 17.5741 42.7126 17.5741H46.2043V38.5247Z" fill="#EA6B39"/>
</svg>
