<svg width="45" height="46" viewBox="0 0 45 46" fill="none" xmlns="http://www.w3.org/2000/svg">
<path d="M40.7812 0.625H15.4688C13.0957 0.625 11.25 2.55859 11.25 4.84375V30.1562C11.25 32.5293 13.0957 34.375 15.4688 34.375H40.7812C43.0664 34.375 45 32.5293 45 30.1562V4.84375C45 2.55859 43.0664 0.625 40.7812 0.625ZM15.4688 37.1875C11.5137 37.1875 8.4375 34.1113 8.4375 30.1562V11.875H4.21875C1.8457 11.875 0 13.8086 0 16.0938V41.4062C0 43.7793 1.8457 45.625 4.21875 45.625H29.5312C31.8164 45.625 33.75 43.7793 33.75 41.4062V37.1875H15.4688Z" fill="#CAD0D0"/>
</svg>
