<svg width="31" height="31" viewBox="0 0 31 31" fill="none" xmlns="http://www.w3.org/2000/svg">
<g clip-path="url(#clip0_149_16133)">
<path d="M28.2992 0.726562H2.80376C2.21815 0.726562 1.65652 0.959197 1.24243 1.37329C0.828337 1.78738 0.595703 2.34901 0.595703 2.93462V28.4301C0.595703 29.0157 0.828337 29.5773 1.24243 29.9914C1.65652 30.4055 2.21815 30.6381 2.80376 30.6381H28.2992C28.8848 30.6381 29.4465 30.4055 29.8605 29.9914C30.2746 29.5773 30.5073 29.0157 30.5073 28.4301V2.93462C30.5073 2.34901 30.2746 1.78738 29.8605 1.37329C29.4465 0.959197 28.8848 0.726562 28.2992 0.726562ZM9.51101 26.2075H5.01389V11.9226H9.51101V26.2075ZM7.25934 9.94306C6.74922 9.94019 6.25138 9.78627 5.82865 9.50073C5.40592 9.21519 5.07725 8.81083 4.88412 8.33867C4.69099 7.86651 4.64205 7.34773 4.74348 6.84778C4.84491 6.34784 5.09216 5.88915 5.45403 5.52959C5.81591 5.17003 6.27618 4.92573 6.77676 4.82751C7.27735 4.7293 7.79581 4.78157 8.26671 4.97773C8.73762 5.17389 9.13987 5.50514 9.42269 5.9297C9.70551 6.35425 9.85623 6.85306 9.85583 7.36319C9.86064 7.70472 9.79664 8.04373 9.66765 8.36C9.53865 8.67627 9.34731 8.96334 9.10501 9.20408C8.86271 9.44483 8.57443 9.63433 8.25733 9.76129C7.94024 9.88825 7.60083 9.95007 7.25934 9.94306ZM26.087 26.2199H21.592V18.4159C21.592 16.1144 20.6136 15.404 19.3507 15.404C18.0171 15.404 16.7085 16.4094 16.7085 18.4741V26.2199H12.2114V11.933H16.5361V13.9126H16.5942C17.0284 13.0339 18.5489 11.5321 20.8691 11.5321C23.3783 11.5321 26.0891 13.0215 26.0891 17.3836L26.087 26.2199Z" fill="#0A66C2"/>
</g>
<defs>
<clipPath id="clip0_149_16133">
<rect width="29.9116" height="29.9116" fill="white" transform="translate(0.595703 0.726562)"/>
</clipPath>
</defs>
</svg>
