<svg width="39" height="40" viewBox="0 0 39 40" fill="none" xmlns="http://www.w3.org/2000/svg">
<g clip-path="url(#clip0_149_16125)">
<path d="M38.1803 10.2807C37.961 9.45513 37.5286 8.70169 36.9265 8.09576C36.3245 7.48982 35.5738 7.05265 34.7497 6.82798C31.7159 6.01221 19.5896 6.01221 19.5896 6.01221C19.5896 6.01221 7.46329 6.01221 4.4295 6.82798C3.60539 7.05265 2.85474 7.48982 2.25267 8.09576C1.65061 8.70169 1.21825 9.45513 0.99886 10.2807C0.1875 13.3277 0.1875 19.6819 0.1875 19.6819C0.1875 19.6819 0.1875 26.0361 0.99886 29.0831C1.21825 29.9086 1.65061 30.662 2.25267 31.268C2.85474 31.8739 3.60539 32.3111 4.4295 32.5358C7.46329 33.3515 19.5896 33.3515 19.5896 33.3515C19.5896 33.3515 31.7159 33.3515 34.7497 32.5358C35.5738 32.3111 36.3245 31.8739 36.9265 31.268C37.5286 30.662 37.961 29.9086 38.1803 29.0831C38.9917 26.0361 38.9917 19.6819 38.9917 19.6819C38.9917 19.6819 38.9917 13.3277 38.1803 10.2807Z" fill="#F2F2F5"/>
<path d="M15.6221 25.4519V13.9121L25.7641 19.682L15.6221 25.4519Z" fill="#FF0302"/>
</g>
<defs>
<clipPath id="clip0_149_16125">
<rect width="38.8042" height="38.8042" fill="white" transform="translate(0.149414 0.279785)"/>
</clipPath>
</defs>
</svg>
