<svg width="26" height="25" viewBox="0 0 26 25" fill="none" xmlns="http://www.w3.org/2000/svg">
<path d="M24.1357 2.6625C23.7732 2.1375 23.3107 1.675 22.7857 1.3125C21.5982 0.45 20.0482 0 18.1857 0H7.71074C7.46074 0 7.21074 0.0125 6.97324 0.0375C2.87324 0.3 0.448242 2.9625 0.448242 7.2625V17.7375C0.448242 19.6 0.898242 21.15 1.76074 22.3375C2.12324 22.8625 2.58574 23.325 3.11074 23.6875C4.13574 24.4375 5.43574 24.875 6.97324 24.975C7.21074 24.9875 7.46074 25 7.71074 25H18.1857C22.7357 25 25.4482 22.2875 25.4482 17.7375V7.2625C25.4482 5.4 24.9982 3.85 24.1357 2.6625ZM21.3857 8.625C21.3857 9.1375 20.9607 9.5625 20.4482 9.5625C19.9357 9.5625 19.5107 9.1375 19.5107 8.625V7.15C19.5107 6.75 19.1857 6.425 18.7857 6.425H13.8857V18.575H16.1107C16.6232 18.575 17.0482 19 17.0482 19.5125C17.0482 20.025 16.6232 20.45 16.1107 20.45H9.78574C9.27324 20.45 8.84824 20.025 8.84824 19.5125C8.84824 19 9.27324 18.575 9.78574 18.575H12.0107V6.425H7.11074C6.71074 6.425 6.38574 6.75 6.38574 7.15V8.625C6.38574 9.1375 5.96074 9.5625 5.44824 9.5625C4.93574 9.5625 4.51074 9.1375 4.51074 8.625V7.15C4.51074 5.7125 5.67324 4.55 7.11074 4.55H18.7732C20.2107 4.55 21.3732 5.7125 21.3732 7.15V8.625H21.3857Z" fill="#20A049"/>
</svg>
