<svg width="24" height="26" viewBox="0 0 24 26" fill="none" xmlns="http://www.w3.org/2000/svg">
<path d="M21.3361 5.58691L13.9111 1.29941C12.6986 0.599414 11.1986 0.599414 9.97363 1.29941L2.56113 5.58691C1.34863 6.28691 0.598633 7.58691 0.598633 8.99941V17.5494C0.598633 18.9494 1.34863 20.2494 2.56113 20.9619L9.98613 25.2494C11.1986 25.9494 12.6986 25.9494 13.9236 25.2494L21.3486 20.9619C22.5611 20.2619 23.3111 18.9619 23.3111 17.5494V8.99941C23.2986 7.58691 22.5486 6.29941 21.3361 5.58691ZM14.7611 15.0244L13.4611 15.7744L12.1611 16.5244C10.4986 17.4869 9.13613 16.6994 9.13613 14.7744V13.2744V11.7744C9.13613 9.84941 10.4986 9.06191 12.1611 10.0244L13.4611 10.7744L14.7611 11.5244C16.4236 12.4869 16.4236 14.0619 14.7611 15.0244Z" fill="#20A049"/>
</svg>
