<svg width="302" height="602" viewBox="0 0 302 602" fill="none" xmlns="http://www.w3.org/2000/svg">
<g clip-path="url(#clip0_149_20090)">
<rect x="1" y="1" width="300" height="600" fill="white"/>
<path d="M1 1L301 601" stroke="#979797" stroke-opacity="0.8" stroke-linecap="square"/>
<path d="M301 1L1 601" stroke="#979797" stroke-opacity="0.8" stroke-linecap="square"/>
<rect width="89" height="53" transform="translate(106.5 274.5)" fill="white"/>
<path d="M115.52 290.156C115.6 289.601 115.755 289.116 115.984 288.7C116.214 288.279 116.499 287.929 116.84 287.652C117.187 287.369 117.582 287.159 118.024 287.02C118.472 286.876 118.952 286.804 119.464 286.804C119.998 286.804 120.478 286.881 120.904 287.036C121.336 287.185 121.704 287.396 122.008 287.668C122.312 287.935 122.544 288.249 122.704 288.612C122.87 288.975 122.952 289.367 122.952 289.788C122.952 290.156 122.91 290.481 122.824 290.764C122.744 291.041 122.627 291.284 122.472 291.492C122.318 291.7 122.126 291.876 121.896 292.02C121.667 292.164 121.408 292.284 121.12 292.38C121.814 292.599 122.331 292.932 122.672 293.38C123.014 293.828 123.184 294.391 123.184 295.068C123.184 295.644 123.078 296.153 122.864 296.596C122.651 297.039 122.363 297.412 122 297.716C121.638 298.015 121.216 298.241 120.736 298.396C120.262 298.551 119.758 298.628 119.224 298.628C118.643 298.628 118.136 298.561 117.704 298.428C117.272 298.295 116.896 298.097 116.576 297.836C116.256 297.575 115.984 297.255 115.76 296.876C115.536 296.497 115.344 296.06 115.184 295.564L116.056 295.204C116.286 295.108 116.499 295.084 116.696 295.132C116.899 295.175 117.046 295.281 117.136 295.452C117.232 295.639 117.336 295.823 117.448 296.004C117.566 296.185 117.704 296.348 117.864 296.492C118.024 296.631 118.211 296.745 118.424 296.836C118.643 296.921 118.902 296.964 119.2 296.964C119.536 296.964 119.83 296.911 120.08 296.804C120.331 296.692 120.539 296.548 120.704 296.372C120.875 296.196 121 296.001 121.08 295.788C121.166 295.569 121.208 295.351 121.208 295.132C121.208 294.855 121.179 294.604 121.12 294.38C121.062 294.151 120.939 293.956 120.752 293.796C120.566 293.636 120.296 293.511 119.944 293.42C119.598 293.329 119.131 293.284 118.544 293.284V291.876C119.03 291.871 119.432 291.825 119.752 291.74C120.072 291.655 120.326 291.537 120.512 291.388C120.704 291.233 120.838 291.049 120.912 290.836C120.987 290.623 121.024 290.388 121.024 290.132C121.024 289.588 120.872 289.175 120.568 288.892C120.264 288.609 119.859 288.468 119.352 288.468C119.118 288.468 118.902 288.503 118.704 288.572C118.507 288.636 118.328 288.729 118.168 288.852C118.014 288.969 117.883 289.108 117.776 289.268C117.67 289.428 117.59 289.604 117.536 289.796C117.446 290.041 117.326 290.204 117.176 290.284C117.032 290.364 116.827 290.383 116.56 290.34L115.52 290.156ZM132.818 292.716C132.818 293.724 132.708 294.601 132.49 295.348C132.276 296.089 131.978 296.703 131.594 297.188C131.215 297.673 130.764 298.036 130.242 298.276C129.724 298.511 129.164 298.628 128.562 298.628C127.959 298.628 127.399 298.511 126.882 298.276C126.37 298.036 125.924 297.673 125.546 297.188C125.167 296.703 124.871 296.089 124.658 295.348C124.444 294.601 124.338 293.724 124.338 292.716C124.338 291.703 124.444 290.825 124.658 290.084C124.871 289.343 125.167 288.729 125.546 288.244C125.924 287.759 126.37 287.399 126.882 287.164C127.399 286.924 127.959 286.804 128.562 286.804C129.164 286.804 129.724 286.924 130.242 287.164C130.764 287.399 131.215 287.759 131.594 288.244C131.978 288.729 132.276 289.343 132.49 290.084C132.708 290.825 132.818 291.703 132.818 292.716ZM130.778 292.716C130.778 291.879 130.716 291.185 130.594 290.636C130.471 290.087 130.306 289.649 130.098 289.324C129.895 288.999 129.66 288.772 129.394 288.644C129.127 288.511 128.85 288.444 128.562 288.444C128.279 288.444 128.004 288.511 127.738 288.644C127.476 288.772 127.244 288.999 127.042 289.324C126.839 289.649 126.676 290.087 126.554 290.636C126.436 291.185 126.378 291.879 126.378 292.716C126.378 293.553 126.436 294.247 126.554 294.796C126.676 295.345 126.839 295.783 127.042 296.108C127.244 296.433 127.476 296.663 127.738 296.796C128.004 296.924 128.279 296.988 128.562 296.988C128.85 296.988 129.127 296.924 129.394 296.796C129.66 296.663 129.895 296.433 130.098 296.108C130.306 295.783 130.471 295.345 130.594 294.796C130.716 294.247 130.778 293.553 130.778 292.716ZM142.099 292.716C142.099 293.724 141.989 294.601 141.771 295.348C141.557 296.089 141.259 296.703 140.875 297.188C140.496 297.673 140.045 298.036 139.523 298.276C139.005 298.511 138.445 298.628 137.843 298.628C137.24 298.628 136.68 298.511 136.163 298.276C135.651 298.036 135.205 297.673 134.827 297.188C134.448 296.703 134.152 296.089 133.939 295.348C133.725 294.601 133.619 293.724 133.619 292.716C133.619 291.703 133.725 290.825 133.939 290.084C134.152 289.343 134.448 288.729 134.827 288.244C135.205 287.759 135.651 287.399 136.163 287.164C136.68 286.924 137.24 286.804 137.843 286.804C138.445 286.804 139.005 286.924 139.523 287.164C140.045 287.399 140.496 287.759 140.875 288.244C141.259 288.729 141.557 289.343 141.771 290.084C141.989 290.825 142.099 291.703 142.099 292.716ZM140.059 292.716C140.059 291.879 139.997 291.185 139.875 290.636C139.752 290.087 139.587 289.649 139.379 289.324C139.176 288.999 138.941 288.772 138.675 288.644C138.408 288.511 138.131 288.444 137.843 288.444C137.56 288.444 137.285 288.511 137.019 288.644C136.757 288.772 136.525 288.999 136.323 289.324C136.12 289.649 135.957 290.087 135.835 290.636C135.717 291.185 135.659 291.879 135.659 292.716C135.659 293.553 135.717 294.247 135.835 294.796C135.957 295.345 136.12 295.783 136.323 296.108C136.525 296.433 136.757 296.663 137.019 296.796C137.285 296.924 137.56 296.988 137.843 296.988C138.131 296.988 138.408 296.924 138.675 296.796C138.941 296.663 139.176 296.433 139.379 296.108C139.587 295.783 139.752 295.345 139.875 294.796C139.997 294.247 140.059 293.553 140.059 292.716Z" fill="black" fill-opacity="0.87"/>
<path d="M155.124 298.5H153.22C153.076 298.5 152.959 298.463 152.868 298.388C152.783 298.313 152.711 298.228 152.652 298.132L150.916 295.276C150.89 295.367 150.858 295.452 150.82 295.532C150.788 295.612 150.751 295.687 150.708 295.756L149.172 298.132C149.114 298.223 149.042 298.308 148.956 298.388C148.871 298.463 148.764 298.5 148.636 298.5H146.868L149.684 294.268L146.98 290.292H148.884C149.028 290.292 149.135 290.313 149.204 290.356C149.274 290.393 149.335 290.457 149.388 290.548L151.108 293.284C151.167 293.103 151.25 292.924 151.356 292.748L152.74 290.588C152.858 290.391 153.01 290.292 153.196 290.292H155.012L152.316 294.18L155.124 298.5Z" fill="black" fill-opacity="0.87"/>
<path d="M163.676 291.132L163.276 291.628C163.5 291.516 163.74 291.431 163.996 291.372C164.257 291.308 164.537 291.276 164.836 291.276C165.273 291.276 165.697 291.348 166.108 291.492C166.524 291.636 166.889 291.855 167.204 292.148C167.519 292.436 167.772 292.796 167.964 293.228C168.156 293.66 168.252 294.164 168.252 294.74C168.252 295.279 168.153 295.785 167.956 296.26C167.759 296.729 167.481 297.14 167.124 297.492C166.767 297.844 166.335 298.121 165.828 298.324C165.327 298.527 164.772 298.628 164.164 298.628C163.545 298.628 162.991 298.529 162.5 298.332C162.009 298.135 161.591 297.86 161.244 297.508C160.897 297.151 160.631 296.724 160.444 296.228C160.263 295.727 160.172 295.172 160.172 294.564C160.172 294.02 160.281 293.463 160.5 292.892C160.724 292.316 161.068 291.719 161.532 291.1L164.292 287.396C164.388 287.268 164.527 287.159 164.708 287.068C164.895 286.977 165.108 286.932 165.348 286.932H167.108L163.676 291.132ZM164.124 297.012C164.439 297.012 164.727 296.959 164.988 296.852C165.255 296.745 165.481 296.596 165.668 296.404C165.86 296.212 166.009 295.988 166.116 295.732C166.223 295.471 166.276 295.188 166.276 294.884C166.276 294.553 166.225 294.257 166.124 293.996C166.023 293.729 165.879 293.505 165.692 293.324C165.505 293.137 165.281 292.996 165.02 292.9C164.759 292.804 164.471 292.756 164.156 292.756C163.841 292.756 163.556 292.809 163.3 292.916C163.044 293.023 162.825 293.172 162.644 293.364C162.463 293.551 162.321 293.775 162.22 294.036C162.119 294.292 162.068 294.569 162.068 294.868C162.068 295.188 162.111 295.481 162.196 295.748C162.287 296.009 162.417 296.233 162.588 296.42C162.764 296.607 162.98 296.753 163.236 296.86C163.492 296.961 163.788 297.012 164.124 297.012ZM177.661 292.716C177.661 293.724 177.552 294.601 177.333 295.348C177.12 296.089 176.821 296.703 176.437 297.188C176.059 297.673 175.608 298.036 175.085 298.276C174.568 298.511 174.008 298.628 173.405 298.628C172.803 298.628 172.243 298.511 171.725 298.276C171.213 298.036 170.768 297.673 170.389 297.188C170.011 296.703 169.715 296.089 169.501 295.348C169.288 294.601 169.181 293.724 169.181 292.716C169.181 291.703 169.288 290.825 169.501 290.084C169.715 289.343 170.011 288.729 170.389 288.244C170.768 287.759 171.213 287.399 171.725 287.164C172.243 286.924 172.803 286.804 173.405 286.804C174.008 286.804 174.568 286.924 175.085 287.164C175.608 287.399 176.059 287.759 176.437 288.244C176.821 288.729 177.12 289.343 177.333 290.084C177.552 290.825 177.661 291.703 177.661 292.716ZM175.621 292.716C175.621 291.879 175.56 291.185 175.437 290.636C175.315 290.087 175.149 289.649 174.941 289.324C174.739 288.999 174.504 288.772 174.237 288.644C173.971 288.511 173.693 288.444 173.405 288.444C173.123 288.444 172.848 288.511 172.581 288.644C172.32 288.772 172.088 288.999 171.885 289.324C171.683 289.649 171.52 290.087 171.397 290.636C171.28 291.185 171.221 291.879 171.221 292.716C171.221 293.553 171.28 294.247 171.397 294.796C171.52 295.345 171.683 295.783 171.885 296.108C172.088 296.433 172.32 296.663 172.581 296.796C172.848 296.924 173.123 296.988 173.405 296.988C173.693 296.988 173.971 296.924 174.237 296.796C174.504 296.663 174.739 296.433 174.941 296.108C175.149 295.783 175.315 295.345 175.437 294.796C175.56 294.247 175.621 293.553 175.621 292.716ZM186.943 292.716C186.943 293.724 186.833 294.601 186.615 295.348C186.401 296.089 186.103 296.703 185.719 297.188C185.34 297.673 184.889 298.036 184.367 298.276C183.849 298.511 183.289 298.628 182.687 298.628C182.084 298.628 181.524 298.511 181.007 298.276C180.495 298.036 180.049 297.673 179.671 297.188C179.292 296.703 178.996 296.089 178.783 295.348C178.569 294.601 178.463 293.724 178.463 292.716C178.463 291.703 178.569 290.825 178.783 290.084C178.996 289.343 179.292 288.729 179.671 288.244C180.049 287.759 180.495 287.399 181.007 287.164C181.524 286.924 182.084 286.804 182.687 286.804C183.289 286.804 183.849 286.924 184.367 287.164C184.889 287.399 185.34 287.759 185.719 288.244C186.103 288.729 186.401 289.343 186.615 290.084C186.833 290.825 186.943 291.703 186.943 292.716ZM184.903 292.716C184.903 291.879 184.841 291.185 184.719 290.636C184.596 290.087 184.431 289.649 184.223 289.324C184.02 288.999 183.785 288.772 183.519 288.644C183.252 288.511 182.975 288.444 182.687 288.444C182.404 288.444 182.129 288.511 181.863 288.644C181.601 288.772 181.369 288.999 181.167 289.324C180.964 289.649 180.801 290.087 180.679 290.636C180.561 291.185 180.503 291.879 180.503 292.716C180.503 293.553 180.561 294.247 180.679 294.796C180.801 295.345 180.964 295.783 181.167 296.108C181.369 296.433 181.601 296.663 181.863 296.796C182.129 296.924 182.404 296.988 182.687 296.988C182.975 296.988 183.252 296.924 183.519 296.796C183.785 296.663 184.02 296.433 184.223 296.108C184.431 295.783 184.596 295.345 184.719 294.796C184.841 294.247 184.903 293.553 184.903 292.716Z" fill="black" fill-opacity="0.87"/>
<path d="M133.91 308.902V317.5H132.746V313.588H128.108V317.5H126.944V308.902H128.108V312.736H132.746V308.902H133.91ZM138.974 314.764C138.482 314.78 138.062 314.82 137.714 314.884C137.37 314.944 137.088 315.024 136.868 315.124C136.652 315.224 136.494 315.342 136.394 315.478C136.298 315.614 136.25 315.766 136.25 315.934C136.25 316.094 136.276 316.232 136.328 316.348C136.38 316.464 136.45 316.56 136.538 316.636C136.63 316.708 136.736 316.762 136.856 316.798C136.98 316.83 137.112 316.846 137.252 316.846C137.44 316.846 137.612 316.828 137.768 316.792C137.924 316.752 138.07 316.696 138.206 316.624C138.346 316.552 138.478 316.466 138.602 316.366C138.73 316.266 138.854 316.152 138.974 316.024V314.764ZM135.524 312.28C135.86 311.956 136.222 311.714 136.61 311.554C136.998 311.394 137.428 311.314 137.9 311.314C138.24 311.314 138.542 311.37 138.806 311.482C139.07 311.594 139.292 311.75 139.472 311.95C139.652 312.15 139.788 312.392 139.88 312.676C139.972 312.96 140.018 313.272 140.018 313.612V317.5H139.544C139.44 317.5 139.36 317.484 139.304 317.452C139.248 317.416 139.204 317.348 139.172 317.248L139.052 316.672C138.892 316.82 138.736 316.952 138.584 317.068C138.432 317.18 138.272 317.276 138.104 317.356C137.936 317.432 137.756 317.49 137.564 317.53C137.376 317.574 137.166 317.596 136.934 317.596C136.698 317.596 136.476 317.564 136.268 317.5C136.06 317.432 135.878 317.332 135.722 317.2C135.57 317.068 135.448 316.902 135.356 316.702C135.268 316.498 135.224 316.258 135.224 315.982C135.224 315.742 135.29 315.512 135.422 315.292C135.554 315.068 135.768 314.87 136.064 314.698C136.36 314.526 136.746 314.386 137.222 314.278C137.698 314.166 138.282 314.102 138.974 314.086V313.612C138.974 313.14 138.872 312.784 138.668 312.544C138.464 312.3 138.166 312.178 137.774 312.178C137.51 312.178 137.288 312.212 137.108 312.28C136.932 312.344 136.778 312.418 136.646 312.502C136.518 312.582 136.406 312.656 136.31 312.724C136.218 312.788 136.126 312.82 136.034 312.82C135.962 312.82 135.9 312.802 135.848 312.766C135.796 312.726 135.752 312.678 135.716 312.622L135.524 312.28ZM142.749 308.662V317.5H141.681V308.662H142.749ZM144.877 317.5V312.334L144.205 312.256C144.121 312.236 144.051 312.206 143.995 312.166C143.943 312.122 143.917 312.06 143.917 311.98V311.542H144.877V310.954C144.877 310.606 144.925 310.298 145.021 310.03C145.121 309.758 145.261 309.53 145.441 309.346C145.625 309.158 145.845 309.016 146.101 308.92C146.357 308.824 146.645 308.776 146.965 308.776C147.237 308.776 147.487 308.816 147.715 308.896L147.691 309.43C147.683 309.526 147.629 309.578 147.529 309.586C147.433 309.594 147.303 309.598 147.139 309.598C146.955 309.598 146.787 309.622 146.635 309.67C146.487 309.718 146.359 309.796 146.251 309.904C146.143 310.012 146.059 310.154 145.999 310.33C145.943 310.506 145.915 310.724 145.915 310.984V311.542H147.667V312.316H145.951V317.5H144.877ZM154.325 313.36C154.657 313.36 154.949 313.316 155.201 313.228C155.457 313.14 155.671 313.018 155.843 312.862C156.019 312.702 156.151 312.512 156.239 312.292C156.327 312.072 156.371 311.83 156.371 311.566C156.371 311.018 156.201 310.59 155.861 310.282C155.525 309.974 155.013 309.82 154.325 309.82H152.945V313.36H154.325ZM154.325 308.902C154.869 308.902 155.341 308.966 155.741 309.094C156.145 309.218 156.479 309.396 156.743 309.628C157.007 309.86 157.203 310.14 157.331 310.468C157.463 310.796 157.529 311.162 157.529 311.566C157.529 311.966 157.459 312.332 157.319 312.664C157.179 312.996 156.973 313.282 156.701 313.522C156.433 313.762 156.099 313.95 155.699 314.086C155.303 314.218 154.845 314.284 154.325 314.284H152.945V317.5H151.787V308.902H154.325ZM161.849 314.764C161.357 314.78 160.937 314.82 160.589 314.884C160.245 314.944 159.963 315.024 159.743 315.124C159.527 315.224 159.369 315.342 159.269 315.478C159.173 315.614 159.125 315.766 159.125 315.934C159.125 316.094 159.151 316.232 159.203 316.348C159.255 316.464 159.325 316.56 159.413 316.636C159.505 316.708 159.611 316.762 159.731 316.798C159.855 316.83 159.987 316.846 160.127 316.846C160.315 316.846 160.487 316.828 160.643 316.792C160.799 316.752 160.945 316.696 161.081 316.624C161.221 316.552 161.353 316.466 161.477 316.366C161.605 316.266 161.729 316.152 161.849 316.024V314.764ZM158.399 312.28C158.735 311.956 159.097 311.714 159.485 311.554C159.873 311.394 160.303 311.314 160.775 311.314C161.115 311.314 161.417 311.37 161.681 311.482C161.945 311.594 162.167 311.75 162.347 311.95C162.527 312.15 162.663 312.392 162.755 312.676C162.847 312.96 162.893 313.272 162.893 313.612V317.5H162.419C162.315 317.5 162.235 317.484 162.179 317.452C162.123 317.416 162.079 317.348 162.047 317.248L161.927 316.672C161.767 316.82 161.611 316.952 161.459 317.068C161.307 317.18 161.147 317.276 160.979 317.356C160.811 317.432 160.631 317.49 160.439 317.53C160.251 317.574 160.041 317.596 159.809 317.596C159.573 317.596 159.351 317.564 159.143 317.5C158.935 317.432 158.753 317.332 158.597 317.2C158.445 317.068 158.323 316.902 158.231 316.702C158.143 316.498 158.099 316.258 158.099 315.982C158.099 315.742 158.165 315.512 158.297 315.292C158.429 315.068 158.643 314.87 158.939 314.698C159.235 314.526 159.621 314.386 160.097 314.278C160.573 314.166 161.157 314.102 161.849 314.086V313.612C161.849 313.14 161.747 312.784 161.543 312.544C161.339 312.3 161.041 312.178 160.649 312.178C160.385 312.178 160.163 312.212 159.983 312.28C159.807 312.344 159.653 312.418 159.521 312.502C159.393 312.582 159.281 312.656 159.185 312.724C159.093 312.788 159.001 312.82 158.909 312.82C158.837 312.82 158.775 312.802 158.723 312.766C158.671 312.726 158.627 312.678 158.591 312.622L158.399 312.28ZM166.638 314.53C166.854 314.53 167.044 314.5 167.208 314.44C167.372 314.38 167.51 314.296 167.622 314.188C167.734 314.08 167.818 313.952 167.874 313.804C167.93 313.652 167.958 313.486 167.958 313.306C167.958 312.934 167.844 312.638 167.616 312.418C167.392 312.198 167.066 312.088 166.638 312.088C166.206 312.088 165.876 312.198 165.648 312.418C165.424 312.638 165.312 312.934 165.312 313.306C165.312 313.486 165.34 313.652 165.396 313.804C165.456 313.952 165.542 314.08 165.654 314.188C165.766 314.296 165.904 314.38 166.068 314.44C166.232 314.5 166.422 314.53 166.638 314.53ZM168.564 317.83C168.564 317.682 168.522 317.562 168.438 317.47C168.354 317.378 168.24 317.306 168.096 317.254C167.956 317.202 167.792 317.166 167.604 317.146C167.416 317.122 167.216 317.104 167.004 317.092C166.796 317.08 166.584 317.068 166.368 317.056C166.152 317.044 165.944 317.024 165.744 316.996C165.52 317.1 165.336 317.232 165.192 317.392C165.052 317.548 164.982 317.732 164.982 317.944C164.982 318.08 165.016 318.206 165.084 318.322C165.156 318.442 165.264 318.544 165.408 318.628C165.552 318.716 165.732 318.784 165.948 318.832C166.168 318.884 166.426 318.91 166.722 318.91C167.01 318.91 167.268 318.884 167.496 318.832C167.724 318.78 167.916 318.706 168.072 318.61C168.232 318.514 168.354 318.4 168.438 318.268C168.522 318.136 168.564 317.99 168.564 317.83ZM169.65 311.662V312.058C169.65 312.19 169.566 312.274 169.398 312.31L168.708 312.4C168.844 312.664 168.912 312.956 168.912 313.276C168.912 313.572 168.854 313.842 168.738 314.086C168.626 314.326 168.47 314.532 168.27 314.704C168.07 314.876 167.83 315.008 167.55 315.1C167.27 315.192 166.966 315.238 166.638 315.238C166.354 315.238 166.086 315.204 165.834 315.136C165.706 315.216 165.608 315.302 165.54 315.394C165.472 315.482 165.438 315.572 165.438 315.664C165.438 315.808 165.496 315.918 165.612 315.994C165.732 316.066 165.888 316.118 166.08 316.15C166.272 316.182 166.49 316.202 166.734 316.21C166.982 316.218 167.234 316.232 167.49 316.252C167.75 316.268 168.002 316.298 168.246 316.342C168.494 316.386 168.714 316.458 168.906 316.558C169.098 316.658 169.252 316.796 169.368 316.972C169.488 317.148 169.548 317.376 169.548 317.656C169.548 317.916 169.482 318.168 169.35 318.412C169.222 318.656 169.036 318.872 168.792 319.06C168.548 319.252 168.248 319.404 167.892 319.516C167.54 319.632 167.142 319.69 166.698 319.69C166.254 319.69 165.866 319.646 165.534 319.558C165.202 319.47 164.926 319.352 164.706 319.204C164.486 319.056 164.32 318.884 164.208 318.688C164.1 318.496 164.046 318.294 164.046 318.082C164.046 317.782 164.14 317.528 164.328 317.32C164.516 317.112 164.774 316.946 165.102 316.822C164.922 316.742 164.778 316.636 164.67 316.504C164.566 316.368 164.514 316.186 164.514 315.958C164.514 315.87 164.53 315.78 164.562 315.688C164.594 315.592 164.642 315.498 164.706 315.406C164.774 315.31 164.856 315.22 164.952 315.136C165.048 315.052 165.16 314.978 165.288 314.914C164.988 314.746 164.754 314.524 164.586 314.248C164.418 313.968 164.334 313.644 164.334 313.276C164.334 312.98 164.39 312.712 164.502 312.472C164.618 312.228 164.778 312.022 164.982 311.854C165.186 311.682 165.428 311.55 165.708 311.458C165.992 311.366 166.302 311.32 166.638 311.32C166.902 311.32 167.148 311.35 167.376 311.41C167.604 311.466 167.812 311.55 168 311.662H169.65ZM174.728 313.798C174.728 313.55 174.692 313.324 174.62 313.12C174.552 312.912 174.45 312.734 174.314 312.586C174.182 312.434 174.02 312.318 173.828 312.238C173.636 312.154 173.418 312.112 173.174 312.112C172.662 312.112 172.256 312.262 171.956 312.562C171.66 312.858 171.476 313.27 171.404 313.798H174.728ZM175.592 316.648C175.46 316.808 175.302 316.948 175.118 317.068C174.934 317.184 174.736 317.28 174.524 317.356C174.316 317.432 174.1 317.488 173.876 317.524C173.652 317.564 173.43 317.584 173.21 317.584C172.79 317.584 172.402 317.514 172.046 317.374C171.694 317.23 171.388 317.022 171.128 316.75C170.872 316.474 170.672 316.134 170.528 315.73C170.384 315.326 170.312 314.862 170.312 314.338C170.312 313.914 170.376 313.518 170.504 313.15C170.636 312.782 170.824 312.464 171.068 312.196C171.312 311.924 171.61 311.712 171.962 311.56C172.314 311.404 172.71 311.326 173.15 311.326C173.514 311.326 173.85 311.388 174.158 311.512C174.47 311.632 174.738 311.808 174.962 312.04C175.19 312.268 175.368 312.552 175.496 312.892C175.624 313.228 175.688 313.612 175.688 314.044C175.688 314.212 175.67 314.324 175.634 314.38C175.598 314.436 175.53 314.464 175.43 314.464H171.368C171.38 314.848 171.432 315.182 171.524 315.466C171.62 315.75 171.752 315.988 171.92 316.18C172.088 316.368 172.288 316.51 172.52 316.606C172.752 316.698 173.012 316.744 173.3 316.744C173.568 316.744 173.798 316.714 173.99 316.654C174.186 316.59 174.354 316.522 174.494 316.45C174.634 316.378 174.75 316.312 174.842 316.252C174.938 316.188 175.02 316.156 175.088 316.156C175.176 316.156 175.244 316.19 175.292 316.258L175.592 316.648Z" fill="black" fill-opacity="0.38"/>
</g>
<rect x="1" y="1" width="300" height="600" stroke="#979797" stroke-miterlimit="0" stroke-linejoin="bevel"/>
<defs>
<clipPath id="clip0_149_20090">
<rect x="1" y="1" width="300" height="600" fill="white"/>
</clipPath>
</defs>
</svg>
