<svg width="12" height="10" viewBox="0 0 12 10" fill="none" xmlns="http://www.w3.org/2000/svg">
<path fill-rule="evenodd" clip-rule="evenodd" d="M4.25037 1.1501H10.2004C10.3937 1.1501 10.5504 1.3068 10.5504 1.5001V8.5001C10.5504 8.6934 10.3937 8.8501 10.2004 8.8501H4.25037L4.25037 1.1501ZM3.20037 1.1501H1.80039C1.60709 1.1501 1.45039 1.3068 1.45039 1.5001V8.5001C1.45039 8.6934 1.60709 8.8501 1.80039 8.8501H3.20037L3.20037 1.1501ZM0.400391 1.5001C0.400391 0.7269 1.02719 0.100098 1.80039 0.100098H10.2004C10.9736 0.100098 11.6004 0.726899 11.6004 1.5001V8.5001C11.6004 9.2733 10.9736 9.9001 10.2004 9.9001H1.80039C1.02719 9.9001 0.400391 9.2733 0.400391 8.5001V1.5001Z" fill="#060810"/>
<path fill-rule="evenodd" clip-rule="evenodd" d="M4.25037 1.1501H10.2004C10.3937 1.1501 10.5504 1.3068 10.5504 1.5001V8.5001C10.5504 8.6934 10.3937 8.8501 10.2004 8.8501H4.25037L4.25037 1.1501ZM3.20037 1.1501H1.80039C1.60709 1.1501 1.45039 1.3068 1.45039 1.5001V8.5001C1.45039 8.6934 1.60709 8.8501 1.80039 8.8501H3.20037L3.20037 1.1501ZM0.400391 1.5001C0.400391 0.7269 1.02719 0.100098 1.80039 0.100098H10.2004C10.9736 0.100098 11.6004 0.726899 11.6004 1.5001V8.5001C11.6004 9.2733 10.9736 9.9001 10.2004 9.9001H1.80039C1.02719 9.9001 0.400391 9.2733 0.400391 8.5001V1.5001Z" fill="white" fill-opacity="0.4"/>
</svg>
