<svg width="12" height="12" viewBox="0 0 12 12" fill="none" xmlns="http://www.w3.org/2000/svg">
<path fill-rule="evenodd" clip-rule="evenodd" d="M0.574219 1.09995C0.574219 0.810002 0.809269 0.574951 1.09922 0.574951H10.7992C11.0892 0.574951 11.3242 0.810002 11.3242 1.09995V10.8C11.3242 11.0899 11.0892 11.325 10.7992 11.325H1.09922C0.809269 11.325 0.574219 11.0899 0.574219 10.8V1.09995ZM1.62422 1.62495V10.275H10.2742V1.62495H1.62422Z" fill="#060810"/>
<path fill-rule="evenodd" clip-rule="evenodd" d="M0.574219 1.09995C0.574219 0.810002 0.809269 0.574951 1.09922 0.574951H10.7992C11.0892 0.574951 11.3242 0.810002 11.3242 1.09995V10.8C11.3242 11.0899 11.0892 11.325 10.7992 11.325H1.09922C0.809269 11.325 0.574219 11.0899 0.574219 10.8V1.09995ZM1.62422 1.62495V10.275H10.2742V1.62495H1.62422Z" fill="white" fill-opacity="0.4"/>
<path d="M8.09844 5.2999C7.27834 6.12 5.99844 7.3999 5.99844 7.3999C5.99844 7.3999 4.71854 6.12 3.89844 5.2999" stroke="#060810" stroke-width="1.05" stroke-linecap="round" stroke-linejoin="round"/>
<path d="M8.09844 5.2999C7.27834 6.12 5.99844 7.3999 5.99844 7.3999C5.99844 7.3999 4.71854 6.12 3.89844 5.2999" stroke="white" stroke-opacity="0.4" stroke-width="1.05" stroke-linecap="round" stroke-linejoin="round"/>
</svg>
