<svg width="12" height="12" viewBox="0 0 12 12" fill="none" xmlns="http://www.w3.org/2000/svg">
<path fill-rule="evenodd" clip-rule="evenodd" d="M1.09922 0.574951C0.809269 0.574951 0.574219 0.810002 0.574219 1.09995V4.86918C0.574219 5.15913 0.809269 5.39418 1.09922 5.39418H4.86845C5.1584 5.39418 5.39345 5.15913 5.39345 4.86918V1.09995C5.39345 0.810002 5.1584 0.574951 4.86845 0.574951H1.09922ZM1.62422 4.34418V1.62495H4.34345V4.34418H1.62422ZM7.13005 0.574951C6.8401 0.574951 6.60505 0.810002 6.60505 1.09995V4.86918C6.60505 5.15913 6.8401 5.39418 7.13005 5.39418H10.8993C11.1892 5.39418 11.4243 5.15913 11.4243 4.86918V1.09995C11.4243 0.810002 11.1892 0.574951 10.8993 0.574951H7.13005ZM7.65505 4.34418V1.62495H10.3743V4.34418H7.65505ZM0.574219 7.13079C0.574219 6.84084 0.809269 6.60579 1.09922 6.60579H4.86845C5.1584 6.60579 5.39345 6.84084 5.39345 7.13079V10.9C5.39345 11.19 5.1584 11.425 4.86845 11.425H1.09922C0.809269 11.425 0.574219 11.19 0.574219 10.9V7.13079ZM1.62422 7.65579V10.375H4.34345V7.65579H1.62422ZM7.13005 6.60579C6.8401 6.60579 6.60505 6.84084 6.60505 7.13079V10.9C6.60505 11.19 6.8401 11.425 7.13005 11.425H10.8993C11.1892 11.425 11.4243 11.19 11.4243 10.9V7.13079C11.4243 6.84084 11.1892 6.60579 10.8993 6.60579H7.13005ZM7.65505 10.375V7.65579H10.3743V10.375H7.65505Z" fill="#060810"/>
<path fill-rule="evenodd" clip-rule="evenodd" d="M1.09922 0.574951C0.809269 0.574951 0.574219 0.810002 0.574219 1.09995V4.86918C0.574219 5.15913 0.809269 5.39418 1.09922 5.39418H4.86845C5.1584 5.39418 5.39345 5.15913 5.39345 4.86918V1.09995C5.39345 0.810002 5.1584 0.574951 4.86845 0.574951H1.09922ZM1.62422 4.34418V1.62495H4.34345V4.34418H1.62422ZM7.13005 0.574951C6.8401 0.574951 6.60505 0.810002 6.60505 1.09995V4.86918C6.60505 5.15913 6.8401 5.39418 7.13005 5.39418H10.8993C11.1892 5.39418 11.4243 5.15913 11.4243 4.86918V1.09995C11.4243 0.810002 11.1892 0.574951 10.8993 0.574951H7.13005ZM7.65505 4.34418V1.62495H10.3743V4.34418H7.65505ZM0.574219 7.13079C0.574219 6.84084 0.809269 6.60579 1.09922 6.60579H4.86845C5.1584 6.60579 5.39345 6.84084 5.39345 7.13079V10.9C5.39345 11.19 5.1584 11.425 4.86845 11.425H1.09922C0.809269 11.425 0.574219 11.19 0.574219 10.9V7.13079ZM1.62422 7.65579V10.375H4.34345V7.65579H1.62422ZM7.13005 6.60579C6.8401 6.60579 6.60505 6.84084 6.60505 7.13079V10.9C6.60505 11.19 6.8401 11.425 7.13005 11.425H10.8993C11.1892 11.425 11.4243 11.19 11.4243 10.9V7.13079C11.4243 6.84084 11.1892 6.60579 10.8993 6.60579H7.13005ZM7.65505 10.375V7.65579H10.3743V10.375H7.65505Z" fill="white" fill-opacity="0.4"/>
</svg>
