<svg width="84" height="86" viewBox="0 0 84 86" fill="none" xmlns="http://www.w3.org/2000/svg">
<g filter="url(#filter0_d_211_16707)">
<path d="M74.7835 58.6952C73.3989 57.3106 71.7563 56.2184 69.8385 55.3928C67.9293 54.5758 65.9169 54.163 63.8185 54.163C61.7201 54.163 59.7163 54.5758 57.7985 55.3928C56.0527 56.141 54.5305 57.1214 53.2319 58.334L35.0859 48.702C35.4643 47.3518 35.6535 45.9586 35.6535 44.5138C35.6535 42.9658 35.4299 41.4694 34.9827 40.0246L54.2811 29.2402C54.4617 29.137 54.6251 29.0338 54.7799 28.9134C55.7001 29.567 56.7149 30.1346 57.8157 30.6076C59.7249 31.4246 61.7373 31.8374 63.8357 31.8374C65.6417 31.8374 67.3617 31.545 69.0129 30.9602C70.6641 30.3754 72.1605 29.5326 73.5021 28.449L73.7085 28.2684C74.4997 27.5632 75.2479 26.815 75.9359 26.0152C77.0195 24.6736 77.8537 23.1772 78.4471 21.526C79.0319 19.8748 79.3243 18.1548 79.3243 16.3488C79.3243 14.2504 78.9115 12.2466 78.0945 10.3288C77.2775 8.41096 76.1767 6.76836 74.7921 5.38376C73.4075 3.99916 71.7649 2.90696 69.8471 2.08136C67.9379 1.26436 65.9255 0.851562 63.8271 0.851562C61.7287 0.851562 59.7249 1.26436 57.8071 2.08136C55.8893 2.89836 54.2467 3.99916 52.8621 5.38376C51.4861 6.76836 50.3853 8.41096 49.5597 10.3288C48.7427 12.2466 48.3299 14.2504 48.3299 16.3488C48.3299 18.2752 48.6825 20.1328 49.3705 21.9044L30.1409 32.663C28.9799 31.6998 27.6641 30.8914 26.1849 30.2636C24.2757 29.4466 22.2633 29.0338 20.1649 29.0338C18.0665 29.0338 16.0627 29.4466 14.1449 30.2636C12.2271 31.0806 10.5845 32.1814 9.19992 33.566C7.82392 34.9506 6.72312 36.5932 5.89752 38.511C5.08052 40.4288 4.66772 42.4326 4.66772 44.531C4.66772 46.6294 5.08052 48.6332 5.89752 50.551C6.71452 52.4688 7.81532 54.1114 9.19992 55.496C10.5845 56.8806 12.2271 57.9728 14.1449 58.7984C16.0541 59.6154 18.0665 60.0282 20.1649 60.0282C21.9709 60.0282 23.6909 59.7358 25.3421 59.151C26.9933 58.5662 28.4897 57.7234 29.8313 56.6398L30.0377 56.4592C30.1409 56.3646 30.2527 56.2614 30.3559 56.1668L48.7943 65.9278C48.4933 67.1318 48.3385 68.3702 48.3385 69.6516C48.3385 71.75 48.7513 73.7538 49.5683 75.6716C50.3853 77.5894 51.4861 79.232 52.8707 80.6166C54.2553 82.0012 55.8979 83.0934 57.8157 83.919C59.7249 84.736 61.7373 85.1488 63.8357 85.1488C65.6417 85.1488 67.3617 84.8564 69.0129 84.2716C70.6641 83.6868 72.1605 82.844 73.5021 81.7604L73.7085 81.5798C74.4997 80.8746 75.2479 80.1264 75.9359 79.3266C77.0195 77.985 77.8537 76.4886 78.4471 74.8374C79.0319 73.1862 79.3243 71.4662 79.3243 69.6602C79.3243 67.5618 78.9115 65.558 78.0945 63.6402C77.2689 61.7224 76.1681 60.0712 74.7835 58.6952Z" fill="#FFCDC3"/>
</g>
<defs>
<filter id="filter0_d_211_16707" x="0.667725" y="0.851562" width="82.6565" height="92.2974" filterUnits="userSpaceOnUse" color-interpolation-filters="sRGB">
<feFlood flood-opacity="0" result="BackgroundImageFix"/>
<feColorMatrix in="SourceAlpha" type="matrix" values="0 0 0 0 0 0 0 0 0 0 0 0 0 0 0 0 0 0 127 0" result="hardAlpha"/>
<feOffset dy="4"/>
<feGaussianBlur stdDeviation="2"/>
<feComposite in2="hardAlpha" operator="out"/>
<feColorMatrix type="matrix" values="0 0 0 0 0 0 0 0 0 0 0 0 0 0 0 0 0 0 0.25 0"/>
<feBlend mode="normal" in2="BackgroundImageFix" result="effect1_dropShadow_211_16707"/>
<feBlend mode="normal" in="SourceGraphic" in2="effect1_dropShadow_211_16707" result="shape"/>
</filter>
</defs>
</svg>
