<svg width="52" height="52" viewBox="0 0 52 52" fill="none" xmlns="http://www.w3.org/2000/svg">
<rect width="52" height="52" rx="26" fill="#CE6035"/>
<path d="M24.2223 13.5557C22.1127 13.5557 20.0504 14.1813 18.2963 15.3533C16.5421 16.5254 15.175 18.1913 14.3676 20.1404C13.5603 22.0895 13.3491 24.2342 13.7606 26.3033C14.1722 28.3724 15.1881 30.273 16.6799 31.7648C18.1716 33.2566 20.0722 34.2725 22.1414 34.684C24.2105 35.0956 26.3552 34.8844 28.3043 34.077C30.2534 33.2697 31.9193 31.9025 33.0913 30.1484C34.2634 28.3943 34.889 26.332 34.889 24.2223C34.889 21.3934 33.7652 18.6802 31.7648 16.6799C29.7644 14.6795 27.0513 13.5557 24.2223 13.5557V13.5557ZM24.2223 33.0312C22.4609 33.0311 20.7392 32.5077 19.2757 31.5274C17.8123 30.5471 16.6731 29.1541 16.0027 27.5252C15.3323 25.8963 15.161 24.105 15.5106 22.3786C15.8601 20.6521 16.7146 19.0685 17.9658 17.8286C19.2169 16.5887 20.8082 15.7485 22.5378 15.4146C24.2673 15.0807 26.057 15.2682 27.6798 15.9533C29.3025 16.6383 30.6852 17.7901 31.6522 19.2623C32.6193 20.7346 33.1271 22.461 33.1112 24.2223C33.0901 26.5659 32.1443 28.8063 30.4796 30.4561C28.8149 32.1058 26.566 33.0313 24.2223 33.0312V33.0312Z" fill="#FDE5DB"/>
<path d="M38.1866 36.391L33.591 31.7954C33.2123 32.2639 32.7993 32.7037 32.3555 33.111L36.9332 37.6887C37.1033 37.8344 37.322 37.9105 37.5457 37.9018C37.7695 37.8932 37.9817 37.8004 38.14 37.6421C38.2983 37.4838 38.391 37.2716 38.3997 37.0479C38.4083 36.8242 38.3322 36.6055 38.1866 36.4354V36.391Z" fill="#FDE5DB"/>
<path d="M28.6664 23.3331H25.1109V19.7776C25.1109 19.5418 25.0172 19.3157 24.8505 19.149C24.6838 18.9823 24.4578 18.8887 24.222 18.8887C23.9863 18.8887 23.7602 18.9823 23.5935 19.149C23.4268 19.3157 23.3331 19.5418 23.3331 19.7776V23.3331H19.7776C19.5418 23.3331 19.3157 23.4268 19.149 23.5935C18.9823 23.7602 18.8887 23.9863 18.8887 24.222C18.8887 24.4578 18.9823 24.6838 19.149 24.8505C19.3157 25.0172 19.5418 25.1109 19.7776 25.1109H23.3331V28.6664C23.3331 28.9022 23.4268 29.1283 23.5935 29.295C23.7602 29.4617 23.9863 29.5553 24.222 29.5553C24.4578 29.5553 24.6838 29.4617 24.8505 29.295C25.0172 29.1283 25.1109 28.9022 25.1109 28.6664V25.1109H28.6664C28.9022 25.1109 29.1283 25.0172 29.295 24.8505C29.4617 24.6838 29.5553 24.4578 29.5553 24.222C29.5553 23.9863 29.4617 23.7602 29.295 23.5935C29.1283 23.4268 28.9022 23.3331 28.6664 23.3331Z" fill="#FDE5DB"/>
</svg>
